SplineFontDB: 3.2
FontName: RITTNJoy-ExtraBold
FullName: RIT TN Joy Extra Bold
FamilyName: RIT TN Joy
Weight: Extra-Bold
Copyright: Copyright (c) 2019-2024 Rachana Institute of Typography, Trivandrum (www.rachana.org.in; info@rachana.org.in); and\n  STM Document Engineering Pvt Ltd, Trivandrum (www.stmdocs.in; info@stmdocs.in),\n  with Reserved Font Name 'TN Joy'.\n\nContributors:\n1. Hussain KH <hussain.rachana@gmail.com>\n2. Ashokkumar PK\n3. Rajeesh KV <rajeeshknambiar@gmail.com>\n4. Radhakrishnan CV <cvr@cvr.cc>\n\nThis font is an offspring of the 2024 campaign of 'Rachana Akshara Vedi' led by Mr. Chitrajakumar who concieved an exhaustive character set for Malayalam computing, later taken initiatives to popularise by Anivar Aravind of Swathantra Malayalam Computing (SMC).\nThis font is created, named and released in memory of Comrade TN Joy (August 16, 2024 --October 2, 2018) who was a Marxist but a revolutionary thinker and activist beyond traditional Marxism. He was the main force to organise underground resistance against autocratic rule in Emergency period (1975--77) in Kerala. He was one of the organisers of font releasing function of Rachana at VJT Hall, Thiruvananthapuram on 7th July 1999.\nMaking of this font is funded by Janayugom Publications, Kadappakkada, Kollam as a part of the 'Scribus Project' led by Mr. Rajaji Mathew Thomas which made possible the first daily news paper to typeset using fully open source operating system and open softwares.\n\nThis Font Software is licensed under the SIL Open Font License, Version 1.1. http://scripts.sil.org/OFL.
Version: 1.6.2
ItalicAngle: 0
UnderlinePosition: -411
UnderlineWidth: 40
Ascent: 652
Descent: 372
InvalidEm: 0
sfntRevision: 0x00010000
LayerCount: 2
Layer: 0 0 "Back" 1
Layer: 1 0 "Fore" 0
XUID: [1021 94 186795851 5880692]
StyleMap: 0x0020
FSType: 0
OS2Version: 3
OS2_WeightWidthSlopeOnly: 0
OS2_UseTypoMetrics: 0
CreationTime: 1418342400
ModificationTime: 1720499648
PfmFamily: 33
TTFWeight: 800

StartChar: exclam
Encoding: 33 33 5
Width: 272
GlyphClass: 2
Flags: MW
HStem: -10 135<151 174> 594 20G<110 215 215 215>
VStem: 99 123<43.3335 66.6665> 110 105<377 614> 142 42<173 173>
LayerCount: 2
Fore
SplineSet
110 377 m 2xd0
 110 614 l 1
 215 614 l 1
 215 345 l 2xd0
 215 332.555664062 212.333007812 313.888671875 207 289 c 2
 184 173 l 1
 142 173 l 1xc8
 123 288 l 2
 120.333007812 302.666992188 117.5 317.5 114.5 332.5 c 0
 111.5 347.5 110 362.333007812 110 377 c 2xd0
222 55 m 0xe0
 222 31.6669921875 218 15 210 5 c 0
 202 -5 186 -10 162 -10 c 0
 138 -10 121.5 -5 112.5 5 c 0
 103.5 15 99 31.6669921875 99 55 c 0
 99 78.3330078125 103.5 95.8330078125 112.5 107.5 c 0
 121.5 119.166992188 138.5 125 163.5 125 c 0
 188.5 125 204.5 119.166992188 211.5 107.5 c 0
 218.5 95.8330078125 222 78.3330078125 222 55 c 0xe0
EndSplineSet
EndChar

StartChar: quotedbl
Encoding: 34 34 6
Width: 290
GlyphClass: 2
Flags: MW
HStem: 357 288<45 76 45 118 45 254 45 212>
VStem: 42 111<544 582.667 544 589.333> 178 111<544 582.667 544 589.333>
LayerCount: 2
Fore
SplineSet
76 357 m 1
 53.3330078125 428.23828125 42 502.73828125 42 580.5 c 0
 42 598.166992188 43 619.666992188 45 645 c 1
 53.5 645 l 2
 56.5 645 59.6669921875 645.333007812 63 646 c 2
 97 647 l 1
 132 646 l 2
 135.333007812 645.333007812 138.5 645 141.5 645 c 2
 150 645 l 1
 152 607 153 585.333007812 153 580 c 0
 153 508 141.333007812 433.666992188 118 357 c 1
 76 357 l 1
212 357 m 1
 189.333007812 428.23828125 178 502.73828125 178 580.5 c 0
 178 598.166992188 179 619.666992188 181 645 c 1
 189.5 645 l 2
 192.5 645 195.666992188 645.333007812 199 646 c 2
 233 647 l 1
 268 646 l 2
 271.333007812 645.333007812 274.5 645 277.5 645 c 2
 286 645 l 1
 288 607 289 585.333007812 289 580 c 0
 289 508 277.333007812 433.666992188 254 357 c 1
 212 357 l 1
EndSplineSet
EndChar

StartChar: numbersign
Encoding: 35 35 7
Width: 382
GlyphClass: 2
Flags: MW
HStem: 151 77<18 81 18 94 176 224 18 163 318 385> 359 76<47 115 47 128 210 255 47 198 349 407>
LayerCount: 2
Fore
SplineSet
375 602 m 1
 349 435 l 1
 407 435 l 1
 407 359 l 1
 338 359 l 1
 318 228 l 1
 385 228 l 1
 385 151 l 1
 306 151 l 1
 279 -24 l 1
 197 -24 l 1
 224 151 l 1
 163 151 l 1
 134 -24 l 1
 52 -24 l 1
 81 151 l 1
 18 151 l 1
 18 228 l 1
 94 228 l 1
 115 359 l 1
 47 359 l 1
 47 435 l 1
 128 435 l 1
 155 602 l 1
 238 602 l 1
 210 435 l 1
 267 435 l 1
 292 602 l 1
 375 602 l 1
198 359 m 1
 176 228 l 1
 235 228 l 1
 255 359 l 1
 198 359 l 1
EndSplineSet
EndChar

StartChar: dollar
Encoding: 36 36 8
Width: 457
GlyphClass: 2
Flags: MW
HStem: -25 64 448 21G 551 76
VStem: 32 82 42 88 212 60<-112.001 -25.001 -112.001 -25.001> 348 86 370 92<127.333 166.333 127.333 169.33>
LayerCount: 2
Fore
SplineSet
462 155 m 0xe5
 462 99.6669921875 446 55.998046875 414 23.998046875 c 0
 381.333007812 -7.3349609375 334 -23.66796875 272 -25.0009765625 c 1
 272 -112.000976562 l 1
 212 -112.000976562 l 1
 212 -25.0009765625 l 1
 146.666992188 -25.0009765625 100.333984375 -7.16796875 73.0009765625 28.4990234375 c 0
 45.66796875 64.166015625 32.0009765625 112.333007812 32.0009765625 173 c 1
 114.000976562 173 l 1
 114.000976562 171 l 2xf5
 117.333984375 145.666992188 122.166992188 122 128.5 100 c 0
 134.833007812 78 147.333007812 61.3330078125 166 50 c 0
 177.333007812 42.6669921875 192.666015625 39 211.999023438 39 c 1
 211.999023438 268 l 1
 174.388671875 279.572265625 145.319335938 291.131835938 124.791015625 302.678710938 c 0
 104.262695312 314.225585938 90.6650390625 323.33203125 83.998046875 329.999023438 c 0
 66.6650390625 347.33203125 55.33203125 365.999023438 49.9990234375 385.999023438 c 0
 44.666015625 405.999023438 41.9990234375 431.166015625 41.9990234375 461.499023438 c 0
 41.9990234375 491.83203125 50.33203125 520.999023438 66.9990234375 548.999023438 c 0
 96.0341796875 597.778320312 144.3671875 623.778320312 211.998046875 626.999023438 c 1
 211.998046875 671.999023438 l 1
 271.998046875 671.999023438 l 1
 271.998046875 626.999023438 l 1
 323.998046875 625.666015625 363.998046875 608.999023438 391.998046875 576.999023438 c 0
 419.998046875 544.999023438 433.998046875 501.999023438 433.998046875 447.999023438 c 1
 347.998046875 447.999023438 l 1xee
 347.998046875 476.33203125 343.498046875 497.749023438 334.498046875 512.249023438 c 0
 318.463867188 538.08203125 297.630859375 550.999023438 271.999023438 550.999023438 c 1
 271.999023438 343.999023438 l 1
 327.137695312 326.768554688 364.255859375 313.127929688 383.353515625 303.076171875 c 0
 402.451171875 293.024414062 416 283.999023438 424 275.999023438 c 0
 442 258.666015625 452.833007812 239.833007812 456.5 219.5 c 0
 460.166992188 199.166992188 462 177.666992188 462 155 c 0xe5
212 347.998046875 m 1
 212 550.99609375 l 1
 184 549.663085938 163.333007812 539.663085938 150 520.99609375 c 0
 136.666992188 502.329101562 130 478.829101562 130 450.49609375 c 0xec
 130 422.163085938 137.833007812 399.830078125 153.5 383.497070312 c 0
 169.166992188 367.1640625 188.666992188 355.331054688 212 347.998046875 c 1
272 38.99609375 m 1
 337.333007812 41.55859375 370 79.8916015625 370 153.99609375 c 0xe5
 370 184.663085938 360.166992188 208.663085938 340.5 225.99609375 c 0
 320.833007812 243.329101562 298 255.329101562 272 261.99609375 c 1
 272 38.99609375 l 1
EndSplineSet
EndChar

StartChar: percent
Encoding: 37 37 9
Width: 673
GlyphClass: 2
Flags: MW
HStem: -30 72 199 76 282 76 517 73 592 20G<501 539 539 539>
VStem: 40 73 252 73 375 74 587 74
LayerCount: 2
Fore
SplineSet
215 -23 m 1
 178 -23 l 1
 501 612 l 1
 539 612 l 1
 215 -23 l 1
661 120 m 0
 661 74 649.333007812 37.5 626 10.5 c 0
 602.666992188 -16.5 566.166992188 -30 516.5 -30 c 0
 422.166992188 -30 375 20 375 120 c 0
 375 166 386.333007812 203.333007812 409 232 c 0
 431.666992188 260.666992188 468 275 518 275 c 0
 568 275 604.333007812 260.666992188 627 232 c 0
 649.666992188 203.333007812 661 166 661 120 c 0
291 324 m 0
 268.333007812 296 232.000976562 282.000976562 182.000976562 282.000976562 c 0
 132.000976562 282.000976562 95.833984375 296.000976562 73.5009765625 324.000976562 c 0
 51.16796875 352.000976562 40.0009765625 389.000976562 40.0009765625 435.000976562 c 0
 40.0009765625 481.000976562 51.5009765625 518.333984375 74.5009765625 547.000976562 c 0
 97.5009765625 575.66796875 134.000976562 590.000976562 184.000976562 590.000976562 c 0
 230.911132812 590.000976562 266.744140625 575.500976562 291.5 546.500976562 c 0
 313.833007812 520.338867188 325 483.71484375 325 436.62890625 c 0
 325 389.54296875 313.666992188 352 291 324 c 0
449.000976562 121.000976562 m 0
 449.000976562 68.333984375 472.66796875 42.001953125 520.000976562 42.001953125 c 0
 546.66796875 42.001953125 564.500976562 49.501953125 573.500976562 64.501953125 c 0
 582.500976562 79.501953125 587.000976562 98.001953125 587.000976562 120.001953125 c 0
 587.000976562 142.001953125 582.000976562 160.668945312 572.000976562 176.001953125 c 0
 562.000976562 191.334960938 544.500976562 199.001953125 519.500976562 199.001953125 c 0
 494.500976562 199.001953125 476.500976562 191.668945312 465.500976562 177.001953125 c 0
 454.500976562 162.334960938 449.000976562 143.66796875 449.000976562 121.000976562 c 0
252.000976562 437.001953125 m 0
 252.000976562 490.334960938 229.333984375 517.001953125 184.000976562 517.001953125 c 0
 158.66796875 517.001953125 140.500976562 509.168945312 129.500976562 493.501953125 c 0
 118.500976562 477.834960938 113.000976562 459.001953125 113.000976562 437.001953125 c 0
 113.000976562 415.001953125 118.500976562 396.334960938 129.500976562 381.001953125 c 0
 140.500976562 365.668945312 159.000976562 358.001953125 185.000976562 358.001953125 c 0
 211.000976562 358.001953125 228.66796875 365.501953125 238.000976562 380.501953125 c 0
 247.333984375 395.501953125 252.000976562 414.334960938 252.000976562 437.001953125 c 0
EndSplineSet
EndChar

StartChar: ampersand
Encoding: 38 38 10
Width: 562
GlyphClass: 2
Flags: MW
HStem: -19 73 1 21G 531 71
VStem: 30 92 125 92 336 85 444 87<254.172 279>
LayerCount: 2
Fore
SplineSet
531 277 m 2xbe
 531 231.34375 507.66796875 183.67578125 461.000976562 133.998046875 c 1
 571.000976562 0.998046875 l 1
 484.000976562 0.998046875 l 1x7e
 423.000976562 79.998046875 l 1
 396.333984375 49.998046875 367.333984375 25.998046875 336.000976562 7.998046875 c 0
 304.66796875 -10.001953125 270.334960938 -19.001953125 233.001953125 -19.001953125 c 0
 195.668945312 -19.001953125 164.501953125 -16.6689453125 139.501953125 -12.001953125 c 0
 114.501953125 -7.3349609375 93.8349609375 0.998046875 77.501953125 12.998046875 c 0
 45.8349609375 36.263671875 30.001953125 77.5966796875 30.001953125 136.998046875 c 0
 30.001953125 150.998046875 30.6689453125 163.831054688 32.001953125 175.498046875 c 0
 33.3349609375 187.165039062 36.8349609375 197.665039062 42.501953125 206.998046875 c 0
 50.2939453125 219.831054688 59.126953125 232.831054688 69.001953125 245.998046875 c 0
 82.001953125 258.998046875 102.251953125 271.748046875 129.751953125 284.248046875 c 0
 157.251953125 296.748046875 174.334960938 304.831054688 181.001953125 308.498046875 c 0
 192.040039062 314.569335938 205.373046875 319.736328125 221.000976562 323.999023438 c 1
 211.66796875 333.999023438 201.500976562 344.499023438 190.500976562 355.499023438 c 0
 179.500976562 366.499023438 169.16796875 377.666015625 159.500976562 388.999023438 c 0
 136.500976562 415.96484375 125.000976562 440.631835938 125.000976562 463 c 0
 125.000976562 505 138.500976562 538.666992188 165.500976562 564 c 0
 192.500976562 589.333007812 230.500976562 602 279.500976562 602 c 0
 328.500976562 602 364.333984375 589.333007812 387.000976562 564 c 0
 409.66796875 538.666992188 421.000976562 505 421.000976562 463 c 0
 421.000976562 413.22265625 394.333984375 373.889648438 341.000976562 345.000976562 c 0
 325.000976562 336.333984375 308.000976562 327.666992188 290.000976562 319 c 1
 419.000976562 182 l 1
 434.333984375 212.666992188 442.666992188 245 444 279 c 1
 531 279 l 1
 531 277 l 2xbe
329.000976562 426.499023438 m 0
 333.66796875 436.166015625 336 448.999023438 336 464.999023438 c 0
 336 480.999023438 331 495.999023438 321 509.999023438 c 0
 311 523.999023438 294.833007812 530.999023438 272.5 530.999023438 c 0
 250.166992188 530.999023438 235.333984375 523.83203125 228.000976562 509.499023438 c 0
 220.66796875 495.166015625 217.000976562 477.333007812 217.000976562 456 c 0
 217.000976562 434.666992188 221.333984375 417 230.000976562 403 c 0
 238.66796875 389 250.000976562 374 264.000976562 358 c 1
 293.6328125 375.28515625 315.299804688 398.118164062 329.000976562 426.499023438 c 0
372 122.999023438 m 1
 246.000976562 287.999023438 l 1
 231.333984375 279.33203125 216.666992188 270.83203125 202 262.499023438 c 0
 187.333007812 254.166015625 174 245.166015625 162 235.499023438 c 0
 135.333007812 214.017578125 122 187.73046875 122 156.637695312 c 0
 122 88.2119140625 160.333007812 53.9990234375 237 53.9990234375 c 0xbe
 268.333007812 53.9990234375 294 60.4990234375 314 73.4990234375 c 0
 334 86.4990234375 353.333007812 102.999023438 372 122.999023438 c 1
EndSplineSet
EndChar

StartChar: quotesingle
Encoding: 39 39 11
Width: 156
GlyphClass: 2
Flags: MW
HStem: 357 290<100 100 100 120.999 78.999 100>
VStem: 48.5252 105.885
LayerCount: 2
Fore
SplineSet
100 647 m 1
 134.999023438 646 l 2
 141.666015625 644.666992188 147.666015625 644 152.999023438 644 c 1
 156.87890625 594.857421875 157.348632812 557.23828125 154.409179688 531.142578125 c 0
 151.469726562 505.046875 149.166015625 485.666015625 147.499023438 472.999023438 c 0
 145.83203125 460.33203125 143.83203125 447.999023438 141.499023438 435.999023438 c 0
 137.319335938 414.504882812 130.486328125 388.171875 120.999023438 357 c 1
 78.9990234375 357 l 1
 60.3662109375 415.561523438 50.2080078125 462.868164062 48.5244140625 498.920898438 c 0
 45.556640625 562.481445312 45.3818359375 610.840820312 48 644 c 1
 53.3330078125 644 59.3330078125 644.666992188 66 646 c 2
 100 647 l 1
EndSplineSet
EndChar

StartChar: parenleft
Encoding: 40 40 12
Width: 172
GlyphClass: 2
Flags: MW
HStem: 612 20G
VStem: 39 98
LayerCount: 2
Fore
SplineSet
229 -161 m 1
 191.000976562 -161.002929688 l 1
 134.846679688 -96.826171875 95.513671875 -35.6591796875 73.0009765625 22.498046875 c 0
 50.333984375 81.0537109375 39.0009765625 151.220703125 39.0009765625 232.998046875 c 0
 39.0009765625 316.565429688 50.5009765625 387.565429688 73.5009765625 445.998046875 c 0
 97.0771484375 505.89453125 136.91015625 567.89453125 193 631.998046875 c 1
 228 631.998046875 l 1
 195.416015625 564.224609375 173.770507812 507.948242188 163.0625 463.168945312 c 0
 145.6875 390.510742188 137 315.12109375 137 237 c 0
 137 158.515625 142.333007812 96.7275390625 153 51.63671875 c 0
 169.938476562 -19.9658203125 195.271484375 -90.8447265625 229 -161 c 1
EndSplineSet
EndChar

StartChar: parenright
Encoding: 41 41 13
Width: 207
GlyphClass: 2
Flags: MW
HStem: 612 20G<21 57 57 57>
VStem: 113 98
LayerCount: 2
Fore
SplineSet
58 -161 m 1
 21 -160.999023438 l 1
 54.2353515625 -88.98828125 76.2109375 -31.3193359375 86.9267578125 12.0087890625 c 0
 104.30859375 82.2939453125 113 157.291015625 113 237.000976562 c 0
 113 314.819335938 107.666992188 376.2734375 97 421.364257812 c 0
 80.0546875 492.997070312 54.7216796875 563.208984375 21 632 c 1
 57 632 l 1
 113.630859375 567.279296875 153.297851562 505.279296875 176.000976562 446 c 0
 199.333984375 385.07421875 211.000976562 314.07421875 211.000976562 233 c 0
 211.000976562 151.846679688 199.16796875 81.8466796875 175.500976562 23 c 0
 153.005859375 -32.9326171875 113.838867188 -94.265625 58 -161 c 1
EndSplineSet
EndChar

StartChar: asterisk
Encoding: 42 42 14
Width: 264
GlyphClass: 2
Flags: MW
HStem: 326 258<94 188 119 210>
VStem: 119 69<584 584>
LayerCount: 2
Fore
SplineSet
188 584 m 1
 181 474 l 1
 255 521 l 1
 267 457 l 1
 192 432 l 1
 240 355 l 1
 210 326 l 1
 151 408 l 1
 94 326 l 1
 66 354 l 1
 112 432 l 1
 39 457 l 1
 49 521 l 1
 124 474 l 1
 119 584 l 1
 188 584 l 1
EndSplineSet
EndChar

StartChar: plus
Encoding: 43 43 15
Width: 380
GlyphClass: 2
Flags: MW
HStem: 0 21G<174 250 174 174> 159 74<36 174 36 174 250 388>
VStem: 174 76<0 159 0 159 233 412>
LayerCount: 2
Fore
SplineSet
250 412 m 1
 250 233 l 1
 388 233 l 1
 388 159 l 1
 250 159 l 1
 250 0 l 1
 174 0 l 1
 174 159 l 1
 36 159 l 1
 36 233 l 1
 174 233 l 1
 174 412 l 1
 250 412 l 1
EndSplineSet
EndChar

StartChar: comma
Encoding: 44 44 16
Width: 246
GlyphClass: 2
Flags: MW
HStem: -4 148
VStem: 36 172
LayerCount: 2
Fore
SplineSet
120 4 m 1
 107.555664062 -1.3330078125 96.109375 -4.0009765625 85.6650390625 -4.0009765625 c 0
 75.220703125 -4.0009765625 64.33203125 1.666015625 52.9990234375 12.9990234375 c 0
 41.666015625 24.33203125 35.9990234375 40.83203125 35.9990234375 62.4990234375 c 0
 35.9990234375 84.166015625 41.83203125 103.166015625 53.4990234375 119.499023438 c 0
 65.166015625 135.83203125 87.3330078125 143.999023438 120 143.999023438 c 0
 167.5 143.999023438 195.5 126.999023438 204 92.9990234375 c 0
 206.666992188 82.33203125 208 69.9990234375 208 55.9990234375 c 0
 208 41.9990234375 204.5 27.166015625 197.5 11.4990234375 c 0
 190.5 -4.16796875 181.666992188 -19.5009765625 171 -34.5009765625 c 0
 155.41015625 -56.423828125 131.743164062 -83.2568359375 100 -115 c 1
 50 -107 l 1
 67.3330078125 -87.6669921875 82 -70.1669921875 94 -54.5 c 0
 106 -38.8330078125 114.666992188 -19.3330078125 120 4 c 1
EndSplineSet
EndChar

StartChar: hyphen
Encoding: 45 45 17
Width: 325
GlyphClass: 2
Flags: MW
HStem: 101 80<33 335 33 335>
VStem: 33 302<101 181 101 181>
LayerCount: 2
Fore
SplineSet
33 101 m 1
 33 181 l 1
 335 181 l 1
 335 101 l 1
 33 101 l 1
EndSplineSet
EndChar

StartChar: period
Encoding: 46 46 18
Width: 210
GlyphClass: 2
Flags: MW
HStem: -35 156<93 115.333 90.6665 117>
VStem: 39 129<31 50 31 50>
LayerCount: 2
Fore
SplineSet
154 95 m 0
 163.333007812 77.6669921875 168 59.5 168 40.5 c 0
 168 21.5 163.5 4.1669921875 154.5 -11.5 c 0
 145.5 -27.1669921875 129 -35 105 -35 c 0
 81 -35 64 -27.5 54 -12.5 c 0
 44 2.5 39 20 39 40 c 0
 39 60 43.5 78.5 52.5 95.5 c 0
 61.5 112.5 78.3330078125 121 103 121 c 0
 127.666992188 121 144.666992188 112.333007812 154 95 c 0
EndSplineSet
EndChar

StartChar: slash
Encoding: 47 47 19
Width: 220
GlyphClass: 2
Flags: MW
HStem: 0 21G<20 20> 593 20G<250 250>
VStem: 20 230
LayerCount: 2
Fore
SplineSet
92 24 m 1
 20 0 l 1
 175 578 l 1
 250 613 l 1
 92 24 l 1
EndSplineSet
EndChar

StartChar: zero
Encoding: 48 48 20
Width: 411
GlyphClass: 2
Flags: MW
HStem: -16 68 471 72
VStem: 41 94<238.334 270.667> 314 97<249.667 281.334 249.667 310.001 249.667 339.776>
LayerCount: 2
Fore
SplineSet
330 10 m 0
 305.333007812 -7.3330078125 270.833007812 -15.998046875 226.5 -15.998046875 c 0
 182.166992188 -15.998046875 147.5 -7.998046875 122.5 8.001953125 c 0
 97.5 24.001953125 79 44.8349609375 67 70.501953125 c 0
 55 96.1689453125 47.6669921875 125.168945312 45 157.501953125 c 0
 42.3330078125 189.834960938 41 222.16796875 41 254.500976562 c 0
 41 286.833984375 42.3330078125 320.000976562 45 354.000976562 c 0
 47.6669921875 388.000976562 55 419.000976562 67 447.000976562 c 0
 94.4287109375 511.000976562 147.428710938 543.000976562 226 543.000976562 c 0
 303.608398438 543.000976562 356.44140625 512.66796875 384.5 452.000976562 c 0
 396.833007812 425.333984375 404.333007812 395.500976562 407 362.500976562 c 0
 409.666992188 329.500976562 411 297.16796875 411 265.500976562 c 0
 411 233.833984375 409.666992188 201.166992188 407 167.5 c 0
 404.333007812 133.833007812 397 103.5 385 76.5 c 0
 373 49.5 354.666992188 27.3330078125 330 10 c 0
280.5 445.501953125 m 0
 268.166992188 462.501953125 250.5 471.000976562 227.5 471.000976562 c 0
 204.5 471.000976562 187 464.833984375 175 452.500976562 c 0
 163 440.16796875 154 424.834960938 148 406.501953125 c 0
 139.333007812 380.020507812 135 349.483398438 135 314.890625 c 2
 135 222.501953125 l 2
 135 159.4296875 146.166992188 111.596679688 168.5 79.001953125 c 0
 180.833007812 61.001953125 198.5 52.001953125 221.5 52.001953125 c 0
 244.5 52.001953125 262 58.8349609375 274 72.501953125 c 0
 286 86.1689453125 295 103.001953125 301 123.001953125 c 0
 309.666992188 151.890625 314 183.779296875 314 218.66796875 c 2
 314 310.000976562 l 2
 314 369.55078125 302.833007812 414.717773438 280.5 445.501953125 c 0
EndSplineSet
EndChar

StartChar: one
Encoding: 49 49 21
Width: 220
GlyphClass: 2
Flags: MW
HStem: 0 21G 372 50
VStem: 125 94
LayerCount: 2
Fore
SplineSet
128 519 m 1
 219.001953125 518.999023438 l 1
 219.001953125 -0.0009765625 l 1
 125.001953125 -0.0009765625 l 1
 125.001953125 371.999023438 l 1
 24.001953125 371.999023438 l 1
 24.001953125 421.999023438 l 1
 62.486328125 421.999023438 87.4404296875 426.83203125 98.8642578125 436.499023438 c 0
 110.288085938 446.166015625 118 457.333007812 122 470 c 0
 126 482.666992188 128 499 128 519 c 1
EndSplineSet
EndChar

StartChar: two
Encoding: 50 50 22
Width: 388
GlyphClass: 2
Flags: MW
HStem: 0 73 457 77
VStem: 41 76 290 98<356.334 384.667>
LayerCount: 2
Fore
SplineSet
134 73 m 1
 395.001953125 73.00390625 l 1
 395.001953125 0.00390625 l 1
 44.001953125 0.00390625 l 1
 44.001953125 3.00390625 l 2
 44.001953125 68.5673828125 65.1689453125 122.900390625 107.501953125 166.002929688 c 0
 125.834960938 184.669921875 145.66796875 201.002929688 167.000976562 215.002929688 c 0
 188.333984375 229.002929688 208.166992188 243.169921875 226.5 257.502929688 c 0
 244.833007812 271.8359375 260 287.168945312 272 303.501953125 c 0
 284 319.834960938 290 342.16796875 290 370.500976562 c 0
 290 398.833984375 283.333007812 420.333984375 270 435.000976562 c 0
 256.666992188 449.66796875 233.666992188 457.000976562 201 457.000976562 c 0
 155.383789062 457.000976562 128.55078125 434.000976562 120.500976562 388.000976562 c 0
 118.16796875 374.66796875 117.000976562 360.66796875 117.000976562 346.000976562 c 1
 41.0009765625 346.000976562 l 1
 41.0009765625 348.000976562 l 2
 41.0009765625 410.06640625 53.5009765625 455.733398438 78.5009765625 485.001953125 c 0
 106.403320312 517.668945312 151.795898438 534.001953125 214.677734375 534.001953125 c 0
 277.559570312 534.001953125 322.166992188 521.668945312 348.5 497.001953125 c 0
 374.833007812 472.334960938 388 433.001953125 388 379.001953125 c 0
 388 327.71875 367.5 286.21875 326.5 254.501953125 c 0
 308.833007812 240.834960938 289.5 228.66796875 268.5 218.000976562 c 0
 247.5 207.333984375 227.666992188 195.666992188 209 183 c 0
 190.333007812 170.333007812 174 155.5 160 138.5 c 0
 146 121.5 137.333007812 99.6669921875 134 73 c 1
EndSplineSet
EndChar

StartChar: three
Encoding: 51 51 23
Width: 389
GlyphClass: 2
Flags: MW
HStem: -19 69 236 77 473 72<180.919 217.667>
VStem: 35 78 47 77<373 375 375 380.333 373 402.667> 280 97 302 97
LayerCount: 2
Fore
SplineSet
399 145 m 0xe2
 399 88.3330078125 384.500976562 46.8310546875 355.500976562 20.498046875 c 0
 326.500976562 -5.8349609375 281.333984375 -19.001953125 220.000976562 -19.001953125 c 0
 158.66796875 -19.001953125 112.500976562 -5.6689453125 81.5009765625 20.998046875 c 0
 50.5009765625 47.6650390625 35.0009765625 91.33203125 35.0009765625 151.999023438 c 1
 113.000976562 151.999023438 l 1
 113.000976562 115.999023438 120.66796875 89.9990234375 136.000976562 73.9990234375 c 0
 151.333984375 57.9990234375 177.166992188 49.9990234375 213.5 49.9990234375 c 0
 249.833007812 49.9990234375 273.666015625 58.33203125 284.999023438 74.9990234375 c 0
 296.33203125 91.666015625 301.999023438 115.666015625 301.999023438 146.999023438 c 0xf2
 301.999023438 175.1015625 299.33203125 193.4609375 293.999023438 202.076171875 c 0
 283.879882812 218.422851562 266.212890625 228.397460938 240.999023438 231.999023438 c 0
 220.999023438 234.666015625 201.33203125 235.999023438 181.999023438 235.999023438 c 1
 182.999023438 312.999023438 l 1
 216.046875 312.999023438 238.142578125 315.999023438 249.28515625 321.999023438 c 0
 260.427734375 327.999023438 268.33203125 335.83203125 272.999023438 345.499023438 c 0
 277.666015625 355.166015625 279.999023438 371.833007812 279.999023438 395.5 c 0
 279.999023438 419.166992188 274.83203125 438 264.499023438 452 c 0
 254.166015625 466 233.333007812 473 202 473 c 0
 159.837890625 473 135.004882812 453.166992188 127.5 413.5 c 0
 125.166992188 401.166992188 124 387.666992188 124 373 c 1
 47 373 l 1
 47 375 l 2
 47 430.333007812 59 472.5 83 501.5 c 0
 107 530.5 147.5 545 204.5 545 c 0
 261.5 545 304.5 533.833007812 333.5 511.5 c 0
 362.5 489.166992188 377 450.666992188 377 396 c 0xec
 377 364.1484375 375.333007812 342.852539062 372 332.111328125 c 0
 365.431640625 310.946289062 350.764648438 292.576171875 328 277 c 1
 360.666992188 259.666992188 380.666992188 240.666992188 388 220 c 0
 395.333007812 199.333007812 399 174.333007812 399 145 c 0xe2
EndSplineSet
EndChar

StartChar: four
Encoding: 52 52 24
Width: 362
GlyphClass: 2
Flags: MW
HStem: 0 21G<217 311 217 217> 102 73<75 217 75 217 32 217 311 376> 508 20G<244 311 311 311>
VStem: 217 94<0 102 0 102 175 426 426 426>
LayerCount: 2
Fore
SplineSet
311 528 m 1
 311 175 l 1
 376 175 l 1
 376 102 l 1
 311 102 l 1
 311 0 l 1
 217 0 l 1
 217 102 l 1
 32 102 l 1
 32 187 l 1
 244 528 l 1
 311 528 l 1
217 175 m 1
 217 426 l 1
 75 175 l 1
 217 175 l 1
EndSplineSet
EndChar

StartChar: five
Encoding: 53 53 25
Width: 396
GlyphClass: 2
Flags: MW
HStem: -19 68 288 80 459 77
VStem: 36 66 300 101
LayerCount: 2
Fore
SplineSet
111 243 m 1
 39.998046875 242.998046875 l 1
 82.998046875 535.998046875 l 1
 338.998046875 535.998046875 l 1
 338.998046875 458.998046875 l 1
 152.998046875 458.998046875 l 1
 132.998046875 321.998046875 l 1
 163.665039062 352.665039062 196.998046875 367.998046875 232.998046875 367.998046875 c 0
 291.665039062 367.998046875 334.33203125 350.665039062 360.999023438 315.998046875 c 0
 387.666015625 281.331054688 400.999023438 235.331054688 400.999023438 177.998046875 c 0
 400.999023438 46.6650390625 339.999023438 -19.001953125 217.999023438 -19.001953125 c 0
 133.671875 -19.001953125 79.171875 10.498046875 54.4990234375 69.498046875 c 0
 46.83203125 87.8310546875 40.6650390625 107.998046875 35.998046875 129.998046875 c 1
 101.998046875 129.998046875 l 1
 101.998046875 128.998046875 l 1
 109.331054688 98.998046875 121.6640625 78.1650390625 138.997070312 66.498046875 c 0
 156.330078125 54.8310546875 177.330078125 48.998046875 201.997070312 48.998046875 c 0
 226.6640625 48.998046875 244.831054688 52.1650390625 256.498046875 58.498046875 c 0
 268.165039062 64.8310546875 277.33203125 73.498046875 283.999023438 84.498046875 c 0
 294.666015625 102.09765625 299.999023438 124.748046875 299.999023438 152.448242188 c 0
 299.999023438 180.1484375 298.499023438 201.33203125 295.499023438 215.999023438 c 0
 292.499023438 230.666015625 287.33203125 243.333007812 279.999023438 254 c 0
 264.416015625 276.666992188 240.270507812 288 207.5625 288 c 0
 174.854492188 288 142.666992188 273 111 243 c 1
EndSplineSet
EndChar

StartChar: six
Encoding: 54 54 26
Width: 416
GlyphClass: 2
Flags: MW
HStem: -19 69<215.666 251.333 215.666 295.666> 269 72<244.333 268.332> 471 72<224.332 248.665>
VStem: 41 101 317 88 327 94
LayerCount: 2
Fore
SplineSet
257 341 m 0xf8
 366.333007812 341 420.999023438 281.666992188 420.999023438 163 c 0xf4
 420.999023438 41.6669921875 358.33203125 -19 232.999023438 -19 c 0
 150.45703125 -19 95.2900390625 9.1669921875 67.4990234375 65.5 c 0
 55.166015625 90.5 47.666015625 119 44.9990234375 151 c 0
 42.33203125 183 40.9990234375 216.166992188 40.9990234375 250.5 c 0
 40.9990234375 284.833007812 42.83203125 319.5 46.4990234375 354.5 c 0
 50.166015625 389.5 58.9990234375 421 72.9990234375 449 c 0
 104.33203125 511.666992188 163.665039062 543 250.998046875 543 c 0
 322.415039062 543 368.748046875 513 389.998046875 453 c 0
 398.229492188 431.598632812 403.229492188 414.265625 404.998046875 401 c 1
 316.998046875 401 l 1
 316.998046875 403 l 1
 311.665039062 424.333007812 302.998046875 441 290.998046875 453 c 0
 278.998046875 465 260.831054688 471 236.498046875 471 c 0
 212.165039062 471 193.33203125 464 179.999023438 450 c 0
 166.666015625 436 156.833007812 418.666992188 150.5 398 c 0
 142.166992188 370.806640625 138 326.806640625 138 266 c 1
 152 294 169 313.5 189 324.5 c 0
 209 335.5 231.666992188 341 257 341 c 0xf8
326.999023438 160 m 0
 326.999023438 232.666992188 297.665039062 269 238.998046875 269 c 0
 206.331054688 269 181.998046875 259 165.998046875 239 c 0
 149.998046875 219 141.998046875 193 141.998046875 161 c 0
 141.998046875 129 148.331054688 102.5 160.998046875 81.5 c 0
 173.665039062 60.5 197.83203125 50 233.499023438 50 c 0
 269.166015625 50 293.666015625 60 306.999023438 80 c 0
 320.33203125 100 326.999023438 126.666992188 326.999023438 160 c 0
EndSplineSet
EndChar

StartChar: seven
Encoding: 55 55 27
Width: 402
GlyphClass: 2
Flags: MW
HStem: 0 21G 453 74<32 327 32 404>
LayerCount: 2
Fore
SplineSet
404 460 m 1
 284.516601562 312.00390625 210.184570312 159.337890625 181.000976562 2.0009765625 c 1
 181.000976562 0.0009765625 l 1
 104.000976562 0.0009765625 l 1
 95.0009765625 3.0009765625 l 1
 112.467773438 106.057617188 164.30078125 220.224609375 250.5 345.500976562 c 0
 275.5 381.833984375 301 417.666992188 327 453 c 1
 32 453 l 1
 32 527 l 1
 404 527 l 1
 404 460 l 1
EndSplineSet
EndChar

StartChar: eight
Encoding: 56 56 28
Width: 416
GlyphClass: 2
Flags: MW
HStem: -19 69 245 71 471 73
VStem: 37 94 66 76<385 410> 302 91<386 404.667> 329 94
LayerCount: 2
Fore
SplineSet
423 144 m 0xe2
 423 35.3330078125 358.666992188 -18.9990234375 230 -18.9990234375 c 0
 135.881835938 -18.9990234375 76.048828125 10.333984375 50.5 69.0009765625 c 0
 41.5 89.66796875 37 115.66796875 37 147.000976562 c 0xf2
 37 208.439453125 74 253.439453125 148 282.000976562 c 1
 117.333007812 297.333984375 96 314.166992188 84 332.5 c 0
 72 350.833007812 66 372.5 66 397.5 c 0
 66 422.5 70.3330078125 444 79 462 c 0
 87.6669921875 480 99.5 495 114.5 507 c 0
 145.333007812 531.666992188 183.833007812 544 230 544 c 0
 276.518554688 544 314.8515625 531.666992188 345 507 c 0
 377 480.818359375 393 445.151367188 393 400 c 0xec
 393 372 386.666992188 349.333007812 374 332 c 0
 361.333007812 314.666992188 340 298 310 282 c 1
 350 266 378.833007812 247.5 396.5 226.5 c 0
 414.166992188 205.5 423 178 423 144 c 0xe2
281.5 449.000976562 m 0
 267.833007812 463.66796875 249.83203125 471.001953125 227.499023438 471.001953125 c 0
 205.166015625 471.001953125 185.333007812 465.168945312 168 453.501953125 c 0
 150.666992188 441.834960938 142 423.16796875 142 397.500976562 c 0
 142 371.833984375 150.666992188 351.833984375 168 337.500976562 c 0
 185.333007812 323.16796875 205 316.000976562 227 316.000976562 c 0
 249 316.000976562 267 323.333984375 281 338.000976562 c 0
 295 352.66796875 302 371.16796875 302 393.500976562 c 0xec
 302 415.833984375 295.166992188 434.333984375 281.5 449.000976562 c 0
229.999023438 50.001953125 m 0
 295.999023438 50.001953125 328.999023438 82.501953125 328.999023438 147.501953125 c 0
 328.999023438 212.501953125 295.999023438 245.001953125 229.999023438 245.001953125 c 0
 163.999023438 245.001953125 130.999023438 212.501953125 130.999023438 147.501953125 c 0xf2
 130.999023438 82.501953125 163.999023438 50.001953125 229.999023438 50.001953125 c 0
EndSplineSet
EndChar

StartChar: nine
Encoding: 57 57 29
Width: 407
GlyphClass: 2
Flags: MW
HStem: -15 69 181 71 471 72
VStem: 37 94 54 88 310 97 318 90
LayerCount: 2
Fore
SplineSet
229 -15 m 0xe2
 185.258789062 -15 154.654296875 -11.1650390625 137.19140625 -3.498046875 c 0
 119.728515625 4.1689453125 105.6640625 13.501953125 94.9970703125 24.501953125 c 0
 73.369140625 46.8056640625 59.7021484375 78.638671875 53.9970703125 120.000976562 c 1
 141.997070312 120.000976562 l 1
 141.997070312 118.000976562 l 1
 152.6640625 75.333984375 180.331054688 54.0009765625 224.998046875 54.0009765625 c 0
 279.690429688 54.0009765625 309.857421875 83.333984375 315.498046875 142.000976562 c 0
 317.165039062 159.333984375 317.998046875 175.166992188 317.998046875 189.5 c 2
 317.998046875 224 l 2xea
 317.998046875 232.666992188 317.331054688 241.666992188 315.998046875 251 c 1
 299.998046875 224.333007812 281.498046875 206 260.498046875 196 c 0
 239.498046875 186 215.831054688 181 189.498046875 181 c 0
 163.165039062 181 140.33203125 185.333007812 120.999023438 194 c 0
 101.666015625 202.666992188 85.666015625 214.833984375 72.9990234375 230.500976562 c 0
 48.9990234375 260.185546875 36.9990234375 303.689453125 36.9990234375 361.013671875 c 0
 36.9990234375 418.337890625 52.166015625 463 82.4990234375 495 c 0
 112.83203125 527 156.165039062 543 212.498046875 543 c 0
 268.831054688 543 309.831054688 533 335.498046875 513 c 0
 361.165039062 493 379.33203125 467.5 389.999023438 436.5 c 0
 400.666015625 405.5 406.333007812 371.166992188 407 333.5 c 0xf4
 407.666992188 295.833007812 408 260.5 408 227.5 c 0
 408 194.5 406.333007812 163.5 403 134.5 c 0
 399.666992188 105.5 391.833984375 80 379.500976562 58 c 0
 352.217773438 9.3330078125 302.05078125 -15 229 -15 c 0xe2
220.997070312 471.001953125 m 0
 160.997070312 471.001953125 130.99609375 434.334960938 130.99609375 361.001953125 c 0
 130.99609375 325.1015625 135.49609375 300.626953125 144.49609375 287.577148438 c 0
 153.49609375 274.52734375 163.329101562 265.3359375 173.99609375 260.002929688 c 0
 184.663085938 254.669921875 198.663085938 252.002929688 215.99609375 252.002929688 c 0
 247.99609375 252.002929688 271.663085938 261.669921875 286.99609375 281.002929688 c 0
 302.329101562 300.3359375 309.99609375 326.002929688 309.99609375 358.002929688 c 0xf4
 309.99609375 393.462890625 305.163085938 418.328125 295.49609375 432.59765625 c 0
 285.829101562 446.8671875 275.329101562 456.834960938 263.99609375 462.501953125 c 0
 252.663085938 468.168945312 238.330078125 471.001953125 220.997070312 471.001953125 c 0
EndSplineSet
EndChar

StartChar: colon
Encoding: 58 58 30
Width: 210
GlyphClass: 2
Flags: MW
HStem: 26 158<91.8184 114.637> 235 158
VStem: 39 129<103.333 113.333 312.333 322.333>
LayerCount: 2
Fore
SplineSet
154 158 m 0
 163.333007812 140.666992188 168 124.833007812 168 110.5 c 0
 168 96.1669921875 167 84.5 165 75.5 c 0
 163 66.5 159.5 58.3330078125 154.5 51 c 0
 143.13671875 34.3330078125 126.045898438 26 103.227539062 26 c 0
 80.4091796875 26 64 34 54 50 c 0
 44 66 39 83.8330078125 39 103.5 c 0
 39 123.166992188 43.5 141.5 52.5 158.5 c 0
 61.5 175.5 78.3330078125 184 103 184 c 0
 127.666992188 184 144.666992188 175.333007812 154 158 c 0
154 366.999023438 m 0
 163.333007812 349.666015625 168 333.83203125 168 319.499023438 c 0
 168 305.166015625 167 293.499023438 165 284.499023438 c 0
 163 275.499023438 159.5 267.33203125 154.5 259.999023438 c 0
 143.13671875 243.33203125 126.045898438 234.999023438 103.227539062 234.999023438 c 0
 80.4091796875 234.999023438 64 242.999023438 54 258.999023438 c 0
 44 274.999023438 39 292.83203125 39 312.499023438 c 0
 39 332.166015625 43.5 350.499023438 52.5 367.499023438 c 0
 61.5 384.499023438 78.3330078125 392.999023438 103 392.999023438 c 0
 127.666992188 392.999023438 144.666992188 384.33203125 154 366.999023438 c 0
EndSplineSet
EndChar

StartChar: semicolon
Encoding: 59 59 31
Width: 242
GlyphClass: 2
Flags: MW
HStem: -12 148<88.4429 151.742> 223 153
VStem: 44 172 57 148<280.445 295.723>
LayerCount: 2
Fore
SplineSet
205 298 m 0xd0
 205 248 180.666992188 223.000976562 132 223.000976562 c 0
 106.095703125 223.000976562 86.4287109375 230.833984375 73 246.500976562 c 0
 62.3330078125 258.9453125 57 272.806640625 57 288.083984375 c 0
 57 303.361328125 58.1669921875 315.666992188 60.5 325 c 0
 62.8330078125 334.333007812 66.8330078125 342.833007812 72.5 350.5 c 0
 78.1669921875 358.166992188 85.6669921875 364.333984375 95 369.000976562 c 0
 104.333007812 373.66796875 116.333007812 376.000976562 131 376.000976562 c 0
 145.666992188 376.000976562 157.666992188 373.66796875 167 369.000976562 c 0
 176.333007812 364.333984375 183.833007812 358.166992188 189.5 350.5 c 0
 199.833007812 336.51953125 205 319.01953125 205 298 c 0xd0
128 -3.9990234375 m 1
 115.555664062 -9.33203125 104.109375 -12 93.6650390625 -12 c 0
 83.220703125 -12 72.33203125 -5.8330078125 60.9990234375 6.5 c 0
 49.666015625 18.8330078125 43.9990234375 35.5 43.9990234375 56.5 c 0
 43.9990234375 77.5 49.83203125 96 61.4990234375 112 c 0
 73.166015625 128 95.3330078125 136 128 136 c 0
 175.483398438 136 203.483398438 119.5 212 86.5 c 0
 214.666992188 76.1669921875 216 63.833984375 216 49.5009765625 c 0xe0
 216 35.16796875 212.5 20.16796875 205.5 4.5009765625 c 0
 198.5 -11.166015625 189.666992188 -26.4990234375 179 -41.4990234375 c 0
 165.181640625 -60.9306640625 141.848632812 -88.09765625 109 -122.999023438 c 1
 58 -114.999023438 l 1
 75.3330078125 -95.666015625 90 -78.166015625 102 -62.4990234375 c 0
 114 -46.83203125 122.666992188 -27.33203125 128 -3.9990234375 c 1
EndSplineSet
EndChar

StartChar: less
Encoding: 60 60 32
Width: 341
GlyphClass: 2
Flags: MW
VStem: 25 322<19 252 19 252>
LayerCount: 2
Fore
SplineSet
347 367 m 1
 80 225 l 1
 347 82 l 1
 347 19 l 1
 25 196 l 1
 25 252 l 1
 347 429 l 1
 347 367 l 1
EndSplineSet
EndChar

StartChar: equal
Encoding: 61 61 33
Width: 352
GlyphClass: 2
Flags: MW
HStem: 106 78<36 354 36 354> 259 78<36 354 36 354>
VStem: 36 318<106 184 106 184 259 337 106 337>
LayerCount: 2
Fore
SplineSet
36 259 m 1
 36 337 l 1
 354 337 l 1
 354 259 l 1
 36 259 l 1
36 106 m 1
 36 184 l 1
 354 184 l 1
 354 106 l 1
 36 106 l 1
EndSplineSet
EndChar

StartChar: greater
Encoding: 62 62 34
Width: 349
GlyphClass: 2
Flags: MW
VStem: 36 320<19 252 82 252 196 429 196 429>
LayerCount: 2
Fore
SplineSet
36 367 m 1
 36 429 l 1
 356 252 l 1
 356 196 l 1
 36 19 l 1
 36 82 l 1
 300 222 l 1
 36 367 l 1
EndSplineSet
EndChar

StartChar: question
Encoding: 63 63 35
Width: 508
GlyphClass: 2
Flags: MW
HStem: -58 156 494 90
VStem: 44 86 180 129 358 97
LayerCount: 2
Fore
SplineSet
195 -34 m 0
 185 -18 180.000976562 -0.4990234375 180.000976562 18.5009765625 c 0
 180.000976562 37.5009765625 184.500976562 55.5009765625 193.500976562 72.5009765625 c 0
 202.500976562 89.5009765625 219.500976562 98.0009765625 244.500976562 98.0009765625 c 0
 269.500976562 98.0009765625 286.500976562 89.5009765625 295.500976562 72.5009765625 c 0
 304.500976562 55.5009765625 309.000976562 39.66796875 309.000976562 25.0009765625 c 0
 309.000976562 10.333984375 308.000976562 -1.3330078125 306.000976562 -10 c 0
 304.000976562 -18.6669921875 300.66796875 -26.6669921875 296.000976562 -34 c 0
 285.819335938 -50 268.940429688 -58 245.364257812 -58 c 0
 221.788085938 -58 205 -50 195 -34 c 0
288.000976562 164.000976562 m 2
 289 146.001953125 l 1
 194 146.001953125 l 1
 194 193.001953125 l 2
 194 210.334960938 199 225.834960938 209 239.501953125 c 0
 222.322265625 257.708984375 244.322265625 278.541992188 275 302.000976562 c 0
 302.948242188 324.360351562 321.435546875 340.6171875 330.4609375 350.771484375 c 0
 348.8203125 371.42578125 358 394.293945312 358 419.376953125 c 0
 358 444.459960938 346.833007812 463.16796875 324.5 475.500976562 c 0
 302.166992188 487.833984375 272.833984375 494.000976562 236.500976562 494.000976562 c 0
 200.16796875 494.000976562 173.500976562 483.500976562 156.500976562 462.500976562 c 0
 139.500976562 441.500976562 130.66796875 416.000976562 130.000976562 386.000976562 c 1
 42.0009765625 386.000976562 l 1
 44.0009765625 389.000976562 l 1
 44.0009765625 457.66796875 58.66796875 506.66796875 88.0009765625 536.000976562 c 0
 120.000976562 568.000976562 171.16796875 584.000976562 241.500976562 584.000976562 c 0
 311.833984375 584.000976562 365.000976562 572.500976562 401.000976562 549.500976562 c 0
 437.000976562 526.500976562 455.000976562 489.000976562 455.000976562 437.000976562 c 0
 455.000976562 395.66796875 440.66796875 360.66796875 412.000976562 332.000976562 c 0
 401.333984375 320.000976562 389.000976562 308.66796875 375.000976562 298.000976562 c 0
 327.48828125 261.80078125 300.821289062 236.133789062 295.000976562 221.000976562 c 0
 291.66796875 212.333984375 289.66796875 203.000976562 289.000976562 193.000976562 c 0
 284.80078125 182.500976562 284.467773438 172.833984375 288.000976562 164.000976562 c 2
EndSplineSet
EndChar

StartChar: at
Encoding: 64 64 36
Width: 778
GlyphClass: 2
Flags: MW
HStem: -118 83<400.667 444> 50 73<571.333 584> 402 66 580 83<388.56 474.158>
VStem: 40 96<187.291 297.252> 234 98<209.833 223.773> 506 34 686 98<294.488 354.818>
LayerCount: 2
Fore
SplineSet
296.5 -14.5 m 0
 332.833007812 -28.1669921875 375.833007812 -35 425.5 -35 c 0
 475.166992188 -35 522 -25.6669921875 566 -7 c 1
 584 -71 l 1
 528.666992188 -102.333007812 472.5 -118 415.5 -118 c 0
 358.5 -118 307 -110 261 -94 c 0
 215 -78 175.666992188 -55 143 -25 c 0
 74.3330078125 38.0615234375 40 124.061523438 40 233 c 0
 40 361.504882812 72.5 463.837890625 137.5 540 c 0
 207.482421875 622 307.649414062 663 438 663 c 0
 541.892578125 663 625.392578125 632.833007812 688.5 572.5 c 0
 752.166992188 511.631835938 784 431.131835938 784 331 c 0
 784 249.290039062 761.666992188 179.790039062 717 122.5 c 0
 692.868164062 91.5478515625 660.368164062 69.71484375 619.5 57 c 0
 604.5 52.3330078125 590.5 50 577.5 50 c 0
 564.5 50 554.666992188 50.1669921875 548 50.5 c 0
 541.333007812 50.8330078125 535.5 52.166015625 530.5 54.4990234375 c 0
 521.849609375 58.5361328125 509.682617188 69.703125 494 87.9990234375 c 2
 487 98.4990234375 l 2
 485 101.499023438 482 104.666015625 478 107.999023438 c 1
 461.333007812 84.666015625 443.666015625 70.166015625 424.999023438 64.4990234375 c 0
 406.33203125 58.83203125 385.499023438 55.9990234375 362.499023438 55.9990234375 c 0
 339.499023438 55.9990234375 319.83203125 60.33203125 303.499023438 68.9990234375 c 0
 287.166015625 77.666015625 273.833007812 89.4990234375 263.5 104.499023438 c 0
 243.833007812 133.047851562 234 166.434570312 234 204.66015625 c 0
 234 242.885742188 237.833007812 277.165039062 245.5 307.498046875 c 0
 253.166992188 337.831054688 265 364.831054688 281 388.498046875 c 0
 316.831054688 441.498046875 368.498046875 467.998046875 436 467.998046875 c 0
 462 467.998046875 483 461.331054688 499 447.998046875 c 0
 515 434.665039062 530 415.33203125 544 389.999023438 c 1
 555 443.999023438 l 1
 604 443.999023438 l 1
 548 207.999023438 l 2
 542.666992188 184.887695312 540 167.943359375 540 157.166015625 c 0
 540 146.388671875 543.666992188 138 551 132 c 0
 558.333007812 126 566.666015625 123 575.999023438 123 c 0
 612.64453125 123 641.311523438 147.666992188 662 197 c 0
 678 235.154296875 686 274.359375 686 314.616210938 c 0
 686 395.020507812 663.333007812 459.1484375 618 507 c 0
 572.983398438 555.666992188 512.31640625 580 436 580 c 0
 341.119140625 580 266.452148438 548.833007812 212 486.5 c 0
 161.333007812 428.5 136 352.333007812 136 258 c 0
 136 116.581054688 189.5 25.748046875 296.5 -14.5 c 0
506 321 m 0
 506 375 483 402.000976562 437 402.000976562 c 0
 402.309570312 402.000976562 375.142578125 380.000976562 355.5 336.000976562 c 0
 339.833007812 300.907226562 332 263.240234375 332 223 c 0
 332 196.666992188 336 176.25 344 161.75 c 0
 352 147.25 360.5 137.166992188 369.5 131.5 c 0
 378.5 125.833007812 390.833007812 123 406.5 123 c 0
 422.166992188 123 436.5 130.333007812 449.5 145 c 0
 462.5 159.666992188 473.166992188 177.5 481.5 198.5 c 0
 497.833007812 239.66015625 506 280.493164062 506 321 c 0
EndSplineSet
EndChar

StartChar: A
Encoding: 65 65 37
Width: 463
GlyphClass: 2
Flags: MW
HStem: 0 21G<27 27 27 111 395 395 395 474> 162 85<183 325 183 349 158 325> 592 20G<206 302 302 302>
LayerCount: 2
Fore
SplineSet
27 0 m 1
 206 612 l 1
 302 612 l 1
 474 0 l 1
 395 0 l 1
 349 162 l 1
 158 162 l 1
 111 0 l 1
 27 0 l 1
325 247 m 1
 255 496 l 1
 183 247 l 1
 325 247 l 1
EndSplineSet
EndChar

StartChar: B
Encoding: 66 66 38
Width: 494
GlyphClass: 2
Flags: MW
HStem: 0 85<147 305 305 321> 268 89<147 272 272 286 147 272> 530 84<147 263 147 147>
VStem: 42 105<85 268 357 530> 356 104<447.61 461> 398 104<162 194.919 147 200.283>
LayerCount: 2
Fore
SplineSet
502 176 m 0xf4
 502 118 487.5 74.1669921875 458.5 44.5 c 0
 429.5 14.8330078125 383.666992188 0 321 0 c 2
 42 0 l 1
 42 614 l 1
 285 614 l 2
 341 614 384.166992188 602.666992188 414.5 580 c 0
 444.833007812 557.333007812 460 518.666015625 460 463.999023438 c 0xf8
 460 431.221679688 455.833007812 407.194335938 447.5 391.916992188 c 0
 439.166992188 376.639648438 429.5 364.166992188 418.5 354.5 c 0
 407.5 344.833007812 393.666992188 335 377 325 c 1
 423.875 306.25 456.375 286.25 474.5 265 c 0
 492.833007812 243.505859375 502 213.838867188 502 176 c 0xf4
272 357 m 2
 328 357 356 386.666992188 356 446 c 0
 356 476 348 497.5 332 510.5 c 0
 316 523.5 293 530 263 530 c 2
 147 530 l 1
 147 357 l 1
 272 357 l 2
398 177 m 0xf4
 398 223.56640625 373.333007812 252.400390625 324 263.5 c 0
 310.666992188 266.5 298 268 286 268 c 2
 147 268 l 1
 147 85 l 1
 305 85 l 2
 339 85 363 92.8330078125 377 108.5 c 0
 391 124.166992188 398 147 398 177 c 0xf4
EndSplineSet
EndChar

StartChar: C
Encoding: 67 67 39
Width: 514
GlyphClass: 2
Flags: MW
HStem: -20 83 547 90
VStem: 43 106
LayerCount: 2
Fore
SplineSet
529 228 m 1
 527.000976562 224.999023438 l 1
 523.66796875 208.999023438 520.66796875 192.33203125 518.000976562 174.999023438 c 0
 515.333984375 157.666015625 512.000976562 140.833007812 508.000976562 124.5 c 0
 490.069335938 51.279296875 449.90234375 6.779296875 387.500976562 -9 c 0
 358.500976562 -16.3330078125 325.833984375 -20 289.500976562 -20 c 0
 253.16796875 -20 217.834960938 -14 183.501953125 -2 c 0
 149.168945312 10 119.668945312 34.6669921875 95.001953125 72 c 0
 60.3349609375 124 43.001953125 201 43.001953125 303 c 0
 43.001953125 398.239257812 63.3349609375 475.40625 104.001953125 534.5 c 0
 151.02734375 602.833007812 219.694335938 637 310.002929688 637 c 0
 404.424804688 637 465.591796875 596.166992188 493.502929688 514.5 c 0
 502.502929688 488.166992188 509.002929688 458.666992188 513.002929688 426 c 1
 513.002929688 423 l 1
 437.002929688 423 l 1
 436.002929688 424 l 1
 429.3359375 466.666992188 416.168945312 497.833984375 396.501953125 517.500976562 c 0
 376.834960938 537.16796875 348.66796875 547.000976562 312.000976562 547.000976562 c 0
 275.333984375 547.000976562 247.000976562 540.66796875 227.000976562 528.000976562 c 0
 207.000976562 515.333984375 191.333984375 498.666992188 180.000976562 478 c 0
 159.333984375 440.313476562 149.000976562 389.98046875 149.000976562 327 c 0
 149.000976562 245.666992188 155.66796875 189.166992188 169.000976562 157.5 c 0
 182.333984375 125.833007812 199.666992188 102.166015625 221 86.4990234375 c 0
 242.333007812 70.83203125 268.833007812 62.9990234375 300.5 62.9990234375 c 0
 332.166992188 62.9990234375 356.166992188 67.166015625 372.5 75.4990234375 c 0
 388.833007812 83.83203125 402 95.33203125 412 109.999023438 c 0
 428.3984375 134.049804688 439.731445312 172.716796875 446 226 c 1
 446 228 l 1
 529 228 l 1
EndSplineSet
EndChar

StartChar: D
Encoding: 68 68 40
Width: 515
GlyphClass: 2
Flags: MW
HStem: 0 85 530 84
VStem: 42 104<84.999 529.999 84.999 613.999 84.999 613.999> 410 105<287.333 331.333>
LayerCount: 2
Fore
SplineSet
515 307 m 0
 515 267.666992188 511.833007812 229.499023438 505.5 192.499023438 c 0
 499.166992188 155.499023438 487.166992188 122.83203125 469.5 94.4990234375 c 0
 430.217773438 31.4990234375 364.384765625 -0.0009765625 272 -0.0009765625 c 2
 42 -0.0009765625 l 1
 42 613.999023438 l 1
 272 613.999023438 l 2
 364.384765625 613.999023438 430.217773438 582.499023438 469.5 519.499023438 c 0
 499.833007812 470.8515625 515 400.018554688 515 307 c 0
410 321.499023438 m 0
 410 341.166015625 408.5 363.999023438 405.5 389.999023438 c 0
 402.5 415.999023438 396 439.33203125 386 459.999023438 c 0
 363.418945312 506.666015625 322.418945312 529.999023438 263 529.999023438 c 2
 146 529.999023438 l 1
 146 84.9990234375 l 1
 262 84.9990234375 l 2
 286.666992188 84.9990234375 308.666992188 88.4990234375 328 95.4990234375 c 0
 382.666992188 115.291992188 410 190.625 410 321.499023438 c 0
EndSplineSet
EndChar

StartChar: E
Encoding: 69 69 41
Width: 421
GlyphClass: 2
Flags: MW
HStem: 0 85<148 433 148 433> 268 89<148 374 148 374> 530 84<148 421 148 148>
VStem: 43 105<85 268 85 357 357 530>
LayerCount: 2
Fore
SplineSet
148 268 m 1
 148 85 l 1
 433 85 l 1
 433 0 l 1
 43 0 l 1
 43 614 l 1
 421 614 l 1
 421 530 l 1
 148 530 l 1
 148 357 l 1
 374 357 l 1
 374 268 l 1
 148 268 l 1
EndSplineSet
EndChar

StartChar: F
Encoding: 70 70 42
Width: 407
GlyphClass: 2
Flags: MW
HStem: 0 21G<43 43 43 148> 256 91<148 343 148 343> 530 84<148 414 148 148>
VStem: 43 105<0 256 347 530>
LayerCount: 2
Fore
SplineSet
43 0 m 1
 43 614 l 1
 414 614 l 1
 414 530 l 1
 148 530 l 1
 148 347 l 1
 343 347 l 1
 343 256 l 1
 148 256 l 1
 148 0 l 1
 43 0 l 1
EndSplineSet
EndChar

StartChar: G
Encoding: 71 71 43
Width: 548
GlyphClass: 2
Flags: MW
HStem: -21 82 256 86<321 555.001 321.001 470> 550 85
VStem: 42 104 447 95<437.999 439.999 439.999 439.999> 470 85 495 60
LayerCount: 2
Fore
SplineSet
321 256 m 1xf4
 321.000976562 342 l 1
 555.000976562 342 l 1
 555.000976562 -4 l 1
 495.000976562 -4 l 1xf2
 467.000976562 94 l 1
 441.66796875 53.3330078125 415.16796875 24 387.500976562 6 c 0
 359.833984375 -12 324.666992188 -21 282 -21 c 0
 239.333007812 -21 202.833007812 -11.5 172.5 7.5 c 0
 142.166992188 26.5 117.333984375 51.3330078125 98.0009765625 82 c 0
 60.66796875 141.21875 42.0009765625 214.551757812 42.0009765625 302 c 0
 42.0009765625 406.57421875 59.0009765625 485.241210938 93.0009765625 538 c 0
 134.674804688 602.666992188 204.674804688 635 303.000976562 635 c 0
 377.267578125 635 432.100585938 621.5 467.500976562 594.5 c 0
 507.037109375 564.344726562 531.870117188 513.177734375 542 440.999023438 c 1
 542 437.999023438 l 1
 447 437.999023438 l 1
 447 439.999023438 l 1xf8
 438.333007812 478.666015625 424.333007812 506.666015625 405 523.999023438 c 0
 385.666992188 541.33203125 356.5 549.999023438 317.5 549.999023438 c 0
 278.5 549.999023438 247.833007812 543.666015625 225.5 530.999023438 c 0
 203.166992188 518.33203125 186.166992188 500.999023438 174.5 478.999023438 c 0
 155.5 443.170898438 146 385.50390625 146 305.999023438 c 0
 146 227.4765625 155.833007812 170.143554688 175.5 133.999023438 c 0
 201.98046875 85.33203125 249.813476562 60.9990234375 319 60.9990234375 c 0
 403.657226562 60.9990234375 452.157226562 100.83203125 464.5 180.499023438 c 0
 468.166992188 204.166015625 470 229.333007812 470 256 c 1
 321 256 l 1xf4
EndSplineSet
EndChar

StartChar: H
Encoding: 72 72 44
Width: 505
GlyphClass: 2
Flags: MW
HStem: 0 21G<43 148 43 43 401 505 401 401> 268 90<148 401 148 401> 594 20G<43 148 148 148 401 505 505 505>
VStem: 43 105<0 268 0 358 358 614> 401 104<0 268 268 268 358 614 0 614>
LayerCount: 2
Fore
SplineSet
401 358 m 1
 401 614 l 1
 505 614 l 1
 505 0 l 1
 401 0 l 1
 401 268 l 1
 148 268 l 1
 148 0 l 1
 43 0 l 1
 43 614 l 1
 148 614 l 1
 148 358 l 1
 401 358 l 1
EndSplineSet
EndChar

StartChar: I
Encoding: 73 73 45
Width: 148
GlyphClass: 2
Flags: MW
HStem: 0 21G<43 43 43 148> 593 20G<43 148 148 148>
VStem: 43 105<0 613 0 613>
LayerCount: 2
Fore
SplineSet
43 0 m 1
 43 613 l 1
 148 613 l 1
 148 0 l 1
 43 0 l 1
EndSplineSet
EndChar

StartChar: J
Encoding: 74 74 46
Width: 406
GlyphClass: 2
Flags: MW
HStem: -8 79 594 20G
VStem: 43 105<165.251 184.001 184.001 213.001 165.251 213.001> 302 104<201 614.002>
LayerCount: 2
Fore
SplineSet
302 201 m 2
 302 614.001953125 l 1
 406 614.001953125 l 1
 406 157.001953125 l 2
 406 100.334960938 392.166992188 58.66796875 364.5 32.0009765625 c 0
 336.833007812 5.333984375 291.5 -7.9990234375 228.5 -7.9990234375 c 0
 165.5 -7.9990234375 118.833007812 4.66796875 88.5 30.0009765625 c 0
 58.1669921875 55.333984375 43 98.0009765625 43 158.000976562 c 2
 43 213.000976562 l 1
 148 213.000976562 l 1
 148 184.000976562 l 2
 148 146.500976562 151.333007812 121.29296875 158 108.375976562 c 0
 170.860351562 83.458984375 193.52734375 71.0009765625 226 71.0009765625 c 0
 272.014648438 71.0009765625 296.84765625 99.0009765625 300.5 155.000976562 c 0
 301.5 170.333984375 302 185.666992188 302 201 c 2
EndSplineSet
EndChar

StartChar: K
Encoding: 75 75 47
Width: 455
GlyphClass: 2
Flags: MW
HStem: 0 21G<43 148 43 43 401 468 401 401> 594 20G<43 148 148 148 392 465 465 465>
VStem: 43 105<0 215 0 296 296 614>
LayerCount: 2
Fore
SplineSet
392 614 m 1
 465 614 l 1
 272 365 l 1
 468 0 l 1
 401 0 l 1
 229 321 l 1
 148 215 l 1
 148 0 l 1
 43 0 l 1
 43 614 l 1
 148 614 l 1
 148 296 l 1
 392 614 l 1
EndSplineSet
EndChar

StartChar: L
Encoding: 76 76 48
Width: 381
GlyphClass: 2
Flags: MW
HStem: 0 85<148 388 148 388> 594 20G<43 148 148 148>
VStem: 43 105<85 614 85 614 85 614>
LayerCount: 2
Fore
SplineSet
148 614 m 1
 148 85 l 1
 388 85 l 1
 388 0 l 1
 43 0 l 1
 43 614 l 1
 148 614 l 1
EndSplineSet
EndChar

StartChar: M
Encoding: 77 77 49
Width: 602
GlyphClass: 2
Flags: MW
HStem: 0 21G<40 145 40 40 271 362 271 271 499 603 499 499> 594 20G<48 168 168 168 462 603 603 603>
VStem: 40 105<0 468> 48 97 499 104<0 507 507 507>
LayerCount: 2
Fore
SplineSet
315 69 m 1xd8
 462 614 l 1
 603 614 l 1
 603 0 l 1
 499 0 l 1
 499 507 l 1
 362 0 l 1
 271 0 l 1
 145 468 l 1
 145 0 l 1
 40 0 l 1xe8
 48 614 l 1
 168 614 l 1
 315 69 l 1xd8
EndSplineSet
EndChar

StartChar: N
Encoding: 78 78 50
Width: 516
GlyphClass: 2
Flags: MW
HStem: 0 21G<43 148 43 43 400 516 400 400> 593 20G<43 156 156 156 414 516 516 516>
VStem: 43 105<0 512 0 613 0 613> 414 102<102 613 0 613>
LayerCount: 2
Fore
SplineSet
414 102 m 1
 414 613 l 1
 516 613 l 1
 516 0 l 1
 400 0 l 1
 148 512 l 1
 148 0 l 1
 43 0 l 1
 43 613 l 1
 156 613 l 1
 414 102 l 1
EndSplineSet
EndChar

StartChar: O
Encoding: 79 79 51
Width: 596
GlyphClass: 2
Flags: MW
HStem: -20 84 546 91
VStem: 42 105 493 104<289.999 319.999>
LayerCount: 2
Fore
SplineSet
320 -20 m 0
 134.666992188 -20 41.9990234375 88.6669921875 41.9990234375 306 c 0
 41.9990234375 409.39453125 62.166015625 488.39453125 102.499023438 543 c 0
 148.787109375 605.666992188 221.954101562 637 322 637 c 0
 420.014648438 637 492.014648438 604.666992188 538 540 c 0
 577.333007812 484.6875 597 405.6875 597 303 c 0
 597 201.125 577 123.625 537 70.5 c 0
 491.572265625 10.1669921875 419.239257812 -20 320 -20 c 0
486.499023438 217 m 0
 490.83203125 245.666992188 493 274.999023438 493 304.999023438 c 0
 493 334.999023438 490.833007812 364.666015625 486.5 393.999023438 c 0
 482.166992188 423.33203125 473.666992188 449.165039062 461 471.498046875 c 0
 432.831054688 521.165039062 386.831054688 545.998046875 323 545.998046875 c 0
 257.423828125 545.998046875 210.256835938 521.665039062 181.499023438 472.998046875 c 0
 158.499023438 434.075195312 146.999023438 377.7421875 146.999023438 303.999023438 c 0
 146.999023438 191.913085938 178.33203125 118.413085938 240.999023438 83.4990234375 c 0
 264.33203125 70.4990234375 293.33203125 63.9990234375 327.999023438 63.9990234375 c 0
 362.666015625 63.9990234375 390.666015625 70.9990234375 411.999023438 84.9990234375 c 0
 433.33203125 98.9990234375 449.999023438 117.33203125 461.999023438 139.999023438 c 0
 473.999023438 162.666015625 482.166015625 188.333007812 486.499023438 217 c 0
EndSplineSet
EndChar

StartChar: P
Encoding: 80 80 52
Width: 478
GlyphClass: 2
Flags: MW
HStem: 0 21G 238 89 530 84
VStem: 43 105 376 104<417.667 448.336>
LayerCount: 2
Fore
SplineSet
480 433 m 0
 480 402.333007812 477.666992188 375.168945312 473 351.501953125 c 0
 468.333007812 327.834960938 460.166015625 307.66796875 448.499023438 291.000976562 c 0
 423.765625 255.66796875 383.265625 238.000976562 326.999023438 238.000976562 c 2
 147.999023438 238.000976562 l 1
 147.999023438 0.0009765625 l 1
 42.9990234375 0.0009765625 l 1
 42.9990234375 614.000976562 l 1
 294.999023438 614.000976562 l 2
 362.62890625 614.000976562 410.295898438 599.833984375 438 571.500976562 c 0
 466 542.864257812 480 496.697265625 480 433 c 0
376 431.002929688 m 0
 376 465.669921875 368.833007812 490.8359375 354.5 506.502929688 c 0
 340.166992188 522.169921875 315 530.002929688 279 530.002929688 c 2
 148 530.002929688 l 1
 148 327.002929688 l 1
 279 327.002929688 l 2
 315.666992188 327.002929688 341 335.669921875 355 353.002929688 c 0
 369 370.3359375 376 396.3359375 376 431.002929688 c 0
EndSplineSet
EndChar

StartChar: Q
Encoding: 81 81 53
Width: 590
GlyphClass: 2
Flags: MW
HStem: -21 83<286.365 325.297> 546 91
VStem: 43 104 490 102
LayerCount: 2
Fore
SplineSet
477 79 m 1
 578.000976562 -2 l 1
 528.000976562 -49 l 1
 442.000976562 36 l 1
 396.963867188 -2 349.87109375 -21 300.72265625 -21 c 0
 251.57421875 -21 210.5 -13 177.5 3 c 0
 144.5 19 118 41.1669921875 98 69.5 c 0
 61.3330078125 121.444335938 43 198.944335938 43 302 c 0
 43 405.92578125 61.8330078125 485.092773438 99.5 539.5 c 0
 144.5 604.5 216.666992188 637 316 637 c 0
 414.572265625 637 486.572265625 606.833007812 532 546.5 c 0
 572 493.375 592 418.46875 592 321.78125 c 0
 592 225.09375 553.666992188 144.166992188 477 79 c 1
435.000976562 121 m 1
 471.66796875 174.103515625 490.001953125 235.104492188 490.001953125 304.000976562 c 0
 490.001953125 381.333984375 479.168945312 438.333984375 457.501953125 475.000976562 c 0
 429.532226562 522.333984375 381.365234375 546.000976562 313.001953125 546.000976562 c 0
 250.762695312 546.000976562 205.9296875 521.16796875 178.501953125 471.500976562 c 0
 157.501953125 433.473632812 147.001953125 378.640625 147.001953125 307.000976562 c 0
 147.001953125 230.694335938 157.501953125 173.52734375 178.501953125 135.5 c 0
 205.561523438 86.5 252.728515625 62 320.001953125 62 c 0
 346.822265625 62 373.155273438 71.3330078125 399.000976562 90 c 1
 359.000976562 136 l 1
 378.000976562 178 l 1
 435.000976562 121 l 1
EndSplineSet
EndChar

StartChar: R
Encoding: 82 82 54
Width: 510
GlyphClass: 2
Flags: MW
HStem: 0 17<524.001 525.001 524.001 525.001> 242 90<147.001 299.001 299.001 309.001 147.001 299.001> 530 84<147.001 299.001 147.001 147.001>
VStem: 42 105 392 99 392 115
LayerCount: 2
Fore
SplineSet
491 142 m 0xf8
 491 75.1669921875 502.000976562 33.5 524.000976562 17 c 1
 525.000976562 17 l 1
 525.000976562 0 l 1
 413.000976562 0 l 1
 413.000976562 1 l 1
 399.000976562 37 392.000976562 85.3330078125 392.000976562 146 c 0xf8
 392.000976562 176 386.16796875 199.5 374.500976562 216.5 c 0
 362.833984375 233.5 341.000976562 242 309.000976562 242 c 2
 147.000976562 242 l 1
 147.000976562 0 l 1
 42.0009765625 0 l 1
 42.0009765625 614 l 1
 322.000976562 614 l 2
 385.333984375 614 432.000976562 601.5 462.000976562 576.5 c 0
 492.000976562 551.5 507.000976562 508.333007812 507.000976562 447 c 0xf4
 507.000976562 406.77734375 501.66796875 378.888671875 491.000976562 363.333007812 c 0
 480.333984375 347.77734375 468.166992188 334.833007812 454.5 324.5 c 0
 440.833007812 314.166992188 423 303 401 291 c 1
 439.965820312 265.0234375 464.798828125 243.0234375 475.5 225 c 0
 485.833007812 207.596679688 491 179.9296875 491 142 c 0xf8
392.000976562 429 m 0xf4
 392.000976562 463 385.500976562 488.333007812 372.500976562 505 c 0
 359.500976562 521.666992188 335.000976562 530 299.000976562 530 c 2
 147.000976562 530 l 1
 147.000976562 332 l 1
 299.000976562 332 l 2
 335.000976562 332 359.500976562 339.666992188 372.500976562 355 c 0
 385.500976562 370.333007812 392.000976562 395 392.000976562 429 c 0xf4
EndSplineSet
EndChar

StartChar: S
Encoding: 83 83 55
Width: 507
GlyphClass: 2
Flags: MW
HStem: -20 83<251.999 298.967 251.999 309.951> 545 91
VStem: 35 99 63 104<439.667 468.334> 390 97 415 101
LayerCount: 2
Fore
SplineSet
478 271 m 0xd8
 503.333007812 247 515.998046875 214.166992188 515.998046875 172.5 c 0
 515.998046875 130.833007812 509.498046875 98 496.498046875 74 c 0
 483.498046875 50 465.998046875 31 443.998046875 17 c 0
 405.236328125 -7.6669921875 347.903320312 -20 271.999023438 -20 c 0
 211.509765625 -20 164.509765625 -11.3330078125 130.999023438 6 c 0
 89.6865234375 27.3681640625 61.6865234375 64.3681640625 46.9990234375 117 c 0
 42.8212890625 131.622070312 38.8212890625 159.955078125 34.9990234375 202 c 1
 133.999023438 202 l 1
 133.33203125 150.666992188 144.499023438 114.666992188 167.499023438 94 c 0
 190.499023438 73.3330078125 226.999023438 63 276.999023438 63 c 0
 320.935546875 63 351.419921875 67.8330078125 368.452148438 77.5 c 0
 385.484375 87.1669921875 397.5 98.5 404.5 111.5 c 0
 411.5 124.5 415 139.5 415 156.5 c 0xe4
 415 173.5 412.166992188 186.833007812 406.5 196.5 c 0
 400.833007812 206.166992188 393.333007812 214.5 384 221.5 c 0
 368.799804688 232.900390625 346.799804688 243.400390625 318 253 c 2
 202 292 l 2
 133.719726562 314.026367188 90.7197265625 345.859375 73 387.5 c 0
 66.3330078125 403.166992188 63 425.333984375 63 454.000976562 c 0
 63 482.66796875 68.1669921875 509.334960938 78.5 534.001953125 c 0
 88.8330078125 558.668945312 103.5 578.501953125 122.5 593.501953125 c 0
 158.388671875 621.834960938 210.221679688 636.001953125 277.999023438 636.001953125 c 0
 381.47265625 636.001953125 446.47265625 600.001953125 472.999023438 528.001953125 c 0
 482.33203125 502.668945312 486.999023438 471.668945312 486.999023438 435.001953125 c 1
 389.999023438 435.001953125 l 1
 388.999023438 437.001953125 l 1
 387.666015625 478.334960938 377.333007812 506.66796875 358 522.000976562 c 0
 338.666992188 537.333984375 311 545.000976562 275 545.000976562 c 0
 239.10546875 545.000976562 214.798828125 540.833984375 202.079101562 532.500976562 c 0
 178.693359375 517.178710938 167 492.01171875 167 457 c 0
 167 416.77734375 196.166992188 386.944335938 254.5 367.5 c 0
 269.5 362.5 283.666992188 358 297 354 c 2
 376 328 l 2
 418.666992188 314 452.666992188 295 478 271 c 0xd8
EndSplineSet
EndChar

StartChar: T
Encoding: 84 84 56
Width: 448
GlyphClass: 2
Flags: MW
HStem: 0 21G<194 298 194 194> 530 84<34 457 34 194 298 298 298 457>
VStem: 194 104<0 530 0 530>
LayerCount: 2
Fore
SplineSet
34 530 m 1
 34 614 l 1
 457 614 l 1
 457 530 l 1
 298 530 l 1
 298 0 l 1
 194 0 l 1
 194 530 l 1
 34 530 l 1
EndSplineSet
EndChar

StartChar: U
Encoding: 85 85 57
Width: 503
GlyphClass: 2
Flags: MW
HStem: -8 79<250.333 294.667 250.333 348.667> 594 20G<43.001 148.001 148.001 148.001 399 504 504 504>
VStem: 43 105 399 105<202 614>
LayerCount: 2
Fore
SplineSet
504 187 m 2
 504 57 426.333007812 -8 271 -8 c 0
 195.319335938 -8 138.986328125 6.6669921875 102.000976562 36 c 0
 62.66796875 67.1953125 43.0009765625 117.528320312 43.0009765625 187 c 2
 43.0009765625 614 l 1
 148.000976562 614 l 1
 148.000976562 202 l 2
 148.000976562 154 157.66796875 120.166992188 177.000976562 100.5 c 0
 196.333984375 80.8330078125 228.166992188 71 272.5 71 c 0
 316.833007812 71 349 80.8330078125 369 100.5 c 0
 389 120.166992188 399 154 399 202 c 2
 399 614 l 1
 504 614 l 1
 504 187 l 2
EndSplineSet
EndChar

StartChar: V
Encoding: 86 86 58
Width: 446
GlyphClass: 2
Flags: MW
HStem: 0 21G<205 305 205 205> 594 20G<30 127 127 127 389 462 462 462>
LayerCount: 2
Fore
SplineSet
127 614 m 1
 266 129 l 1
 389 614 l 1
 462 614 l 1
 305 0 l 1
 205 0 l 1
 30 614 l 1
 127 614 l 1
EndSplineSet
EndChar

StartChar: W
Encoding: 87 87 59
Width: 708
GlyphClass: 2
Flags: MW
HStem: 0 21G<169 285 169 169 488 594 488 488> 594 20G<51 145 145 145 341 448 448 448 639 712 712 712>
LayerCount: 2
Fore
SplineSet
448 614 m 1
 553 167 l 1
 639 614 l 1
 712 614 l 1
 594 0 l 1
 488 0 l 1
 385 439 l 1
 285 0 l 1
 169 0 l 1
 51 614 l 1
 145 614 l 1
 234 147 l 1
 341 614 l 1
 448 614 l 1
EndSplineSet
EndChar

StartChar: X
Encoding: 88 88 60
Width: 450
GlyphClass: 2
Flags: MW
HStem: 0 21G<61 121 61 61 390 464 390 390> 594 20G<61 138 138 138 395 453 453 453>
LayerCount: 2
Fore
SplineSet
395 614 m 1
 453 614 l 1
 293 320 l 1
 464 0 l 1
 390 0 l 1
 256 250 l 1
 121 0 l 1
 61 0 l 1
 227 304 l 1
 61 614 l 1
 138 614 l 1
 266 372 l 1
 395 614 l 1
EndSplineSet
EndChar

StartChar: Y
Encoding: 89 89 61
Width: 514
GlyphClass: 2
Flags: MW
HStem: 0 21G<231 340 231 231> 594 20G<50 129 129 129 459 520 520 520>
VStem: 231 109<0 242 0 242>
LayerCount: 2
Fore
SplineSet
129 614 m 1
 300 309 l 1
 459 614 l 1
 520 614 l 1
 340 242 l 1
 340 0 l 1
 231 0 l 1
 231 242 l 1
 50 614 l 1
 129 614 l 1
EndSplineSet
EndChar

StartChar: Z
Encoding: 90 90 62
Width: 408
GlyphClass: 2
Flags: MW
HStem: 0 85<114 409 114 409 35 409> 530 84<62 329 62 407>
LayerCount: 2
Fore
SplineSet
407 525 m 1
 114 85 l 1
 409 85 l 1
 409 0 l 1
 35 0 l 1
 35 88 l 1
 329 530 l 1
 62 530 l 1
 62 614 l 1
 407 614 l 1
 407 525 l 1
EndSplineSet
EndChar

StartChar: bracketleft
Encoding: 91 91 63
Width: 265
GlyphClass: 2
Flags: MW
HStem: -176 74<138 268 138 268> 540 74<138 138 138 268>
VStem: 40 98<-102 540 -102 614 -102 614> 40 228<-176 -102 540 614>
LayerCount: 2
Fore
SplineSet
138 540 m 1xe0
 138 -102 l 1xe0
 268 -102 l 1
 268 -176 l 1
 40 -176 l 1
 40 614 l 1
 268 614 l 1
 268 540 l 1xd0
 138 540 l 1xe0
EndSplineSet
EndChar

StartChar: backslash
Encoding: 92 92 64
Width: 220
GlyphClass: 2
Flags: MW
VStem: 20 230
LayerCount: 2
Fore
SplineSet
145 75 m 1
 20 545 l 1
 122 525 l 1
 250 47 l 1
 145 75 l 1
EndSplineSet
EndChar

StartChar: bracketright
Encoding: 93 93 65
Width: 260
GlyphClass: 2
Flags: MW
HStem: -176 74<25 155 25 249 25 155> 540 74<25 249 25 155>
VStem: 25 224<-176 -102 -102 -102 540 614 -176 614> 155 94<-102 540 540 540>
LayerCount: 2
Fore
SplineSet
25 540 m 1xe0
 25 614 l 1
 249 614 l 1
 249 -176 l 1
 25 -176 l 1
 25 -102 l 1xe0
 155 -102 l 1
 155 540 l 1xd0
 25 540 l 1xe0
EndSplineSet
EndChar

StartChar: asciicircum
Encoding: 94 94 66
Width: 272
GlyphClass: 2
Flags: MW
HStem: 605 20G<125 186 186 186>
VStem: 28 260<251 257>
LayerCount: 2
Fore
SplineSet
28 257 m 1
 125 625 l 1
 186 625 l 1
 288 251 l 1
 234 249 l 1
 157 533 l 1
 84 256 l 1
 28 257 l 1
EndSplineSet
EndChar

StartChar: underscore
Encoding: 95 95 67
Width: 290
GlyphClass: 2
Flags: MW
HStem: -51 69<5 328 5 328>
VStem: 5 323<-51 18 -51 18>
LayerCount: 2
Fore
SplineSet
5 -51 m 1
 5 18 l 1
 328 18 l 1
 328 -51 l 1
 5 -51 l 1
EndSplineSet
EndChar

StartChar: grave
Encoding: 96 96 68
Width: 172
GlyphClass: 2
Flags: MW
HStem: 397 178<58 153 58 190>
VStem: 58 132
LayerCount: 2
Fore
SplineSet
153 397 m 1
 58 575 l 1
 126 575 l 1
 190 397 l 1
 153 397 l 1
EndSplineSet
EndChar

StartChar: a
Encoding: 97 97 69
Width: 450
GlyphClass: 2
Flags: MW
HStem: -11 72 0 57 374 83
VStem: 42 99 73 88 326 92
LayerCount: 2
Fore
SplineSet
325 329 m 0xb4
 325 359 299.333007812 373.998046875 248 373.998046875 c 0
 232.666992188 373.998046875 217.166992188 370.998046875 201.5 364.998046875 c 0
 185.833007812 358.998046875 174.666015625 348.331054688 167.999023438 332.998046875 c 0
 165.999023438 328.331054688 164.999023438 323.498046875 164.999023438 318.498046875 c 0
 164.999023438 313.498046875 163.666015625 308.665039062 160.999023438 303.998046875 c 1
 72.9990234375 303.998046875 l 1
 72.9990234375 306.998046875 l 2
 72.9990234375 386.060546875 106.999023438 433.560546875 174.999023438 449.498046875 c 0
 196.33203125 454.498046875 219.499023438 456.998046875 244.499023438 456.998046875 c 0
 269.499023438 456.998046875 292.499023438 455.831054688 313.499023438 453.498046875 c 0
 334.499023438 451.165039062 352.666015625 445.998046875 367.999023438 437.998046875 c 0
 401.33203125 420.606445312 417.999023438 388.606445312 417.999023438 341.998046875 c 2
 417.999023438 93.998046875 l 2
 417.999023438 77.3310546875 421.666015625 66.998046875 428.999023438 62.998046875 c 0
 436.33203125 58.998046875 446.999023438 56.998046875 460.999023438 56.998046875 c 1
 460.999023438 -0.001953125 l 1x6c
 450.999023438 -1.3349609375 441.33203125 -3.501953125 431.999023438 -6.501953125 c 0
 422.666015625 -9.501953125 410.166015625 -11.001953125 394.499023438 -11.001953125 c 0
 365.20703125 -11.001953125 343.374023438 11.998046875 328.999023438 57.998046875 c 1
 299.067382812 14.763671875 262.067382812 -7.9033203125 217.999023438 -10.001953125 c 0
 203.999023438 -10.6689453125 187.33203125 -11.001953125 167.999023438 -11.001953125 c 0
 148.666015625 -11.001953125 130.833007812 -9.1689453125 114.5 -5.501953125 c 0
 98.1669921875 -1.8349609375 84.6669921875 4.6650390625 74 13.998046875 c 0
 52.6669921875 32.6650390625 42 64.33203125 42 108.999023438 c 0
 42 172.038085938 67.8330078125 214.37109375 119.5 235.999023438 c 0
 135.752929688 242.802734375 177.252929688 252.969726562 244 266.5 c 0
 268.666992188 271.5 290 280.666992188 308 294 c 0
 316 299.333007812 320.833007812 304.5 322.5 309.5 c 0
 324.166992188 314.5 325 321 325 329 c 0xb4
326 148.998046875 m 2
 326.00390625 215.99609375 l 1
 311.336914062 209.329101562 293.669921875 204.329101562 273.002929688 200.99609375 c 0
 252.3359375 197.663085938 232.168945312 193.330078125 212.501953125 187.997070312 c 0
 192.834960938 182.6640625 176.16796875 174.831054688 162.500976562 164.498046875 c 0
 148.833984375 154.165039062 141.666992188 138.165039062 141 116.498046875 c 0
 140.333007812 94.8310546875 145 80.1640625 155 72.4970703125 c 0
 165 64.830078125 180.666992188 60.9970703125 202 60.9970703125 c 0xb4
 248.06640625 60.9970703125 280.733398438 72.330078125 300 94.9970703125 c 0
 306 101.6640625 311.833007812 110.331054688 317.5 120.998046875 c 0
 323.166992188 131.665039062 326 140.998046875 326 148.998046875 c 2
EndSplineSet
EndChar

StartChar: b
Encoding: 98 98 70
Width: 455
GlyphClass: 2
Flags: MW
HStem: -5 73 400 78 594 20G
VStem: 43 85<0.000976562 47.001 0.000976562 614.001> 43 98<403.001 614.001 403.001 614.001 403.001 614.001> 351 102
LayerCount: 2
Fore
SplineSet
442.5 322.5 m 0xec
 449.5 293.5 453 263.66796875 453 233.000976562 c 0
 453 202.333984375 450.333007812 172.333984375 445 143.000976562 c 0
 439.666992188 113.66796875 430 88.0009765625 416 66.0009765625 c 0
 385.87890625 18.66796875 336.545898438 -4.9990234375 268 -4.9990234375 c 0
 236.666992188 -4.9990234375 210.5 -1.33203125 189.5 6.0009765625 c 0
 168.5 13.333984375 148 27.0009765625 128 47.0009765625 c 1
 128 0.0009765625 l 1
 43 0.0009765625 l 1xf4
 43 614.000976562 l 1
 141 614.000976562 l 1
 141 403.000976562 l 1
 159.666992188 430.333984375 178.5 449.666992188 197.5 461 c 0
 216.5 472.333007812 241.666992188 478 273 478 c 0
 304.333007812 478 331.5 470.833007812 354.5 456.5 c 0
 377.5 442.166992188 396.166992188 423.5 410.5 400.5 c 0
 424.833007812 377.5 435.5 351.5 442.5 322.5 c 0xec
245 68.0009765625 m 0
 315.666992188 68.0009765625 350.999023438 123.334960938 350.999023438 234.001953125 c 0
 350.999023438 280.668945312 345.499023438 315.001953125 334.499023438 337.001953125 c 0
 323.499023438 359.001953125 310.83203125 375.001953125 296.499023438 385.001953125 c 0
 282.166015625 395.001953125 263.999023438 400.001953125 241.999023438 400.001953125 c 0
 219.999023438 400.001953125 202.33203125 396.001953125 188.999023438 388.001953125 c 0
 175.666015625 380.001953125 162.833007812 363.501953125 150.5 338.501953125 c 0
 138.166992188 313.501953125 132 283.334960938 132 248.001953125 c 0
 132 193.334960938 139.666992188 150.66796875 155 120.000976562 c 0
 164.333007812 100.000976562 176.5 86.333984375 191.5 79.0009765625 c 0
 206.5 71.66796875 224.333007812 68.0009765625 245 68.0009765625 c 0
EndSplineSet
EndChar

StartChar: c
Encoding: 99 99 71
Width: 403
GlyphClass: 2
Flags: MW
HStem: -19 77 385 84
VStem: 43 101<195 245.937 195 280.474> 329 70<293.002 295.002 295.002 295.002>
LayerCount: 2
Fore
SplineSet
336 160 m 2
 408.000976562 160.001953125 l 1
 404.66796875 147.334960938 402.500976562 134.834960938 401.500976562 122.501953125 c 0
 400.500976562 110.168945312 397.66796875 96.001953125 393.000976562 80.001953125 c 0
 388.333984375 64.001953125 380.666992188 49.3349609375 370 36.001953125 c 0
 359.333007812 22.6689453125 347 12.001953125 333 4.001953125 c 0
 306.166992188 -11.3310546875 273.125 -18.998046875 233.875 -18.998046875 c 0
 194.625 -18.998046875 162.666992188 -12.1650390625 138 1.501953125 c 0
 113.333007812 15.1689453125 94 33.501953125 80 56.501953125 c 0
 55.3330078125 97.025390625 43 153.192382812 43 225.001953125 c 0
 43 335.946289062 75.3330078125 410.279296875 140 448.001953125 c 0
 164 462.001953125 194.666992188 469.001953125 232 469.001953125 c 0
 290.666992188 469.001953125 333.166992188 454.668945312 359.5 426.001953125 c 0
 385.833007812 397.334960938 399 353.001953125 399 293.001953125 c 1
 329 293.001953125 l 1
 329 295.001953125 l 1
 325 320.334960938 317.5 341.66796875 306.5 359.000976562 c 0
 295.5 376.333984375 276.833007812 385.000976562 250.5 385.000976562 c 0
 224.166992188 385.000976562 204.166992188 380.16796875 190.5 370.500976562 c 0
 176.833007812 360.833984375 166.5 348.166992188 159.5 332.5 c 0
 149.166992188 309.373046875 144 271.873046875 144 220 c 0
 144 170 149.5 133.833007812 160.5 111.5 c 0
 171.5 89.1669921875 183.5 74.6669921875 196.5 68 c 0
 209.5 61.3330078125 225 58 243 58 c 0
 261 58 275 60.6669921875 285 66 c 0
 295 71.3330078125 303 78.5 309 87.5 c 0
 315 96.5 319.666992188 107 323 119 c 0
 330.1796875 144.845703125 334.512695312 158.512695312 336 160 c 2
EndSplineSet
EndChar

StartChar: d
Encoding: 100 100 72
Width: 441
GlyphClass: 2
Flags: MW
HStem: -18 75 384 85 604 20G
VStem: 43 99 348 92 360 80
LayerCount: 2
Fore
SplineSet
348 388 m 1xf8
 348.00390625 624.001953125 l 1
 440.00390625 624.001953125 l 1xf8
 440.00390625 -7.998046875 l 1
 360.00390625 -7.998046875 l 1
 360.00390625 63.001953125 l 1xf4
 339.336914062 32.3349609375 318.169921875 11.16796875 296.502929688 -0.4990234375 c 0
 274.8359375 -12.166015625 247.668945312 -17.9990234375 215.001953125 -17.9990234375 c 0
 182.334960938 -17.9990234375 154.66796875 -11.166015625 132.000976562 2.5009765625 c 0
 109.333984375 16.16796875 91.5009765625 34.3349609375 78.5009765625 57.001953125 c 0
 65.5009765625 79.6689453125 56.333984375 105.501953125 51.0009765625 134.501953125 c 0
 45.66796875 163.501953125 43.0009765625 193.001953125 43.0009765625 223.001953125 c 0
 43.0009765625 253.001953125 45.5009765625 282.668945312 50.5009765625 312.001953125 c 0
 55.5009765625 341.334960938 64.333984375 367.66796875 77.0009765625 391.000976562 c 0
 105.229492188 443.000976562 151.229492188 469.000976562 215.000976562 469.000976562 c 0
 245.66796875 469.000976562 270.66796875 462.66796875 290.000976562 450.000976562 c 0
 309.333984375 437.333984375 328.666992188 416.666992188 348 388 c 1xf8
247.00390625 57.001953125 m 0
 314.336914062 57.001953125 348.00390625 111.334960938 348.00390625 220.001953125 c 0
 348.00390625 289.284179688 330.836914062 338.451171875 296.50390625 367.502929688 c 0
 283.50390625 378.502929688 266.336914062 384.002929688 245.00390625 384.002929688 c 0
 223.670898438 384.002929688 206.170898438 379.002929688 192.50390625 369.002929688 c 0
 178.836914062 359.002929688 168.169921875 346.002929688 160.502929688 330.002929688 c 0
 148.169921875 304.263671875 142.002929688 267.596679688 142.002929688 220.002929688 c 0
 142.002929688 175.0859375 147.502929688 141.856445312 158.502929688 120.314453125 c 0
 169.502929688 98.7724609375 181.8359375 82.8349609375 195.502929688 72.501953125 c 0
 209.169921875 62.1689453125 226.336914062 57.001953125 247.00390625 57.001953125 c 0
EndSplineSet
EndChar

StartChar: e
Encoding: 101 101 73
Width: 440
GlyphClass: 2
Flags: MW
HStem: -19 77<232.333 250.667 232.333 265.335> 194 72 386 84
VStem: 43 99<193.999 193.999 193.999 273.303> 346 102
LayerCount: 2
Fore
SplineSet
448 194 m 1
 142 193.999023438 l 1
 143.548828125 153.739257812 149.26953125 124.840820312 159.162109375 107.3046875 c 0
 169.0546875 89.7685546875 180.66796875 77.1669921875 194.000976562 69.5 c 0
 207.333984375 61.8330078125 223.166992188 58 241.5 58 c 0
 259.833007812 58 273.833007812 60 283.5 64 c 0
 293.166992188 68 301.333984375 73.5 308.000976562 80.5 c 0
 314.932617188 87.7783203125 326.265625 106.278320312 342.000976562 136 c 1
 434.000976562 136 l 1
 434.000976562 134 l 2
 434.000976562 122 430.000976562 105.333007812 422.000976562 84 c 0
 406.66796875 44 383.334960938 16.8330078125 352.001953125 2.5 c 0
 320.668945312 -11.8330078125 285.168945312 -19 245.501953125 -19 c 0
 205.834960938 -19 173.16796875 -13 147.500976562 -1 c 0
 121.833984375 11 101.166992188 27.6669921875 85.5 49 c 0
 57.1669921875 87.58203125 43 143.249023438 43 216.000976562 c 0
 43 330.604492188 75.6669921875 407.771484375 141 447.500976562 c 0
 165.666992188 462.500976562 199 470.000976562 241 470.000976562 c 0
 283 470.000976562 318 463.000976562 346 449.000976562 c 0
 374 435.000976562 395.5 415.66796875 410.5 391.000976562 c 0
 435.5 349.889648438 448 284.22265625 448 194 c 1
143 265.999023438 m 1
 346.001953125 265.997070312 l 1
 344.40234375 301.197265625 338.001953125 326.497070312 326.801757812 341.897460938 c 0
 315.6015625 357.297851562 303.66796875 368.498046875 291.000976562 375.498046875 c 0
 278.333984375 382.498046875 262.666992188 385.998046875 244 385.998046875 c 0
 225.333007812 385.998046875 210 382.498046875 198 375.498046875 c 0
 186 368.498046875 176.166992188 359.331054688 168.5 347.998046875 c 0
 156.544921875 330.325195312 148.044921875 302.9921875 143 265.999023438 c 1
EndSplineSet
EndChar

StartChar: f
Encoding: 102 102 74
Width: 231
GlyphClass: 2
Flags: MW
HStem: 0 21G 368 74 542 74<222.333 231>
VStem: 78 94<0.000976562 368.001 0.000976562 368.001 0.000976562 442.001>
LayerCount: 2
Fore
SplineSet
174 619 m 2
 231 616 l 1
 231 542 l 1
 213.666992188 542 199.5 540.333007812 188.5 537 c 0
 177.5 533.666992188 172 522.333984375 172 503.000976562 c 2
 172 442.000976562 l 1
 231 442.000976562 l 1
 231 368.000976562 l 1
 172 368.000976562 l 1
 172 0.0009765625 l 1
 78 0.0009765625 l 1
 78 368.000976562 l 1
 28 368.000976562 l 1
 28 442.000976562 l 1
 78 442.000976562 l 1
 76 464.000976562 75 481.16796875 75 493.500976562 c 0
 75 505.833984375 76 519.666992188 78 535 c 0
 80 550.333007812 84.5 564.333007812 91.5 577 c 0
 106.973632812 605 134.473632812 619 174 619 c 2
EndSplineSet
EndChar

StartChar: g
Encoding: 103 103 75
Width: 447
GlyphClass: 2
Flags: MW
HStem: -183 84 -19 78<227.267 234.333> 383 85<232.081 237.745 203.333 273.163> 440 20G
VStem: 43 102.5 67 92 345 100 357 88
LayerCount: 2
Fore
SplineSet
357 399 m 1xe9
 356.999023438 460.000976562 l 1
 444.999023438 460.000976562 l 1
 444.999023438 69.0009765625 l 2xd9
 444.999023438 29.0009765625 443.33203125 -6.666015625 439.999023438 -37.9990234375 c 0
 436.666015625 -69.33203125 428.166015625 -95.6650390625 414.499023438 -116.998046875 c 0
 386.311523438 -160.998046875 326.811523438 -182.998046875 235.999023438 -182.998046875 c 0
 195.841796875 -182.998046875 167.135742188 -179.331054688 149.880859375 -171.998046875 c 0
 132.625976562 -164.665039062 118.498046875 -155.83203125 107.498046875 -145.499023438 c 0
 96.498046875 -135.166015625 88.498046875 -123.499023438 83.498046875 -110.499023438 c 0
 78.498046875 -97.4990234375 75.3310546875 -86.4990234375 73.998046875 -77.4990234375 c 0
 72.6650390625 -68.4990234375 70.33203125 -59.666015625 66.9990234375 -50.9990234375 c 1
 158.999023438 -50.9990234375 l 1
 158.999023438 -51.9990234375 l 1
 165.666015625 -72.666015625 175.333007812 -85.666015625 188 -90.9990234375 c 0
 200.666992188 -96.33203125 217 -98.9990234375 237 -98.9990234375 c 0
 257 -98.9990234375 275.5 -97.4990234375 292.5 -94.4990234375 c 0
 309.5 -91.4990234375 323.666992188 -81.33203125 335 -63.9990234375 c 0
 341 -55.33203125 344.333007812 -41.33203125 345 -21.9990234375 c 0xd6
 345.666992188 -2.666015625 346 16.6669921875 346 36 c 1
 327.333007812 14 309 -0.6669921875 291 -8 c 0
 273 -15.3330078125 249.166992188 -19 219.5 -19 c 0
 189.833007812 -19 163.5 -11.6669921875 140.5 3 c 0
 117.5 17.6669921875 98.8330078125 36.6669921875 84.5 60 c 0
 56.8330078125 105.0390625 43 160.0390625 43 225 c 0
 43 336.275390625 73.1669921875 410.275390625 133.5 447 c 0
 156.5 461 185.666992188 468 221 468 c 0
 254.490234375 468 278.529296875 464 293.1171875 456 c 0
 315.31640625 443.826171875 336.610351562 424.826171875 357 399 c 1xe9
139.999023438 254.000976562 m 2
 141 237 l 2
 143 214.333007812 144.5 192.333007812 145.5 171 c 0
 146.5 149.666992188 150 130.666992188 156 114 c 0
 169.200195312 77.3330078125 201.533203125 59 253 59 c 0
 307.848632812 59 338.348632812 92.8330078125 344.5 160.5 c 0
 346.166992188 178.833007812 347 197 347 215 c 0
 347 233 346.5 252 345.5 272 c 0
 344.5 292 341 310.166992188 335 326.5 c 0
 321.163085938 364.166992188 293.704101562 383 252.622070312 383 c 0xe8
 211.540039062 383 182.499023438 370.833007812 165.499023438 346.5 c 0
 148.499023438 322.166992188 139.999023438 291.333984375 139.999023438 254.000976562 c 2
EndSplineSet
EndChar

StartChar: h
Encoding: 104 104 76
Width: 405
GlyphClass: 2
Flags: MW
HStem: 0 21G<313.997 404.997 313.997 313.997> 390 80 593 20G
VStem: 43 94<0.000976562 240.001 0.000976562 613.001> 314 91
LayerCount: 2
Fore
SplineSet
405 339 m 2
 404.997070312 0 l 1
 313.997070312 0 l 1
 313.997070312 291 l 2
 313.997070312 317.666992188 307.830078125 340.833984375 295.497070312 360.500976562 c 0
 283.1640625 380.16796875 264.331054688 390.000976562 238.998046875 390.000976562 c 0
 213.665039062 390.000976562 194.33203125 385.833984375 180.999023438 377.500976562 c 0
 167.666015625 369.16796875 157.833007812 358.000976562 151.5 344.000976562 c 0
 141.833007812 322.6328125 137 287.965820312 137 240.000976562 c 2
 137 0.0009765625 l 1
 43 0.0009765625 l 1
 43 613.000976562 l 1
 137 613.000976562 l 1
 139 414.000976562 l 1
 163.71484375 448.6015625 196.21484375 466.934570312 236.5 469 c 0
 249.5 469.666992188 263.666992188 470 279 470 c 0
 363 470 405 426.333007812 405 339 c 2
EndSplineSet
EndChar

StartChar: i
Encoding: 105 105 77
Width: 141
GlyphClass: 2
Flags: MW
HStem: 0 21G<46 46 46 140> 484 130<81.6665 93.999 76.999 110.333>
VStem: 46 94<0 416 0 416>
LayerCount: 2
Fore
SplineSet
46 0 m 1
 46 416 l 1
 140 416 l 1
 140 0 l 1
 46 0 l 1
145 536.5 m 0
 145 501.5 127.666992188 484 93 484 c 0
 70.3330078125 484 55.666015625 489.833007812 48.9990234375 501.5 c 0
 42.33203125 513.166992188 38.9990234375 529 38.9990234375 549 c 0
 38.9990234375 569 42.4990234375 584.833007812 49.4990234375 596.5 c 0
 56.4990234375 608.166992188 68.4990234375 614 85.4990234375 614 c 0
 102.499023438 614 114.33203125 612.166992188 120.999023438 608.5 c 0
 127.666015625 604.833007812 132.833007812 599.666015625 136.5 592.999023438 c 0
 142.166992188 582.696289062 145 563.86328125 145 536.5 c 0
EndSplineSet
EndChar

StartChar: j
Encoding: 106 106 78
Width: 193
GlyphClass: 2
Flags: MW
HStem: -171 80<33.999 84.998> 484 130<132.999 144.999 127.999 161.333>
VStem: 90 106 98 92
LayerCount: 2
Fore
SplineSet
196 536.5 m 0xe0
 196 501.5 178.666015625 484 143.999023438 484 c 0
 121.999023438 484 107.499023438 489.833007812 100.499023438 501.5 c 0
 93.4990234375 513.166992188 89.9990234375 529 89.9990234375 549 c 0
 89.9990234375 569 93.4990234375 584.833007812 100.499023438 596.5 c 0
 107.499023438 608.166992188 119.499023438 614 136.499023438 614 c 0
 153.499023438 614 165.33203125 612.166992188 171.999023438 608.5 c 0
 178.666015625 604.833007812 183.833007812 599.666015625 187.5 592.999023438 c 0
 193.166992188 582.696289062 196 563.86328125 196 536.5 c 0xe0
97.9990234375 -36 m 2xd0
 97.998046875 413.000976562 l 1
 189.998046875 413.000976562 l 1
 189.998046875 -83.9990234375 l 2
 189.998046875 -116.666015625 178.498046875 -139.333007812 155.498046875 -152 c 0
 132.498046875 -164.666992188 102.998046875 -171 66.998046875 -171 c 0
 61.6650390625 -171 56.33203125 -170 50.9990234375 -168 c 0
 45.666015625 -166 39.9990234375 -166 33.9990234375 -168 c 1
 33.9990234375 -91 l 1
 54.666015625 -91 70.4990234375 -87.5 81.4990234375 -80.5 c 0
 92.4990234375 -73.5 97.9990234375 -58.6669921875 97.9990234375 -36 c 2xd0
EndSplineSet
EndChar

StartChar: k
Encoding: 107 107 79
Width: 365
GlyphClass: 2
Flags: MW
HStem: 0 21G<42 137 42 42 319 383 319 319> 432 20G<294 361 361 361> 592 20G<42 137 137 137>
VStem: 42 95<0 177 0 254 254 612>
LayerCount: 2
Fore
SplineSet
294 452 m 1
 361 452 l 1
 237 298 l 1
 383 0 l 1
 319 0 l 1
 196 250 l 1
 137 177 l 1
 137 0 l 1
 42 0 l 1
 42 612 l 1
 137 612 l 1
 137 254 l 1
 294 452 l 1
EndSplineSet
EndChar

StartChar: l
Encoding: 108 108 80
Width: 137
GlyphClass: 2
Flags: MW
HStem: 0 21G<43 43 43 137> 593 20G<43 137 137 137>
VStem: 43 94<0 613 0 613>
LayerCount: 2
Fore
SplineSet
43 0 m 1
 43 613 l 1
 137 613 l 1
 137 0 l 1
 43 0 l 1
EndSplineSet
EndChar

StartChar: m
Encoding: 109 109 81
Width: 629
GlyphClass: 2
Flags: MW
HStem: 0 21G<290.001 384.001 290.001 290.001 537.003 631.003 537.003 537.003> 387 76 429 20G
VStem: 44 84 44 94 290 94 537 94
LayerCount: 2
Fore
SplineSet
631 336 m 2xd6
 631.002929688 0 l 1
 537.002929688 0 l 1
 537.002929688 298 l 2
 537.002929688 326.666992188 532.169921875 348.5 522.502929688 363.5 c 0
 512.8359375 378.5 493.668945312 386 465.001953125 386 c 0
 423.359375 386 397.692382812 361.166992188 388.000976562 311.5 c 0
 385.333984375 297.833007812 384.000976562 284 384.000976562 270 c 2
 384.000976562 0 l 1
 290.000976562 0 l 1
 290.000976562 297 l 2
 290.000976562 327.666992188 285.333984375 350.333984375 276.000976562 365.000976562 c 0
 266.66796875 379.66796875 246.334960938 387.000976562 215.001953125 387.000976562 c 0
 171.12890625 387.000976562 146.295898438 362.66796875 140.501953125 314.000976562 c 0
 138.834960938 300.000976562 138.001953125 285.333984375 138.001953125 270.000976562 c 2
 138.001953125 0.0009765625 l 1
 44.001953125 0.0009765625 l 1xce
 44.001953125 449.000976562 l 1
 128.001953125 449.000976562 l 1xb6
 128.001953125 403.000976562 l 1
 149.391601562 425.817382812 166.239257812 440.521484375 178.543945312 447.11328125 c 0
 190.848632812 453.705078125 202.500976562 458.000976562 213.500976562 460.000976562 c 0
 224.500976562 462.000976562 237.333984375 463.000976562 252.000976562 463.000976562 c 0
 266.66796875 463.000976562 279.66796875 462.000976562 291.000976562 460.000976562 c 0
 302.333984375 458.000976562 312.833984375 454.833984375 322.500976562 450.500976562 c 0
 337.357421875 443.840820312 355.524414062 428.340820312 377.000976562 404.000976562 c 1
 395.653320312 430.114257812 416.653320312 446.947265625 440.000976562 454.500976562 c 0
 457.516601562 460.16796875 480.728515625 463.000976562 509.637695312 463.000976562 c 0
 538.546875 463.000976562 560.16796875 460.000976562 574.500976562 454.000976562 c 0
 588.833984375 448.000976562 600.166992188 439.333984375 608.5 428.000976562 c 0
 623.5 407.600585938 631 376.93359375 631 336 c 2xd6
EndSplineSet
EndChar

StartChar: n
Encoding: 110 110 82
Width: 408
GlyphClass: 2
Flags: MW
HStem: 0 21G 381 78
VStem: 44 85<383.999 444.999 383.999 444.999 383.999 444.999> 44 95<-0.000976562 234.999 -0.000976562 444.999> 314 94<-0.000976562 295.999 295.999 324.333>
LayerCount: 2
Fore
SplineSet
408 338 m 2xe8
 408 -0.0009765625 l 1
 314 -0.0009765625 l 1
 314 295.999023438 l 2
 314 352.666015625 287.333007812 380.999023438 234 380.999023438 c 0
 176.76953125 380.999023438 145.76953125 349.999023438 141 287.999023438 c 0
 139.666992188 270.666015625 139 252.999023438 139 234.999023438 c 2
 139 -0.0009765625 l 1
 44 -0.0009765625 l 1xd8
 44 444.999023438 l 1
 129 444.999023438 l 1
 129 383.999023438 l 1
 148.359375 414.973632812 169.692382812 435.640625 193 446 c 0
 212.5 454.666992188 242.708007812 459 283.625 459 c 0
 324.541992188 459 355.5 449.5 376.5 430.5 c 0
 397.5 411.5 408 380.666992188 408 338 c 2xe8
EndSplineSet
EndChar

StartChar: o
Encoding: 111 111 83
Width: 443
GlyphClass: 2
Flags: MW
HStem: -18 77<221.376 272.69 221.376 281.543> 385 85
VStem: 43 99 346 95<208.333 227.667>
LayerCount: 2
Fore
SplineSet
432.5 318 m 0
 438.166992188 288 441 256 441 222 c 0
 441 188 438.333007812 156.333007812 433 127 c 0
 427.666992188 97.6669921875 417.666992188 72.1669921875 403 50.5 c 0
 372.086914062 4.8330078125 319.086914062 -18 244 -18 c 0
 137.348632812 -18 73.515625 30.6669921875 52.5 128 c 0
 46.1669921875 157.333007812 43 189 43 223 c 0
 43 257 45.8330078125 289 51.5 319 c 0
 57.1669921875 349 67.5 375.166992188 82.5 397.5 c 0
 114.962890625 445.833007812 168.795898438 470 244 470 c 0
 350.526367188 470 413.359375 419.333007812 432.5 318 c 0
346 218 m 0
 346 237.333007812 345.169921875 256.997070312 343.502929688 276.997070312 c 0
 341.8359375 296.997070312 337.668945312 314.997070312 331.001953125 330.997070312 c 0
 324.334960938 346.997070312 314.16796875 359.997070312 300.500976562 369.997070312 c 0
 286.833984375 379.997070312 268.000976562 384.997070312 244.000976562 384.997070312 c 0
 220.000976562 384.997070312 201.333984375 380.1640625 188.000976562 370.497070312 c 0
 174.66796875 360.830078125 164.500976562 348.330078125 157.500976562 332.997070312 c 0
 150.500976562 317.6640625 146.16796875 300.331054688 144.500976562 280.998046875 c 0
 142.833984375 261.665039062 142.000976562 242.33203125 142.000976562 222.999023438 c 0
 142.000976562 203.666015625 142.833984375 184.333007812 144.500976562 165 c 0
 146.16796875 145.666992188 150.16796875 128.166992188 156.500976562 112.5 c 0
 170.918945312 76.8330078125 199.751953125 59 243 59 c 0
 302.380859375 59 335.713867188 93 343 161 c 0
 345 179.666992188 346 198.666992188 346 218 c 0
EndSplineSet
EndChar

StartChar: p
Encoding: 112 112 84
Width: 435
GlyphClass: 2
Flags: MW
HStem: -174 21G<50.999 144.999 50.999 50.999> -20 79<225.664 305.788> 392 79<256.058 265.391> 437 20G<50.999 135.999 135.999 135.999>
VStem: 51 85 348 95
LayerCount: 2
Fore
SplineSet
434.5 305.5 m 0xec
 440.166992188 275.833007812 442.997070312 247.666015625 442.997070312 220.999023438 c 0
 442.997070312 194.33203125 440.1640625 166.83203125 434.497070312 138.499023438 c 0
 428.830078125 110.166015625 419.497070312 84.3330078125 406.497070312 61 c 0
 376.411132812 7 333.578125 -20 277.997070312 -20 c 0
 248.219726562 -20 226.442382812 -17.3330078125 212.665039062 -12 c 0
 187.104492188 -2.10546875 164.548828125 13.2275390625 144.999023438 34 c 1
 144.999023438 -174 l 1
 50.9990234375 -174 l 1
 50.9990234375 457 l 1
 135.999023438 457 l 1xdc
 135.999023438 396 l 1
 156.680664062 424.954101562 176.180664062 444.454101562 194.499023438 454.5 c 0
 214.557617188 465.5 240.322265625 471 271.79296875 471 c 0
 303.263671875 471 329.999023438 463 351.999023438 447 c 0
 373.999023438 431 391.83203125 410.833007812 405.499023438 386.5 c 0
 419.166015625 362.166992188 428.833007812 335.166992188 434.5 305.5 c 0xec
347.997070312 224.5 m 0
 347.997070312 242.166992188 346.828125 260.833007812 344.495117188 280.5 c 0
 342.162109375 300.166992188 337.329101562 318.166992188 329.99609375 334.5 c 0
 312.78515625 372.833007812 284.78515625 392 245.99609375 392 c 0xec
 210.102539062 392 182.102539062 372.666992188 161.99609375 334 c 0
 145.99609375 303.23046875 137.99609375 266.897460938 137.99609375 225 c 0
 137.99609375 185 145.829101562 149.333007812 161.49609375 118 c 0
 181.163085938 78.6669921875 208.330078125 59 242.997070312 59 c 0
 282.108398438 59 310.608398438 77.6669921875 328.497070312 115 c 0
 341.497070312 142.130859375 347.997070312 178.630859375 347.997070312 224.5 c 0
EndSplineSet
EndChar

StartChar: q
Encoding: 113 113 85
Width: 442
GlyphClass: 2
Flags: MW
HStem: -175 21G -20 76 390 80 436 20G
VStem: 44 97 348 94<-175.001 29.999 29.999 29.999> 361 81<404 455.999 -175.001 455.999>
LayerCount: 2
Fore
SplineSet
361 404 m 1xda
 361 455.999023438 l 1
 442 455.999023438 l 1xda
 442 -175.000976562 l 1
 348 -175.000976562 l 1
 348 29.9990234375 l 1
 328.666992188 9.33203125 309.666992188 -4.16796875 291 -10.5009765625 c 0
 272.333007812 -16.833984375 246.333007812 -20.0009765625 213 -20.0009765625 c 0
 179.666992188 -20.0009765625 151.5 -13.5009765625 128.5 -0.5009765625 c 0
 105.5 12.4990234375 87.6669921875 30.166015625 75 52.4990234375 c 0
 54.3330078125 88.9375 44 145.770507812 44 222.999023438 c 0
 44 338.00390625 75.1669921875 413.50390625 137.5 449.499023438 c 0
 161.166992188 463.166015625 189.5 469.999023438 222.5 469.999023438 c 0xec
 255.5 469.999023438 281.666992188 465.33203125 301 455.999023438 c 0
 320.333007812 446.666015625 340.333007812 429.333007812 361 404 c 1xda
347 221.999023438 m 0
 347 240.666015625 346.000976562 259.998046875 344.000976562 279.998046875 c 0
 342.000976562 299.998046875 337.500976562 318.165039062 330.500976562 334.498046875 c 0
 314.643554688 371.498046875 286.143554688 389.998046875 245.000976562 389.998046875 c 0xe8
 204.387695312 389.998046875 175.720703125 370.998046875 159.000976562 332.998046875 c 0
 147.000976562 305.725585938 141.000976562 268.05859375 141.000976562 219.998046875 c 0
 141.000976562 173.278320312 146.66796875 139.264648438 158.000976562 117.958007812 c 0
 169.333984375 96.6513671875 182.000976562 80.998046875 196.000976562 70.998046875 c 0
 210.000976562 60.998046875 228.333984375 55.998046875 251.000976562 55.998046875 c 0
 273.66796875 55.998046875 291.500976562 61.1650390625 304.500976562 71.498046875 c 0
 317.500976562 81.8310546875 327.16796875 94.998046875 333.500976562 110.998046875 c 0
 339.833984375 126.998046875 343.666992188 144.831054688 345 164.498046875 c 0
 346.333007812 184.165039062 347 203.33203125 347 221.999023438 c 0
EndSplineSet
EndChar

StartChar: r
Encoding: 114 114 86
Width: 248
GlyphClass: 2
Flags: MW
HStem: 0 21G<42.999 137.999 42.999 42.999> 379 78<232 244.749 244.749 246.999 232 252.999>
VStem: 43 85 43 95
LayerCount: 2
Fore
SplineSet
232 457 m 2xe0
 244.749023438 457 l 2
 249.249023438 457 251.999023438 456 252.999023438 454 c 2
 252.999023438 379 l 1
 176.33203125 379 137.999023438 326.333007812 137.999023438 221 c 2
 137.999023438 0 l 1
 42.9990234375 0 l 1xd0
 42.9990234375 447 l 1
 127.999023438 447 l 1
 127.999023438 372 l 1
 148.666015625 428.666992188 183.333007812 457 232 457 c 2xe0
EndSplineSet
EndChar

StartChar: s
Encoding: 115 115 87
Width: 404
GlyphClass: 2
Flags: MW
HStem: -20 78 386 85
VStem: 37 95 50 98 295 94 317 97
LayerCount: 2
Fore
SplineSet
393 188.5 m 0xd8
 407 171.5 413.997070312 148.499023438 413.997070312 119.499023438 c 0
 413.997070312 90.4990234375 409.497070312 66.666015625 400.497070312 47.9990234375 c 0
 391.497070312 29.33203125 378.6640625 14.9990234375 361.997070312 4.9990234375 c 0
 334.219726562 -11.66796875 289.552734375 -20.0009765625 227.997070312 -20.0009765625 c 0
 162.966796875 -20.0009765625 116.633789062 -10.5009765625 88.9970703125 8.4990234375 c 0
 56.8466796875 30.6025390625 39.513671875 73.1025390625 36.998046875 135.999023438 c 1
 35.998046875 137.999023438 l 1
 131.998046875 137.999023438 l 1
 131.998046875 135.999023438 l 1
 137.331054688 105.999023438 147.498046875 85.4990234375 162.498046875 74.4990234375 c 0
 177.498046875 63.4990234375 200.331054688 57.9990234375 230.998046875 57.9990234375 c 0
 259.220703125 57.9990234375 278.443359375 60.666015625 288.666015625 65.9990234375 c 0
 307.5546875 75.8544921875 316.999023438 92.1875 316.999023438 114.999023438 c 0xe4
 316.999023438 133.23828125 300.83203125 149.405273438 268.499023438 163.499023438 c 0
 255.499023438 169.166015625 241.999023438 173.666015625 227.999023438 176.999023438 c 0
 213.999023438 180.33203125 199.83203125 184.165039062 185.499023438 188.498046875 c 0
 171.166015625 192.831054688 155.166015625 198.498046875 137.499023438 205.498046875 c 0
 119.83203125 212.498046875 104.499023438 221.331054688 91.4990234375 231.998046875 c 0
 63.83203125 254.69921875 49.9990234375 286.366210938 49.9990234375 326.999023438 c 0
 49.9990234375 406.124023438 84.33203125 452.124023438 152.999023438 464.999023438 c 0
 174.33203125 468.999023438 197.999023438 470.999023438 223.999023438 470.999023438 c 0
 249.999023438 470.999023438 273.33203125 468.666015625 293.999023438 463.999023438 c 0
 314.666015625 459.33203125 331.999023438 451.33203125 345.999023438 439.999023438 c 0
 374.666015625 416.79296875 388.999023438 376.459960938 388.999023438 319 c 1
 294.999023438 319 l 1
 295.666015625 345 288.666015625 362.666992188 273.999023438 372 c 0
 259.33203125 381.333007812 241.33203125 386 219.999023438 386 c 0
 198.666015625 386 181.333007812 382 168 374 c 0
 154.666992188 366 148 351 148 329 c 0
 148 305.333007812 173 286 223 271 c 0
 239 266.333007812 257.833007812 261 279.5 255 c 0
 301.166992188 249 322 240.666992188 342 230 c 0
 362 219.333007812 379 205.5 393 188.5 c 0xd8
EndSplineSet
EndChar

StartChar: t
Encoding: 116 116 88
Width: 230
GlyphClass: 2
Flags: MW
HStem: -13 64<193.667 237> 383 71<34 85 34 85 177 237>
VStem: 85 92<77.6665 91 91 383 454 578>
LayerCount: 2
Fore
SplineSet
202 51 m 2
 237 54 l 1
 237 -13 l 1
 175 -19 l 2
 149 -19 127.5 -15 110.5 -7 c 0
 93.5 1 85 17.6669921875 85 43 c 2
 85 383 l 1
 34 383 l 1
 34 454 l 1
 85 454 l 1
 85 578 l 1
 177 578 l 1
 177 454 l 1
 237 454 l 1
 237 383 l 1
 177 383 l 1
 177 91 l 2
 177 64.3330078125 185.333007812 51 202 51 c 2
EndSplineSet
EndChar

StartChar: u
Encoding: 117 117 89
Width: 406
GlyphClass: 2
Flags: MW
HStem: -17 70<152 248.333> 439 20G<44 138 138 138 315 406 406 406>
VStem: 44 94<113 143 143 459> 315 91<208 459 -7 459> 324 82<-7 39 39 39>
LayerCount: 2
Fore
SplineSet
215 53 m 0xe8
 281.666992188 53 315 104.666992188 315 208 c 2
 315 459 l 1
 406 459 l 1xf0
 406 -7 l 1
 324 -7 l 1
 324 39 l 1
 294.556640625 4.3603515625 259.056640625 -13.97265625 217.5 -16 c 0
 203.833007812 -16.6669921875 189 -17 173 -17 c 0
 131 -17 99 -8.1669921875 77 9.5 c 0
 55 27.1669921875 44 58 44 102 c 2
 44 459 l 1
 138 459 l 1
 138 143 l 2
 138 83 163.666992188 53 215 53 c 0xe8
EndSplineSet
EndChar

StartChar: v
Encoding: 118 118 90
Width: 380
GlyphClass: 2
Flags: MW
HStem: 0 21G<151 262 151 151> 429 20G<32 126 126 126 320 391 391 391>
LayerCount: 2
Fore
SplineSet
391 449 m 1
 262 0 l 1
 151 0 l 1
 32 449 l 1
 126 449 l 1
 219 97 l 1
 320 449 l 1
 391 449 l 1
EndSplineSet
EndChar

StartChar: w
Encoding: 119 119 91
Width: 563
GlyphClass: 2
Flags: MW
HStem: 0 21G<133 242 133 133 374 473 374 374> 429 20G<32 127 127 127 259 359 359 359 501 574 574 574>
LayerCount: 2
Fore
SplineSet
574 449 m 1
 473 0 l 1
 374 0 l 1
 307 307 l 1
 242 0 l 1
 133 0 l 1
 32 449 l 1
 127 449 l 1
 195 148 l 1
 259 449 l 1
 359 449 l 1
 429 129 l 1
 501 449 l 1
 574 449 l 1
EndSplineSet
EndChar

StartChar: x
Encoding: 120 120 92
Width: 322
GlyphClass: 2
Flags: MW
HStem: 0 21G<30 88 30 30 261 330 261 261> 430 20G<30 98 98 98 262 321 321 321>
VStem: 30 300<0 0>
LayerCount: 2
Fore
SplineSet
209 235 m 1
 330 0 l 1
 261 0 l 1
 175 168 l 1
 88 0 l 1
 30 0 l 1
 146 225 l 1
 30 450 l 1
 98 450 l 1
 180 291 l 1
 262 450 l 1
 321 450 l 1
 209 235 l 1
EndSplineSet
EndChar

StartChar: y
Encoding: 121 121 93
Width: 334
GlyphClass: 2
Flags: MW
HStem: -184 87 441 20G
VStem: 31 35<461.001 461.001>
LayerCount: 2
Fore
SplineSet
55 -93 m 1
 82.9990234375 -96.9990234375 l 2
 106.666015625 -96.9990234375 122.333007812 -81.666015625 130 -50.9990234375 c 2
 147 13.0009765625 l 1
 31 461.000976562 l 1
 66 461.000976562 l 1
 172 109.000976562 l 1
 268 483.000976562 l 1
 344 481.000976562 l 1
 199 -81.9990234375 l 2
 191.666992188 -111.999023438 179.666992188 -136.499023438 163 -155.499023438 c 0
 146.333007812 -174.499023438 124 -183.999023438 96 -183.999023438 c 0
 83.22265625 -183.999023438 72.861328125 -181.83203125 64.9169921875 -177.499023438 c 0
 56.97265625 -173.166015625 53 -170.333007812 53 -169 c 2
 53 -94 l 1
 55 -93 l 1
EndSplineSet
EndChar

StartChar: z
Encoding: 122 122 94
Width: 335
GlyphClass: 2
Flags: MW
HStem: 0 77<98 344 98 344 32 344> 372 77<49 259 49 334>
VStem: 32 312<0 77 0 80 0 80>
LayerCount: 2
Fore
SplineSet
334 370 m 1
 98 77 l 1
 344 77 l 1
 344 0 l 1
 32 0 l 1
 32 80 l 1
 259 372 l 1
 49 372 l 1
 49 449 l 1
 334 449 l 1
 334 370 l 1
EndSplineSet
EndChar

StartChar: braceleft
Encoding: 123 123 95
Width: 224
GlyphClass: 2
Flags: MW
HStem: -175 66 551 64
VStem: 92 84
LayerCount: 2
Fore
SplineSet
123 218 m 1
 158.333007812 173.833007812 176 131.168945312 176 90.001953125 c 2
 176 -50.998046875 l 2
 176 -74.3310546875 179.666992188 -89.8310546875 187 -97.498046875 c 0
 194.333007812 -105.165039062 208.666015625 -108.998046875 229.999023438 -108.998046875 c 1
 229.999023438 -174.998046875 l 1
 189.999023438 -174.998046875 l 2
 137.715820312 -174.998046875 106.548828125 -152.665039062 96.4990234375 -107.998046875 c 0
 93.4990234375 -94.6650390625 91.9990234375 -80.33203125 91.9990234375 -64.9990234375 c 2
 91.9990234375 92.0009765625 l 2
 91.9990234375 149.66796875 73.9990234375 183.000976562 37.9990234375 192.000976562 c 1
 36.9990234375 193.000976562 l 1
 36.9990234375 244.000976562 l 1
 37.9990234375 245.000976562 l 1
 73.9990234375 254.000976562 91.9990234375 288.66796875 91.9990234375 349.000976562 c 2
 91.9990234375 508.000976562 l 2
 91.9990234375 579.333984375 124.666015625 615.000976562 189.999023438 615.000976562 c 2
 229.999023438 615.000976562 l 1
 229.999023438 551.000976562 l 1
 208.666015625 551.66796875 194.333007812 547.66796875 187 539.000976562 c 0
 179.666992188 530.333984375 176 515.000976562 176 493.000976562 c 2
 176 346.000976562 l 2
 176 311.143554688 158.333007812 268.4765625 123 218 c 1
EndSplineSet
EndChar

StartChar: bar
Encoding: 124 124 96
Width: 151
GlyphClass: 2
Flags: MW
HStem: 594 20G<48 124 124 124>
VStem: 48 76<-177 614 -177 614>
LayerCount: 2
Fore
SplineSet
48 -177 m 1
 48 614 l 1
 124 614 l 1
 124 -177 l 1
 48 -177 l 1
EndSplineSet
EndChar

StartChar: braceright
Encoding: 125 125 97
Width: 204
GlyphClass: 2
Flags: MW
HStem: -176 66<18.001 54.001 18.001 18.001> 188 60 551 64<18.001 58.001>
VStem: 71 85
LayerCount: 2
Fore
SplineSet
156 352 m 2
 156 291.5 173.66796875 256.83203125 209.000976562 247.999023438 c 1
 211.000976562 247.999023438 l 1
 211.000976562 187.999023438 l 1
 209.000976562 187.999023438 l 1
 173.66796875 179.166015625 156.000976562 145.833007812 156.000976562 88 c 2
 156.000976562 -68 l 2
 156.000976562 -142 131.000976562 -179 81.0009765625 -179 c 1
 54.0009765625 -176 l 1
 18.0009765625 -176 l 1
 18.0009765625 -110 l 1
 39.333984375 -110.666992188 53.5009765625 -106.666992188 60.5009765625 -98 c 0
 67.5009765625 -89.3330078125 71.0009765625 -74 71.0009765625 -52 c 2
 71.0009765625 89 l 2
 71.0009765625 125.2421875 89.0009765625 167.909179688 125.000976562 217 c 1
 89.0009765625 262 71.0009765625 305.333007812 71.0009765625 347 c 2
 71.0009765625 493 l 2
 71.0009765625 515 67.5009765625 531.333007812 60.5009765625 542 c 0
 53.5009765625 552.666992188 39.333984375 555.666992188 18.0009765625 551 c 1
 18.0009765625 615 l 1
 58.0009765625 615 l 2
 92.4833984375 615 118.31640625 604.166992188 135.5 582.5 c 0
 149.166992188 565.268554688 156 540.768554688 156 509 c 2
 156 352 l 2
EndSplineSet
EndChar

StartChar: asciitilde
Encoding: 126 126 98
Width: 368
GlyphClass: 2
Flags: MW
HStem: 322 77<256.333 308.961> 416 77<109.333 121.334 105.667 130.667> 437 20G<306 362 362 362>
VStem: 39 43<355 357 357 375.333 355 376.412> 303 59<430 445 445 446.25 446.25 448.333>
LayerCount: 2
Fore
SplineSet
296 409.5 m 0xd8
 300.666992188 416.5 303 423.333007812 303 430 c 2
 303 446.25 l 2
 303 450.416992188 304 454 306 457 c 2
 362 457 l 1xb8
 362 445 l 2
 362 405.190429688 359.166992188 378.404296875 353.5 364.642578125 c 0
 341.793945312 336.213867188 322.451171875 322 295.470703125 322 c 0
 268.490234375 322 247.666992188 326.833007812 233 336.5 c 0
 218.333007812 346.166992188 205.5 357 194.5 369 c 0
 183.5 381 172.666992188 391.833007812 162 401.5 c 0
 151.333007812 411.166992188 138.333007812 416 123 416 c 0
 95.6669921875 416 82 395.666992188 82 355 c 1
 39 355 l 1
 39 357 l 2
 39 395.823242188 42.6669921875 423.862304688 50 441.1171875 c 0
 57.3330078125 458.372070312 65.8330078125 471.333007812 75.5 480 c 0
 85.1669921875 488.666992188 97.833984375 493 113.500976562 493 c 0
 129.16796875 493 142.66796875 488.166992188 154.000976562 478.5 c 0
 165.333984375 468.833007812 176.333984375 458 187.000976562 446 c 0
 197.66796875 434 209.16796875 423.166992188 221.500976562 413.5 c 0
 233.833984375 403.833007812 248.166992188 399 264.5 399 c 0
 280.833007812 399 291.333007812 402.5 296 409.5 c 0xd8
EndSplineSet
EndChar

StartChar: exclamdown
Encoding: 161 161 100
Width: 168
GlyphClass: 2
Flags: MW
HStem: 387 147
VStem: 31 153<460 460> 42 133<10.998 11.9971 11.9971 14.9971 7.33057 14.998 7.33057 14.998>
LayerCount: 2
Fore
SplineSet
109 534 m 0xc0
 160.333007812 534 185.333007812 509.331054688 184 459.998046875 c 0
 183.333007812 411.331054688 158.333007812 386.998046875 109 386.998046875 c 0
 85 386.998046875 66 393.331054688 52 405.998046875 c 0
 38 418.665039062 31 436.83203125 31 460.499023438 c 0
 31 484.166015625 38 502.333007812 52 515 c 0
 66 527.666992188 85 534 109 534 c 0xc0
68 320.998046875 m 1
 149 320.997070312 l 1
 175 14.9970703125 l 1
 175 11.9970703125 l 2
 175 2.6640625 169.833007812 -6.1689453125 159.5 -14.501953125 c 0
 149.166992188 -22.8349609375 138 -27.001953125 126 -27.001953125 c 2
 92 -27.001953125 l 2
 72.6669921875 -27.001953125 57.6669921875 -19.001953125 47 -3.001953125 c 0
 45 -1.001953125 43.3330078125 3.6650390625 42 10.998046875 c 2
 42 14.998046875 l 1xa0
 68 320.998046875 l 1
EndSplineSet
EndChar

StartChar: cent
Encoding: 162 162 101
Width: 393
GlyphClass: 2
Flags: MW
HStem: 0 94<223 223 223 271.998 207.998 223> 11 119 423 94
VStem: 42 113
LayerCount: 2
Fore
SplineSet
223 94 m 1xb0
 260.997070312 94.0009765625 l 2xb0
 280.997070312 94.0009765625 290.997070312 106.000976562 290.997070312 130.000976562 c 1
 392.997070312 130.000976562 l 1
 391.6640625 65.333984375 373.331054688 25.6669921875 337.998046875 11 c 0x70
 319.998046875 3.6669921875 297.998046875 0 271.998046875 0 c 2
 207.998046875 0 l 1
 193.998046875 -78 l 1
 109.998046875 -78 l 1
 124.998046875 6 l 1
 87.6650390625 17.3330078125 62.33203125 42 48.9990234375 80 c 0
 44.33203125 92 41.9990234375 104 41.9990234375 116 c 2
 41.9990234375 404 l 2
 41.9990234375 434.743164062 51.33203125 461.243164062 69.9990234375 483.5 c 0
 88.73046875 505.833007812 112.73046875 517 141.999023438 517 c 2
 210.999023438 517 l 1
 223.999023438 597 l 1
 307.999023438 597 l 1
 294.999023438 516 l 1
 354.999023438 510 387.666015625 472.333007812 392.999023438 403 c 1
 290.999023438 403 l 1
 289.666015625 412.333007812 285.333007812 418 278 420 c 1
 223 94 l 1xb0
160.997070312 221.000976562 m 1
 194.997070312 423.000976562 l 1
 179.997070312 423.000976562 l 2
 163.330078125 423.000976562 154.997070312 414.000976562 154.997070312 396.000976562 c 2
 154.997070312 235.000976562 l 2
 153.6640625 229.66796875 155.6640625 225.000976562 160.997070312 221.000976562 c 1
EndSplineSet
EndChar

StartChar: sterling
Encoding: 163 163 102
Width: 495
GlyphClass: 2
Flags: MW
HStem: 0 94 0 124 263 92 576 101
VStem: 100 110
LayerCount: 2
Fore
SplineSet
166 94 m 1xb8
 343.000976562 93.9990234375 l 2xb8
 367.66796875 93.9990234375 380.66796875 103.999023438 382.000976562 123.999023438 c 1
 498.000976562 123.999023438 l 1
 497.333984375 87.9990234375 487.000976562 58.33203125 467.000976562 34.9990234375 c 0
 447.000976562 11.666015625 420.000976562 -0.0009765625 386.000976562 -0.0009765625 c 2x78
 38.0009765625 -0.0009765625 l 1
 42.0009765625 86.9990234375 l 1
 77.333984375 86.9990234375 96.6669921875 115.666015625 100 172.999023438 c 2
 104 262.999023438 l 1
 61 262.999023438 l 1
 61 354.999023438 l 1
 108 354.999023438 l 1
 119 554.999023438 l 2
 121 594.33203125 137 624.499023438 167 645.499023438 c 0
 197 666.499023438 233.333007812 676.999023438 276 676.999023438 c 0
 318.666992188 676.999023438 355.333984375 659.666015625 386.000976562 624.999023438 c 1
 380.000976562 535.999023438 l 1
 342.000976562 535.999023438 l 1
 338.000976562 554.666015625 324.66796875 566.999023438 302.000976562 572.999023438 c 0
 294.000976562 574.999023438 288.000976562 575.999023438 284.000976562 575.999023438 c 0
 251.375976562 575.999023438 233.708984375 554.33203125 231.000976562 510.999023438 c 2
 221.000976562 354.999023438 l 1
 353.000976562 354.999023438 l 1
 353.000976562 262.999023438 l 1
 217.000976562 262.999023438 l 1
 211.000976562 185.999023438 l 1
 210.000976562 160.999023438 l 2
 209.333984375 125.666015625 194.666992188 103.333007812 166 94 c 1xb8
EndSplineSet
EndChar

StartChar: currency
Encoding: 164 164 103
Width: 445
GlyphClass: 2
Flags: MW
HStem: 202 80 474 77
VStem: 79.5 80.5 327 87
LayerCount: 2
Fore
SplineSet
388 303 m 1
 449.000976562 230.998046875 l 1
 382.000976562 157.998046875 l 1
 310.000976562 225.998046875 l 1
 289.333984375 209.998046875 267.500976562 201.998046875 244.500976562 201.998046875 c 0
 221.500976562 201.998046875 200.000976562 210.331054688 180.000976562 226.998046875 c 1
 107.000976562 157.998046875 l 1
 41.0009765625 230.998046875 l 1
 104.000976562 303.998046875 l 1
 87.333984375 325.998046875 79.1669921875 350.331054688 79.5 376.998046875 c 0
 79.8330078125 403.665039062 88.3330078125 427.998046875 105 449.998046875 c 1
 41 523.998046875 l 1
 107 597.998046875 l 1
 181 526.998046875 l 1
 201 542.998046875 222.5 550.998046875 245.5 550.998046875 c 0
 268.5 550.998046875 289.666992188 543.331054688 309 527.998046875 c 1
 382 597.998046875 l 1
 449 523.998046875 l 1
 386 451.998046875 l 1
 404 428.665039062 413.333007812 403.83203125 414 377.499023438 c 0
 414.666992188 351.166015625 406 326.333007812 388 303 c 1
185.000976562 309.998046875 m 0
 201.66796875 291.331054688 221.334960938 281.997070312 244.001953125 281.997070312 c 0
 266.668945312 281.997070312 286.001953125 291.330078125 302.001953125 309.997070312 c 0
 318.668945312 329.44140625 327.001953125 352.108398438 327.001953125 377.997070312 c 0
 327.001953125 403.885742188 318.834960938 426.358398438 302.501953125 445.4140625 c 0
 286.168945312 464.469726562 266.668945312 473.997070312 244.001953125 473.997070312 c 0
 221.334960938 473.997070312 201.66796875 464.6640625 185.000976562 445.997070312 c 0
 168.333984375 426.552734375 160.000976562 404.233398438 160.000976562 379.0390625 c 0
 160.000976562 353.844726562 168.333984375 330.831054688 185.000976562 309.998046875 c 0
EndSplineSet
EndChar

StartChar: yen
Encoding: 165 165 104
Width: 469
GlyphClass: 2
Flags: MW
HStem: 0 21G<195.001 325.001 195.001 195.001> 192 90<67.001 183.001 67.001 195.001 67.001 183.001 338.001 448.001> 318 85<67.001 164.001>
VStem: 195 130
LayerCount: 2
Fore
SplineSet
115 677 m 1
 257.000976562 365.000976562 l 1
 394.000976562 675.000976562 l 1
 449.000976562 675.000976562 l 2
 463.000976562 673.66796875 470.833984375 670.334960938 472.500976562 665.001953125 c 0
 474.16796875 659.668945312 474.334960938 656.001953125 473.001953125 654.001953125 c 2
 428.001953125 533.001953125 l 2
 420.668945312 512.334960938 413.168945312 491.16796875 405.501953125 469.500976562 c 0
 397.834960938 447.833984375 389.66796875 425.666992188 381.000976562 403 c 1
 448.000976562 403 l 1
 447.000976562 319 l 1
 356.000976562 318 l 1
 338.000976562 282 l 1
 448.000976562 282 l 1
 448.000976562 192 l 1
 325.000976562 192 l 1
 325.000976562 0 l 1
 195.000976562 0 l 1
 195.000976562 192 l 1
 67.0009765625 192 l 1
 67.0009765625 282 l 1
 183.000976562 282 l 1
 164.000976562 318 l 1
 67.0009765625 317 l 1
 67.0009765625 403 l 1
 137.000976562 403 l 1
 67.0009765625 586 l 2
 51.0009765625 628.666992188 42.0009765625 651.5 40.0009765625 654.5 c 0
 38.0009765625 657.5 38.66796875 662 42.0009765625 668 c 0
 45.333984375 674 52.6669921875 677 64 677 c 2
 115 677 l 1
EndSplineSet
EndChar

StartChar: brokenbar
Encoding: 166 166 105
Width: 165
GlyphClass: 2
Flags: MW
VStem: 42 123<-229 194 -229 194 248 672>
LayerCount: 2
Fore
SplineSet
42 248 m 1
 42 672 l 1
 165 672 l 1
 165 248 l 1
 42 248 l 1
42 -229 m 1
 42 194 l 1
 165 194 l 1
 165 -229 l 1
 42 -229 l 1
EndSplineSet
EndChar

StartChar: section
Encoding: 167 167 106
Width: 460
GlyphClass: 2
Flags: MW
HStem: -240 98<144.882 231.333> 568 117
VStem: 42 105 269 113 327 115
LayerCount: 2
Fore
SplineSet
176 404 m 1xf0
 147.333007812 436.666992188 132.997070312 461.33203125 132.997070312 477.999023438 c 0
 132.330078125 547.33203125 138.663085938 595.999023438 151.99609375 623.999023438 c 0
 165.329101562 651.999023438 186.829101562 669.166015625 216.49609375 675.499023438 c 0
 246.163085938 681.83203125 296.99609375 684.999023438 368.99609375 684.999023438 c 0
 397.663085938 684.999023438 419.99609375 673.999023438 435.99609375 651.999023438 c 0
 451.99609375 629.999023438 459.99609375 601.999023438 459.99609375 567.999023438 c 1
 367.99609375 567.999023438 l 1
 368.663085938 588.666015625 359.330078125 595.999023438 339.997070312 589.999023438 c 1
 241.997070312 583.999023438 l 2
 230.6640625 583.33203125 222.831054688 580.33203125 218.498046875 574.999023438 c 0
 214.165039062 569.666015625 210.665039062 557.333007812 207.998046875 538 c 0
 196.665039062 492 200.498046875 459.5 219.498046875 440.5 c 0
 238.498046875 421.5 272.998046875 396.333007812 322.998046875 365 c 0
 402.331054688 315 441.998046875 263.333007812 441.998046875 210 c 0xe8
 441.998046875 126.666992188 432.998046875 77 414.998046875 61 c 0
 396.998046875 45 373.998046875 35.3330078125 345.998046875 32 c 1
 369.998046875 6.6669921875 381.998046875 -36.666015625 381.998046875 -97.9990234375 c 2
 381.998046875 -140.999023438 l 2
 381.998046875 -197.666015625 350.665039062 -228.333007812 287.998046875 -233 c 0
 256.665039062 -235 231.83203125 -236.666992188 213.499023438 -238 c 0
 195.166015625 -239.333007812 182.666015625 -240 175.999023438 -240 c 0
 113.764648438 -240 79.09765625 -201.666992188 71.9990234375 -125 c 1
 163.999023438 -116 l 1
 163.999023438 -126 165.999023438 -132.833007812 169.999023438 -136.5 c 0
 173.999023438 -140.166992188 189.83203125 -142 217.499023438 -142 c 0
 245.166015625 -142 260.333007812 -138.666992188 263 -132 c 0
 267 -125.333007812 269 -113.5 269 -96.5 c 0
 269 -68.1669921875 268.333007812 -46.5 267 -31.5 c 0
 265.666992188 -16.5 260 -5.3330078125 250 2 c 0
 241.063476562 9.8203125 210.063476562 30.4873046875 157 64.0009765625 c 0
 85.6669921875 108.000976562 48.6669921875 153.000976562 46 199.000976562 c 0
 43.3330078125 233.66796875 42 268.000976562 42 302.000976562 c 0
 42 336.000976562 52.3330078125 360.16796875 73 374.500976562 c 0
 93.6669921875 388.833984375 128 398.666992188 176 404 c 1xf0
229.997070312 333.998046875 m 2
 172.998046875 324.999023438 l 2
 155.665039062 321.666015625 146.998046875 309.999023438 146.998046875 289.999023438 c 0
 146.998046875 244.33203125 147.831054688 216.249023438 149.498046875 205.749023438 c 0
 151.165039062 195.249023438 153.498046875 186.499023438 156.498046875 179.499023438 c 0
 159.498046875 172.499023438 163.331054688 166.33203125 167.998046875 160.999023438 c 0
 178.647460938 148.828125 197.98046875 133.828125 225.998046875 115.999023438 c 1
 267.940429688 111.064453125 294.092773438 109.831054688 304.455078125 112.297851562 c 0
 314.817382812 114.764648438 321.165039062 117.998046875 323.498046875 121.998046875 c 0
 325.831054688 125.998046875 326.998046875 131.498046875 326.998046875 138.498046875 c 0
 326.998046875 145.498046875 327.831054688 153.498046875 329.498046875 162.498046875 c 0
 331.165039062 171.498046875 332.498046875 180.831054688 333.498046875 190.498046875 c 0
 335.962890625 214.327148438 333.49609375 232.701171875 326.096679688 245.620117188 c 0
 318.697265625 258.5390625 301.1640625 276.498046875 273.497070312 299.498046875 c 0
 245.830078125 322.498046875 231.330078125 333.998046875 229.997070312 333.998046875 c 2
EndSplineSet
EndChar

StartChar: dieresis
Encoding: 168 168 107
Width: 428
GlyphClass: 2
Flags: MW
HStem: 546 154<106 145.333 91.6665 145.667 336 375.333>
VStem: 38 161<611 648.667> 268 161<611 648.667>
LayerCount: 2
Fore
SplineSet
268 623 m 0
 268 674.333007812 294.833007812 700 348.5 700 c 0
 402.166992188 700 429 674.333007812 429 623 c 0
 429 571.666992188 402.333007812 546 349 546 c 0
 323 546 303 552.833007812 289 566.5 c 0
 275 580.166992188 268 599 268 623 c 0
38 623 m 0
 38 674.333007812 64.8330078125 700 118.5 700 c 0
 172.166992188 700 199 674.333007812 199 623 c 0
 199 571.666992188 172.333007812 546 119 546 c 0
 93 546 73 552.833007812 59 566.5 c 0
 45 580.166992188 38 599 38 623 c 0
EndSplineSet
EndChar

StartChar: copyright
Encoding: 169 169 108
Width: 805
GlyphClass: 2
Flags: MW
HStem: -121 104<347.999 461.666 347.999 513.667> 20 111 131 33 321 140<434.999 451.998 451.998 468.588 348.998 557.999 434.999 434.999> 349 112<375.666 379.999 379.999 426.999> 502 101<346.999 438.999>
VStem: 21 105.5 247 120 435 123
LayerCount: 2
Fore
SplineSet
394 603 m 0x8780
 692 603 827.666015625 482 800.999023438 240 c 0
 773.666015625 -0.6669921875 636.833007812 -121 390.5 -121 c 0
 144.166992188 -121 21 -0.6669921875 21 240 c 0
 21 360 52.1669921875 450.5 114.5 511.5 c 0
 176.833007812 572.5 270 603 394 603 c 0x8780
639.999023438 126 m 0
 649.999023438 160 654.999023438 198.333007812 654.999023438 241 c 0
 654.999023438 329 634.33203125 394.5 592.999023438 437.5 c 0
 551.666015625 480.5 484.999023438 502 392.999023438 502 c 0
 300.999023438 502 233.499023438 481 190.499023438 439 c 0
 147.499023438 397 126.166015625 331.333007812 126.499023438 242 c 0
 126.83203125 152.666992188 148.499023438 87.1669921875 191.499023438 45.5 c 0
 234.499023438 3.8330078125 301.999023438 -17 393.999023438 -17 c 0
 529.33203125 -17 611.33203125 30.6669921875 639.999023438 126 c 0
379.999023438 131 m 2xcf80
 424.999023438 131.000976562 l 2xcf80
 436.33203125 131.000976562 439.665039062 139.000976562 434.998046875 155.000976562 c 1
 434.998046875 164.000976562 l 1
 557.998046875 164.000976562 l 1xa780
 556.665039062 98.66796875 537.665039062 55.0009765625 500.998046875 33.0009765625 c 0
 490.331054688 24.333984375 473.998046875 20.0009765625 451.998046875 20.0009765625 c 2
 353.998046875 20.0009765625 l 2
 324.264648438 20.0009765625 298.764648438 31.0009765625 277.498046875 53.0009765625 c 0
 257.165039062 74.03515625 246.998046875 99.03515625 246.998046875 128.000976562 c 2
 246.998046875 355.000976562 l 2
 246.998046875 384.259765625 256.498046875 409.092773438 275.498046875 429.5 c 0
 295.049804688 450.5 319.549804688 461 348.998046875 461 c 2xcf80
 451.998046875 461 l 2
 485.177734375 461 511.344726562 447.166992188 530.499023438 419.5 c 0
 548.83203125 393.018554688 557.999023438 360.185546875 557.999023438 321 c 1
 434.999023438 321 l 1x9780
 434.999023438 328 l 2
 434.999023438 342 432.33203125 349 426.999023438 349 c 2
 379.999023438 349 l 2
 371.33203125 349 366.999023438 340.666992188 366.999023438 324 c 2
 366.999023438 153 l 2
 366.999023438 138.333007812 371.33203125 131 379.999023438 131 c 2xcf80
EndSplineSet
EndChar

StartChar: ordfeminine
Encoding: 170 170 109
Width: 254
GlyphClass: 2
Flags: MW
HStem: 390 69 510 69.5 597 82 609 70
VStem: 41 77 177 77
LayerCount: 2
Fore
SplineSet
168 609 m 2xdc
 128.999023438 609.000976562 l 2xdc
 123.666015625 609.000976562 120.999023438 605.000976562 120.999023438 597.000976562 c 1
 43.9990234375 597.000976562 l 1
 45.33203125 635.000976562 57.9990234375 660.333984375 81.9990234375 673.000976562 c 0
 89.9990234375 677.000976562 100.33203125 679.000976562 112.999023438 679.000976562 c 2xec
 188.999023438 679.000976562 l 2
 207.666015625 679.000976562 223.166015625 672.500976562 235.499023438 659.500976562 c 0
 247.83203125 646.500976562 253.999023438 630.333984375 253.999023438 611.000976562 c 2
 253.999023438 391.000976562 l 1
 183.999023438 391.000976562 l 1
 183.999023438 410.000976562 l 1
 165.999023438 390.000976562 l 1
 115.999023438 390.000976562 l 2
 96.666015625 390.000976562 79.3330078125 396.333984375 64 409.000976562 c 0
 48.6669921875 421.66796875 41 438.000976562 41 458.000976562 c 2
 41 512.000976562 l 2
 41 530.66796875 48.5 546.500976562 63.5 559.500976562 c 0
 78.5 572.500976562 89.6669921875 579.000976562 97 579.000976562 c 0
 104.333007812 579.000976562 111.5 579.16796875 118.5 579.500976562 c 0
 125.5 579.833984375 132.666992188 580.166992188 140 580.5 c 0
 157.177734375 581.28125 170.177734375 579.78125 179 576 c 1
 179 599 l 2
 179 605.666992188 175.333007812 609 168 609 c 2xdc
128.999023438 459.000976562 m 2
 165.999023438 459.000976562 l 2
 173.999023438 459.000976562 177.666015625 463.000976562 176.999023438 471.000976562 c 2
 176.999023438 497.000976562 l 2
 176.999023438 505.66796875 173.33203125 510.000976562 165.999023438 510.000976562 c 2
 128.999023438 510.000976562 l 2
 121.666015625 510.000976562 117.999023438 505.66796875 117.999023438 497.000976562 c 2
 117.999023438 471.000976562 l 2
 117.999023438 463.000976562 121.666015625 459.000976562 128.999023438 459.000976562 c 2
EndSplineSet
EndChar

StartChar: guillemotleft
Encoding: 171 171 110
Width: 329
GlyphClass: 2
Flags: MW
HStem: 0 21G<166 211 166 166 283 328 283 283>
VStem: 42 286<0 256>
LayerCount: 2
Fore
SplineSet
283 515 m 1
 328 515 l 1
 250 256 l 1
 328 0 l 1
 283 0 l 1
 158 256 l 1
 283 515 l 1
166 515 m 1
 211 515 l 1
 134 256 l 1
 211 0 l 1
 166 0 l 1
 42 256 l 1
 166 515 l 1
EndSplineSet
EndChar

StartChar: logicalnot
Encoding: 172 172 111
Width: 474
GlyphClass: 2
Flags: MW
HStem: 341 104<43 352 43 426>
VStem: 352 123<211 341 341 341>
LayerCount: 2
Fore
SplineSet
475 384 m 2
 475 211 l 1
 352 211 l 1
 352 341 l 1
 43 341 l 1
 43 445 l 1
 426 445 l 2
 441.333007812 445 453.333007812 439.5 462 428.5 c 0
 470.666992188 417.5 475 402.666992188 475 384 c 2
EndSplineSet
EndChar

StartChar: uni00AD
Encoding: 173 173 112
Width: 412
GlyphClass: 2
Flags: MW
HStem: 160 94<44 411 44 411>
LayerCount: 2
Fore
SplineSet
44 160 m 1
 44 254 l 1
 411 254 l 1
 411 160 l 1
 44 160 l 1
EndSplineSet
EndChar

StartChar: registered
Encoding: 174 174 113
Width: 751
GlyphClass: 2
Flags: MW
HStem: -121 104<360.333 471.333 360.333 524.334> 379 92 502 101
VStem: 39 105 266 105 448 102 662 105
LayerCount: 2
Fore
SplineSet
405 603 m 0
 646.333007812 603 767.000976562 482.333007812 767.000976562 241 c 0
 767.000976562 -0.3330078125 645.66796875 -121 403.000976562 -121 c 0
 160.333984375 -121 39.0009765625 -0.6669921875 39.0009765625 240 c 0
 39.0009765625 360 69.66796875 450.5 131.000976562 511.5 c 0
 192.333984375 572.5 283.666992188 603 405 603 c 0
662.000976562 241 m 0
 662.000976562 328.333007812 641.333984375 393.666015625 600.000976562 436.999023438 c 0
 558.66796875 480.33203125 493.500976562 501.999023438 404.500976562 501.999023438 c 0
 315.500976562 501.999023438 249.66796875 480.666015625 207.000976562 437.999023438 c 0
 165.000976562 394.666015625 144.000976562 328.833007812 144.000976562 240.5 c 0
 144.000976562 152.166992188 165.16796875 87.1669921875 207.500976562 45.5 c 0
 249.833984375 3.8330078125 315.666992188 -17 405 -17 c 0
 537.666992188 -17 618.333984375 30.6669921875 647.000976562 126 c 0
 657.000976562 160 662.000976562 198.333007812 662.000976562 241 c 0
476.000976562 191 m 1
 567.000976562 22.001953125 l 1
 469.000976562 22.001953125 l 1
 392.000976562 190.001953125 l 1
 371.000976562 190.001953125 l 1
 371.000976562 22.001953125 l 1
 266.000976562 22.001953125 l 1
 266.000976562 471.001953125 l 1
 452.000976562 471.001953125 l 2
 478.975585938 471.001953125 501.80859375 462.001953125 520.500976562 444.001953125 c 0
 540.16796875 425.063476562 550.000976562 403.063476562 550.000976562 378.001953125 c 2
 550.000976562 273.001953125 l 2
 550.000976562 252.334960938 543.500976562 234.66796875 530.500976562 220.000976562 c 0
 517.500976562 205.333984375 499.333984375 195.666992188 476.000976562 191 c 1
395.000976562 379.001953125 m 2
 371 379.001953125 l 1
 371 283.001953125 l 1
 441 283.001953125 l 2
 445 283.001953125 447.333007812 286.334960938 448 293.001953125 c 2
 448 318.001953125 l 2
 448 333.334960938 448.166992188 345.501953125 448.5 354.501953125 c 0
 448.833007812 363.501953125 447.333007812 369.501953125 444 372.501953125 c 0
 440.103515625 376.008789062 434.962890625 378.301757812 428.578125 379.381835938 c 0
 422.193359375 380.461914062 417.500976562 380.668945312 414.500976562 380.001953125 c 0
 411.500976562 379.334960938 405.000976562 379.001953125 395.000976562 379.001953125 c 2
EndSplineSet
EndChar

StartChar: macron
Encoding: 175 175 114
Width: 362
GlyphClass: 2
Flags: MW
HStem: 629 62<44 366 44 366>
VStem: 44 322<629 691 629 691>
LayerCount: 2
Fore
SplineSet
44 629 m 1
 44 691 l 1
 366 691 l 1
 366 629 l 1
 44 629 l 1
EndSplineSet
EndChar

StartChar: degree
Encoding: 176 176 115
Width: 259
GlyphClass: 2
Flags: MW
HStem: 438 59 625 62
VStem: 42 80<565.333 569.001 531.667 592.667> 178 81<542.001 567 537.417 579.001 537.417 594.334>
LayerCount: 2
Fore
SplineSet
153 438 m 0
 91.6669921875 438 56 463.66796875 46 515.000976562 c 0
 43.3330078125 530.333984375 42 551.666992188 42 579 c 0
 42 606.333007812 47.3330078125 628 58 644 c 0
 78 672.666992188 109.666992188 687 153 687 c 0
 214.333007812 687 249 661.333007812 257 610 c 0
 258.333007812 595.333007812 259 577.5 259 556.5 c 0
 259 518.333007812 254.333007812 492.833007812 245 480 c 0
 227.666992188 452 197 438 153 438 c 0
152 497.000976562 m 0
 169.333007812 497.000976562 178 512.000976562 178 542.000976562 c 2
 178 579.000976562 l 2
 178 609.66796875 169.333007812 625.000976562 152 625.000976562 c 0
 132 625.000976562 122 606.333984375 122 569.000976562 c 2
 122 549.000976562 l 2
 122 514.333984375 132 497.000976562 152 497.000976562 c 0
EndSplineSet
EndChar

StartChar: plusminus
Encoding: 177 177 116
Width: 457
GlyphClass: 2
Flags: MW
HStem: 46 105<51 447 51 447> 285 105<51 188 51 188 311 447>
VStem: 188 123<162 285 162 285 390 557>
LayerCount: 2
Fore
SplineSet
311 557 m 1
 311 390 l 1
 447 390 l 1
 447 285 l 1
 311 285 l 1
 311 162 l 1
 188 162 l 1
 188 285 l 1
 51 285 l 1
 51 390 l 1
 188 390 l 1
 188 557 l 1
 311 557 l 1
51 46 m 1
 51 151 l 1
 447 151 l 1
 447 46 l 1
 51 46 l 1
EndSplineSet
EndChar

StartChar: ntilde
Encoding: 241 241 128
Width: 406
GlyphClass: 2
Flags: MW
HStem: 1 21G<41.998 41.998 41.998 156.998 290.999 290.999 290.999 405.999> 422 92<41.999 190.999 204.999 253.999> 571 73<178.999 190.932> 613 20G<338.998 338.998>
VStem: 42 115 291 115
LayerCount: 2
Fore
SplineSet
277 595 m 0xec
 305 595 325.665039062 607.666992188 338.998046875 633 c 1xdc
 362.998046875 608 l 1
 358.998046875 589.333007812 351.331054688 574.5 339.998046875 563.5 c 0
 328.665039062 552.5 316.998046875 545.333007812 304.998046875 542 c 0
 276.998046875 536 257.665039062 536.666992188 246.998046875 544 c 0
 244.998046875 544.666992188 241.665039062 546.5 236.998046875 549.5 c 0
 232.331054688 552.5 227.331054688 555.666992188 221.998046875 559 c 0
 209.198242188 567 196.865234375 571 184.999023438 571 c 0
 172.999023438 571 161.166015625 568 149.499023438 562 c 0
 137.83203125 556 128.999023438 548.666992188 122.999023438 540 c 1
 100.999023438 553 l 1
 100.999023438 574.333007812 108.83203125 594.833007812 124.499023438 614.5 c 0
 140.166015625 634.166992188 157.333007812 644 176 644 c 2
 200 644 l 2
 209.333007812 644 219 638.833007812 229 628.5 c 0
 239 618.166992188 247 610 253 604 c 0
 259 598 267 595 277 595 c 0xec
41.998046875 1 m 1
 41.9990234375 514 l 1
 143.999023438 514 l 1
 143.999023438 478 l 1
 164.666015625 502 184.999023438 514 204.999023438 514 c 2
 294.999023438 514 l 2
 325.96484375 514 351.96484375 503.833007812 372.999023438 483.5 c 0
 394.999023438 462.233398438 405.999023438 436.06640625 405.999023438 405 c 2
 405.999023438 1 l 1
 290.999023438 1 l 1
 290.999023438 376 l 2
 290.999023438 389.333007812 287.83203125 400.333007812 281.499023438 409 c 0
 275.166015625 417.666992188 265.999023438 422 253.999023438 422 c 2
 190.999023438 422 l 2
 174.999023438 422 164.33203125 409.333007812 158.999023438 384 c 0
 156.33203125 375.333007812 155.665039062 369 156.998046875 365 c 2
 156.998046875 1 l 1
 41.998046875 1 l 1
EndSplineSet
EndChar

StartChar: OE
Encoding: 338 338 129
Width: 587
GlyphClass: 2
Flags: MW
HStem: 0 97 295 97 577 98
VStem: 38 109 287 109
LayerCount: 2
Fore
SplineSet
391 675 m 2
 589.000976562 674.998046875 l 1
 589.000976562 576.998046875 l 1
 425.000976562 576.998046875 l 2
 394.333984375 576.998046875 384.666992188 563.331054688 396 535.998046875 c 1
 396 391.998046875 l 1
 573 391.998046875 l 1
 573 294.998046875 l 1
 396 294.998046875 l 1
 396 136.998046875 l 2
 396 118.998046875 401 106.998046875 411 100.998046875 c 0
 414.333007812 98.3310546875 419 96.998046875 425 96.998046875 c 2
 589 96.998046875 l 1
 589 -0.001953125 l 1
 405 -0.001953125 l 2
 379 -0.001953125 356 11.3310546875 336 33.998046875 c 1
 314 11.3310546875 288.666992188 -0.001953125 260 -0.001953125 c 2
 165 -0.001953125 l 2
 126.333007812 -0.001953125 95.5 12.998046875 72.5 38.998046875 c 0
 49.5 64.998046875 38 95.998046875 38 131.998046875 c 2
 38 542.998046875 l 2
 38 579.665039062 49.6669921875 610.83203125 73 636.499023438 c 0
 96.3330078125 662.166015625 127 674.999023438 165 674.999023438 c 2
 270 674.999023438 l 2
 298.666992188 674.999023438 320.666992188 658.999023438 336 626.999023438 c 1
 344 643.666015625 351.833007812 655.833007812 359.5 663.5 c 0
 367.166992188 671.166992188 377.666992188 675 391 675 c 2
147.000976562 160.998046875 m 2
 147.000976562 123.931640625 159.333984375 102.932617188 184.000976562 97.9990234375 c 1
 248.000976562 97.9990234375 l 2
 260.000976562 97.9990234375 269.500976562 104.666015625 276.500976562 117.999023438 c 0
 283.500976562 131.33203125 287.000976562 145.665039062 287.000976562 160.998046875 c 2
 287.000976562 513.998046875 l 2
 287.000976562 539.331054688 280.000976562 557.998046875 266.000976562 569.998046875 c 0
 261.333984375 574.665039062 255.333984375 576.998046875 248.000976562 576.998046875 c 2
 184.000976562 576.998046875 l 2
 172.66796875 576.998046875 163.66796875 570.498046875 157.000976562 557.498046875 c 0
 150.333984375 544.498046875 147.000976562 529.998046875 147.000976562 513.998046875 c 2
 147.000976562 160.998046875 l 2
EndSplineSet
EndChar

StartChar: oe
Encoding: 339 339 130
Width: 568
GlyphClass: 2
Flags: MW
HStem: 0 94 210 92 420 97
VStem: 41 102 244 104 467 101
LayerCount: 2
Fore
SplineSet
378 94 m 2
 437.002929688 94.001953125 l 2
 467.002929688 94.001953125 476.669921875 105.001953125 466.002929688 127.001953125 c 1
 570.002929688 127.001953125 l 1
 569.3359375 71.001953125 550.3359375 32.3349609375 513.002929688 11.001953125 c 0
 500.3359375 3.6689453125 485.668945312 0.001953125 469.001953125 0.001953125 c 2
 353.001953125 0.001953125 l 2
 329.001953125 0.001953125 308.334960938 9.6689453125 291.001953125 29.001953125 c 1
 271.001953125 11.6689453125 248.334960938 3.001953125 223.001953125 3.001953125 c 2
 159.001953125 3.001953125 l 2
 126.840820312 3.001953125 99.173828125 13.501953125 76.0009765625 34.501953125 c 0
 52.66796875 55.6474609375 41.0009765625 81.48046875 41.0009765625 112.000976562 c 2
 41.0009765625 407.000976562 l 2
 41.0009765625 437.000976562 52.66796875 462.66796875 76.0009765625 484.000976562 c 0
 100.66796875 505.333984375 128.334960938 516.000976562 159.001953125 516.000976562 c 2
 239.001953125 516.000976562 l 2
 258.334960938 516.000976562 275.001953125 503.333984375 289.001953125 478.000976562 c 1
 297.668945312 504.000976562 312.001953125 517.000976562 332.001953125 517.000976562 c 2
 473.001953125 517.000976562 l 2
 501.668945312 517.000976562 524.668945312 504.333984375 542.001953125 479.000976562 c 0
 559.334960938 453.66796875 568.001953125 425.66796875 568.001953125 395.000976562 c 2
 568.001953125 324.000976562 l 2
 568.001953125 293.333984375 563.001953125 270.666992188 553.001953125 256 c 0
 534.334960938 225.333007812 510.66796875 210 482.000976562 210 c 2
 348.000976562 210 l 1
 348.000976562 116 l 2
 348.000976562 109.333007812 351.16796875 104 357.500976562 100 c 0
 363.833984375 96 370.666992188 94 378 94 c 2
467.002929688 339.001953125 m 2
 467.00390625 385.000976562 l 2
 467.00390625 408.333984375 455.336914062 420.000976562 432.00390625 420.000976562 c 2
 378.00390625 420.000976562 l 2
 367.336914062 420.000976562 359.669921875 416.833984375 355.002929688 410.500976562 c 0
 350.3359375 404.16796875 348.002929688 399.334960938 348.002929688 396.001953125 c 2
 348.002929688 302.001953125 l 1
 432.002929688 302.001953125 l 2
 442.669921875 302.001953125 451.169921875 305.168945312 457.502929688 311.501953125 c 0
 463.8359375 317.834960938 467.002929688 327.001953125 467.002929688 339.001953125 c 2
243.00390625 123.000976562 m 0
 243.670898438 126.333984375 244.00390625 129.666992188 244.00390625 133 c 2
 244.00390625 379 l 2
 244.00390625 399 237.670898438 412.333007812 225.00390625 419 c 0
 222.336914062 421.666992188 218.00390625 423 212.00390625 423 c 2
 175.00390625 423 l 2
 153.670898438 423 143.00390625 408.333007812 143.00390625 379 c 2
 143.00390625 139 l 2
 143.00390625 119.666992188 148.670898438 106.333984375 160.00390625 99.0009765625 c 0
 164.00390625 94.333984375 169.00390625 93.0009765625 175.00390625 95.0009765625 c 2
 212.00390625 95.0009765625 l 2
 228.00390625 95.0009765625 238.336914062 104.333984375 243.00390625 123.000976562 c 0
EndSplineSet
EndChar

StartChar: circumflex
Encoding: 710 710 131
Width: 293
GlyphClass: 2
Flags: MW
HStem: 700 210<37 201 37 201 129 244 129 294>
VStem: 37 257<700 700>
LayerCount: 2
Fore
SplineSet
37 700 m 1
 129 910 l 1
 201 910 l 1
 294 700 l 1
 244 700 l 1
 165 806 l 1
 91 700 l 1
 37 700 l 1
EndSplineSet
EndChar

StartChar: ring
Encoding: 730 730 132
Width: 222
GlyphClass: 2
Flags: MW
HStem: 902 37 1046 37
VStem: 52 39<977.333 1006.67> 181 39<978.001 1007 978.001 1010.33>
LayerCount: 2
Fore
SplineSet
52 992 m 0
 52 1021.33300781 59.3330078125 1043.83398438 74 1059.50097656 c 0
 88.6669921875 1075.16796875 109.5 1083.00097656 136.5 1083.00097656 c 0
 163.5 1083.00097656 184.166992188 1075.16796875 198.5 1059.50097656 c 0
 212.833007812 1043.83398438 220 1021.50097656 220 992.500976562 c 0
 220 963.500976562 212.833007812 941.16796875 198.5 925.500976562 c 0
 184.166992188 909.833984375 163.666992188 902.000976562 137 902.000976562 c 0
 110.333007812 902.000976562 89.3330078125 909.66796875 74 925.000976562 c 0
 59.3330078125 940.333984375 52 962.666992188 52 992 c 0
136 939.000976562 m 0
 166 939.000976562 181 956.833984375 181 992.500976562 c 0
 181 1028.16796875 166 1046.00097656 136 1046.00097656 c 0
 106 1046.00097656 91 1028.16796875 91 992.500976562 c 0
 91 956.833984375 106 939.000976562 136 939.000976562 c 0
EndSplineSet
EndChar

StartChar: tilde
Encoding: 732 732 133
Width: 498
GlyphClass: 2
Flags: MW
HStem: 1078 130<362.667 386.333> 1167 143<178.333 206.333>
LayerCount: 2
Fore
SplineSet
474 1293 m 1x80
 496 1233 l 1
 464.666992188 1129.66699219 417.666992188 1078 355 1078 c 0x80
 337.666992188 1078 316.666992188 1088.66699219 292 1110 c 0
 250 1148 217.666992188 1167 195 1167 c 0
 155.666992188 1167 121.333984375 1133.33300781 92.0009765625 1066 c 1
 62.0009765625 1113 l 1
 66.66796875 1169 82.16796875 1215.83300781 108.500976562 1253.5 c 0
 134.833984375 1291.16699219 163.166992188 1310 193.5 1310 c 0x40
 223.833007812 1310 255.5 1293 288.5 1259 c 0
 321.5 1225 350.333007812 1208 375 1208 c 0
 415 1208 448 1236.33300781 474 1293 c 1x80
EndSplineSet
EndChar

StartChar: anusvara
Encoding: 3330 3330 134
Width: 311
GlyphClass: 2
Flags: MW
HStem: -18 77<162.333 183.667 162.333 220> 197 85<162.333 183.667>
VStem: 34 84<119 138 119 179.333> 228 84<119 139>
LayerCount: 2
Fore
SplineSet
173 282 m 0
 265.666992188 282 312 232 312 132 c 0
 312 32 266 -18 174 -18 c 0
 124 -18 88.1669921875 -5.8330078125 66.5 18.5 c 0
 44.8330078125 42.8330078125 34 79.3330078125 34 128 c 0
 34 230.666992188 80.3330078125 282 173 282 c 0
228 129 m 0
 228 149 224.166992188 165.333007812 216.5 178 c 0
 208.833007812 190.666992188 194.333007812 197 173 197 c 0
 151.666992188 197 137.166992188 190.333007812 129.5 177 c 0
 121.833007812 163.666992188 118 147.5 118 128.5 c 0
 118 109.5 121.833007812 93.1669921875 129.5 79.5 c 0
 137.166992188 65.8330078125 151.666992188 59 173 59 c 0
 194.333007812 59 208.833007812 65.6669921875 216.5 79 c 0
 224.166992188 92.3330078125 228 109 228 129 c 0
EndSplineSet
EndChar

StartChar: visarga
Encoding: 3331 3331 135
Width: 211
GlyphClass: 2
Flags: MW
HStem: 1 64<117 132.667 117 137.667> 123 59<117.333 132.667> 231 64<117 132.667 117 137.667> 353 59<117.333 132.667>
VStem: 37 60<90.6665 100.333 90.6665 103.667 320.667 330.333> 152 59<84.3335 103.667 314.333 333.667>
LayerCount: 2
Fore
SplineSet
211 91 m 0
 211 63 203.5 41 188.5 25 c 0
 173.5 9 151.833007812 1 123.5 1 c 0
 95.1669921875 1 73.6669921875 9 59 25 c 0
 44.3330078125 41 37 62.6669921875 37 90 c 0
 37 117.333007812 44.3330078125 139.5 59 156.5 c 0
 73.6669921875 173.5 95 182 123 182 c 0
 151 182 172.666992188 173.833007812 188 157.5 c 0
 203.333007812 141.166992188 211 119 211 91 c 0
123 123 m 0
 111.666992188 123 104.5 120.833007812 101.5 116.5 c 0
 98.5 112.166992188 97 105.166992188 97 95.5 c 0
 97 85.8330078125 98.3330078125 78.3330078125 101 73 c 0
 103.666992188 67.6669921875 111 65 123 65 c 0
 142.333007812 65 152 74.6669921875 152 94 c 0
 152 113.333007812 142.333007812 123 123 123 c 0
211 321 m 0
 211 293 203.5 271 188.5 255 c 0
 173.5 239 151.833007812 231 123.5 231 c 0
 95.1669921875 231 73.6669921875 239 59 255 c 0
 44.3330078125 271 37 292.666992188 37 320 c 0
 37 347.333007812 44.3330078125 369.5 59 386.5 c 0
 73.6669921875 403.5 95 412 123 412 c 0
 151 412 172.666992188 403.833007812 188 387.5 c 0
 203.333007812 371.166992188 211 349 211 321 c 0
123 353 m 0
 111.666992188 353 104.5 350.833007812 101.5 346.5 c 0
 98.5 342.166992188 97 335.166992188 97 325.5 c 0
 97 315.833007812 98.3330078125 308.333007812 101 303 c 0
 103.666992188 297.666992188 111 295 123 295 c 0
 142.333007812 295 152 304.666992188 152 324 c 0
 152 343.333007812 142.333007812 353 123 353 c 0
EndSplineSet
EndChar

StartChar: ml_a
Encoding: 3333 3333 136
Width: 972
GlyphClass: 2
Flags: MW
HStem: -8 70 0 21G 175 71 283 76 392 79 408 63
VStem: 41 80<199.334 248.138 199.334 281.752> 195 77 392 91 537 91 673 82 890 80
LayerCount: 2
Fore
SplineSet
159 452.5 m 0xb7f0
 186.333007812 464.833007812 216.27734375 470.999023438 248.830078125 470.999023438 c 0xbbf0
 281.3828125 470.999023438 312.462890625 466.100585938 342.069335938 456.303710938 c 1
 369.512695312 466.100585938 399.028320312 470.999023438 430.6171875 470.999023438 c 0x37f0
 462.206054688 470.999023438 489.666992188 467.666015625 513 460.999023438 c 0
 536.333007812 454.33203125 560.333007812 441.999023438 585 423.999023438 c 1
 611 443.33203125 636.5 455.999023438 661.5 461.999023438 c 0
 686.5 467.999023438 717 470.999023438 753 470.999023438 c 0
 789 470.999023438 821.333007812 464.166015625 850 450.499023438 c 0
 878.666992188 436.83203125 902 417.665039062 920 392.998046875 c 0
 953.333007812 347.319335938 970 281.65234375 970 195.998046875 c 0
 970 102.162109375 945.166992188 39.9951171875 895.5 9.498046875 c 0
 876.5 -2.1689453125 853.333007812 -8.001953125 826 -8.001953125 c 0xbbf0
 798.666992188 -8.001953125 775.666992188 -3.501953125 757 5.498046875 c 0
 738.333007812 14.498046875 722.833007812 26.8310546875 710.5 42.498046875 c 0
 685.5 74.2548828125 673 115.754882812 673 166.998046875 c 0
 673 217.85546875 684.5 261.35546875 707.5 297.498046875 c 0
 733.590820312 338.498046875 770.090820312 358.998046875 817 358.998046875 c 0
 829.666992188 358.998046875 840.333984375 357.665039062 849.000976562 354.998046875 c 1
 824.333984375 379.665039062 788.333984375 391.998046875 741.000976562 391.998046875 c 0
 707.66796875 391.998046875 680.500976562 383.331054688 659.500976562 365.998046875 c 0
 638.500976562 348.665039062 628.000976562 321.998046875 628.000976562 285.998046875 c 2
 628.000976562 -0.001953125 l 1
 537.000976562 -0.001953125 l 1x7bf0
 537.000976562 286.998046875 l 2
 537.000976562 324.998046875 528.16796875 354.665039062 510.500976562 375.998046875 c 0
 492.833984375 397.331054688 467.000976562 407.998046875 433.000976562 407.998046875 c 0
 431.1796875 407.998046875 429.375 407.9765625 427.586914062 407.93359375 c 1
 460.529296875 377.848632812 477 342.772460938 477 302.706054688 c 0
 477 262.639648438 458.666992188 235.404296875 422 221 c 1
 462.666992188 203.571289062 483 168.23828125 483 115 c 0
 483 78.111328125 470 48.111328125 444 25 c 0
 419.25 3 390.0625 -8 356.4375 -8 c 0
 322.8125 -8 295.666992188 -2.3330078125 275 9 c 0
 254.333007812 20.3330078125 238 35.5 226 54.5 c 0
 205.333007812 87.22265625 195 136.389648438 195 202.000976562 c 0
 195 286.909179688 215.415039062 352.525390625 256.245117188 398.850585938 c 1
 211.317382812 397.086914062 177.235351562 379.803710938 154 347.000976562 c 0
 132 315.942382812 121 274.275390625 121 222.000976562 c 0
 121 176.66796875 124.166992188 144.500976562 130.5 125.500976562 c 0
 136.833007812 106.500976562 144.833007812 91.16796875 154.5 79.5009765625 c 0
 164.166992188 67.833984375 177.333984375 58.6669921875 194.000976562 52 c 1
 197.000976562 52 l 1
 185.000976562 -8 l 1
 182.000976562 -8 l 2
 131.247070312 -8 93.580078125 18.5 69 71.5 c 0
 50.3330078125 111.75 41 162.25 41 223 c 0
 41 340.50390625 80.3330078125 417.00390625 159 452.5 c 0xb7f0
887.000976562 140.499023438 m 0
 889.000976562 154.166015625 889.998046875 172.1640625 889.998046875 194.497070312 c 0
 889.998046875 216.830078125 884.665039062 241.997070312 873.998046875 269.997070312 c 1
 857.998046875 278.6640625 842.331054688 282.997070312 826.998046875 282.997070312 c 0
 811.665039062 282.997070312 799.665039062 279.497070312 790.998046875 272.497070312 c 0
 782.331054688 265.497070312 775.331054688 256.6640625 769.998046875 245.997070312 c 0
 759.998046875 225.997070312 754.998046875 205.997070312 754.998046875 185.997070312 c 0
 754.998046875 165.997070312 756.165039062 149.330078125 758.498046875 135.997070312 c 0
 760.831054688 122.6640625 764.831054688 110.497070312 770.498046875 99.4970703125 c 0
 776.165039062 88.4970703125 783.33203125 79.4970703125 791.999023438 72.4970703125 c 0
 800.666015625 65.4970703125 811.333007812 61.9970703125 824 61.9970703125 c 0
 836.666992188 61.9970703125 847.333984375 65.830078125 856.000976562 73.4970703125 c 0
 864.66796875 81.1640625 871.500976562 90.8310546875 876.500976562 102.498046875 c 0
 881.500976562 114.165039062 885.000976562 126.83203125 887.000976562 140.499023438 c 0
310.998046875 245.997070312 m 1
 361.665039062 245.997070312 386.999023438 266.6640625 386.999023438 307.997070312 c 0
 386.999023438 337.124023438 371.041015625 360.828125 339.125 379.108398438 c 1
 294.374023438 345.25 271.999023438 287.212890625 271.999023438 204.997070312 c 0
 271.999023438 163.552734375 274.33203125 134.858398438 278.999023438 118.9140625 c 0
 288.93359375 84.9697265625 308.266601562 67.9970703125 336.998046875 67.9970703125 c 0
 349.665039062 67.9970703125 361.998046875 72.6640625 373.998046875 81.9970703125 c 0
 385.998046875 91.330078125 391.998046875 103.997070312 391.998046875 119.997070312 c 0
 391.998046875 158.6640625 371.998046875 177.997070312 331.998046875 177.997070312 c 1
 310.998046875 174.997070312 l 1
 310.998046875 245.997070312 l 1
EndSplineSet
EndChar

StartChar: ml_aa
Encoding: 3334 3334 137
Width: 1106
GlyphClass: 2
Flags: MW
HStem: -118 70 -6 69 0 21G 177 68 398 72
VStem: 41 80 195 77 392 91 539 91 679 85 1023 86
LayerCount: 2
Fore
SplineSet
452 471 m 0xbfe0
 509.282226562 471 554.278320312 456.336914062 586.99609375 427.00390625 c 1
 607.486328125 446.213867188 626.109375 457.849609375 642.864257812 461.911132812 c 0
 665.119140625 467.306640625 694.538085938 470.00390625 731.12109375 470.00390625 c 0
 767.704101562 470.00390625 800.829101562 461.336914062 830.49609375 444.00390625 c 0
 864.88671875 423.91015625 892.650390625 396.166015625 913.786132812 360.770507812 c 1
 1011.42871094 350.000976562 1072.16503906 299.245117188 1095.99609375 208.502929688 c 0
 1104.66308594 175.502929688 1108.99609375 138.002929688 1108.99609375 96.0029296875 c 0
 1108.99609375 25.3359375 1088.16308594 -27.9970703125 1046.49609375 -63.9970703125 c 0
 1004.82910156 -99.9970703125 946.329101562 -117.997070312 870.99609375 -117.997070312 c 0
 846.99609375 -117.997070312 825.663085938 -115.1640625 806.99609375 -109.497070312 c 0
 788.329101562 -103.830078125 768.99609375 -92.9970703125 748.99609375 -76.9970703125 c 1
 773.99609375 -24.9970703125 l 1
 788.663085938 -34.9970703125 802.49609375 -41.330078125 815.49609375 -43.9970703125 c 0
 828.49609375 -46.6640625 844.329101562 -47.9970703125 862.99609375 -47.9970703125 c 0
 913.663085938 -47.9970703125 952.99609375 -35.330078125 980.99609375 -9.9970703125 c 0
 1008.99609375 15.3359375 1022.99609375 51.0029296875 1022.99609375 97.0029296875 c 0
 1022.99609375 154.819335938 1014.82910156 198.65234375 998.49609375 228.502929688 c 0
 986.084960938 251.186523438 969.133789062 267.510742188 947.643554688 277.4765625 c 1
 972.2734375 180.16015625 965.390625 103.8359375 926.99609375 48.5029296875 c 0
 901.78515625 12.169921875 866.118164062 -5.9970703125 819.99609375 -5.9970703125 c 0xdfe0
 773.017578125 -5.9970703125 737.350585938 10.8359375 712.99609375 44.5029296875 c 0
 690.329101562 75.8359375 678.99609375 116.3359375 678.99609375 166.002929688 c 0
 678.99609375 279.741210938 726.99609375 344.229492188 822.99609375 359.467773438 c 1
 799.255859375 385.158203125 770.821289062 398.00390625 737.69140625 398.00390625 c 0
 704.561523438 398.00390625 678.330078125 388.836914062 658.997070312 370.50390625 c 0
 639.6640625 352.170898438 629.997070312 326.00390625 629.997070312 292.00390625 c 2
 629.997070312 0.00390625 l 1
 538.997070312 0.00390625 l 1
 538.997070312 291.00390625 l 2
 538.997070312 327.00390625 531.497070312 354.50390625 516.497070312 373.50390625 c 0
 501.497070312 392.50390625 476.997070312 402.00390625 442.997070312 402.00390625 c 0
 439.625 402.00390625 436.298828125 401.927734375 433.018554688 401.775390625 c 1
 462.337890625 372.793945312 476.997070312 340.203125 476.997070312 304.00390625 c 0
 476.997070312 285.336914062 472.497070312 268.169921875 463.497070312 252.502929688 c 0
 454.497070312 236.8359375 440.6640625 226.002929688 421.997070312 220.002929688 c 1
 462.6640625 202.57421875 482.997070312 167.241210938 482.997070312 114.002929688 c 0
 482.997070312 76.05859375 469.997070312 45.8916015625 443.997070312 23.5029296875 c 0
 418.8359375 1.8359375 389.545898438 -8.9970703125 356.126953125 -8.9970703125 c 0
 322.708007812 -8.9970703125 295.665039062 -3.4970703125 274.998046875 7.5029296875 c 0
 254.331054688 18.5029296875 237.998046875 33.5029296875 225.998046875 52.5029296875 c 0
 205.331054688 85.2255859375 194.998046875 134.725585938 194.998046875 201.002929688 c 0
 194.998046875 281.708007812 219.112304688 347.360351562 267.341796875 397.959960938 c 1
 266.219726562 397.98828125 265.10546875 398.001953125 263.998046875 398.001953125 c 0
 215.220703125 398.001953125 178.553710938 380.668945312 153.998046875 346.001953125 c 0
 131.998046875 314.943359375 120.998046875 272.943359375 120.998046875 220.001953125 c 0
 120.998046875 175.157226562 124.165039062 143.446289062 130.498046875 124.868164062 c 0
 136.831054688 106.290039062 144.831054688 91.16796875 154.498046875 79.5009765625 c 0
 164.165039062 67.833984375 177.33203125 58.0009765625 193.999023438 50.0009765625 c 1
 196.999023438 50.0009765625 l 1
 184.999023438 -9.9990234375 l 1
 133.221679688 -9.9990234375 94.888671875 16.833984375 70 70.5009765625 c 0
 50.6669921875 112.188476562 41 156.52734375 41 203.516601562 c 0
 41 250.505859375 45.1669921875 289.333984375 53.5 320.000976562 c 0
 61.8330078125 350.66796875 74.8330078125 377.000976562 92.5 399.000976562 c 0
 130.509765625 446.333984375 185.342773438 470.000976562 256.999023438 470.000976562 c 0
 286.955078125 470.000976562 317.796875 464.240234375 349.525390625 452.71875 c 1
 380.40234375 464.90625 414.560546875 471 452 471 c 0xbfe0
331.99609375 177.00390625 m 1
 310.99609375 174.004882812 l 1
 310.99609375 245.004882812 l 1
 336.2265625 245.004882812 353.201171875 247.837890625 361.918945312 253.504882812 c 0
 378.63671875 264.37109375 386.99609375 279.837890625 386.99609375 299.904296875 c 0
 386.99609375 319.970703125 383.125 335.487304688 375.383789062 346.454101562 c 0
 367.642578125 357.420898438 358.280273438 366.600585938 347.297851562 373.993164062 c 1
 297.096679688 339.279296875 271.99609375 282.616210938 271.99609375 204.00390625 c 0
 271.99609375 163.336914062 274.329101562 134.836914062 278.99609375 118.50390625 c 0
 288.99609375 83.50390625 308.329101562 66.00390625 336.99609375 66.00390625 c 0
 350.329101562 66.00390625 362.829101562 70.8369140625 374.49609375 80.50390625 c 0
 386.163085938 90.1708984375 391.99609375 103.00390625 391.99609375 119.00390625 c 0
 391.99609375 157.670898438 371.99609375 177.00390625 331.99609375 177.00390625 c 1
863.859375 286.40625 m 1
 835.880859375 283.1328125 813.592773438 274.833984375 796.99609375 261.505859375 c 0
 774.99609375 243.838867188 763.99609375 211.671875 763.99609375 165.004882812 c 0
 763.99609375 118.823242188 772.329101562 88.15625 788.99609375 73.0048828125 c 0
 796.329101562 66.337890625 806.329101562 63.0048828125 818.99609375 63.0048828125 c 0
 831.663085938 63.0048828125 841.99609375 66.671875 849.99609375 74.0048828125 c 0
 857.99609375 81.337890625 864.163085938 90.6708984375 868.49609375 102.00390625 c 0
 876.163085938 122.055664062 879.99609375 145.235351562 879.99609375 171.54296875 c 0
 879.99609375 215.346679688 874.6171875 253.634765625 863.859375 286.40625 c 1
EndSplineSet
EndChar

StartChar: ml_i
Encoding: 3335 3335 138
Width: 737
GlyphClass: 2
Flags: MW
HStem: -170 77 -29 65 53 72 254 70 383 87
VStem: 61 88<-70.9102 -53.001 -70.9102 -44.6665> 252 97 375 101<66 286 66 303.333> 637 98<180.276 245.077>
LayerCount: 2
Fore
SplineSet
130.541015625 296.788085938 m 1
 153.1953125 314.928710938 182.768554688 323.998046875 219.260742188 323.998046875 c 0
 255.752929688 323.998046875 286.499023438 312.998046875 311.499023438 290.998046875 c 0
 336.499023438 268.998046875 348.999023438 236.998046875 348.999023438 194.998046875 c 0
 348.999023438 152.998046875 335.83203125 118.831054688 309.499023438 92.498046875 c 0
 283.166015625 66.1650390625 248.999023438 52.998046875 206.999023438 52.998046875 c 0
 151.041015625 52.998046875 108.541015625 69.998046875 79.4990234375 103.998046875 c 0
 53.166015625 134.827148438 39.9990234375 178.827148438 39.9990234375 235.998046875 c 0
 39.9990234375 312.665039062 59.9990234375 370.83203125 99.9990234375 410.499023438 c 0
 139.999023438 450.166015625 199.33203125 469.999023438 277.999023438 469.999023438 c 0
 314.532226562 469.999023438 339.999023438 467.999023438 354.399414062 463.999023438 c 0
 382.822265625 456.103515625 406.022460938 440.770507812 424 417.999023438 c 1
 446.564453125 449.2421875 474.564453125 465.909179688 508 467.999023438 c 0
 518.666992188 468.666015625 531 468.999023438 545 468.999023438 c 0
 614.387695312 468.999023438 664.887695312 442.166015625 696.5 388.499023438 c 0
 722.166992188 344.92578125 735 284.42578125 735 206.999023438 c 0
 735 91.69140625 698.333007812 18.5244140625 625 -12.5009765625 c 0
 599 -23.5009765625 567.333007812 -29.0009765625 530 -29.0009765625 c 2
 212 -29.0009765625 l 2
 196 -29.0009765625 181.5 -30.333984375 168.5 -33.0009765625 c 0
 155.5 -35.66796875 149 -45.0009765625 149 -61.0009765625 c 0
 149 -80.8193359375 162 -91.3193359375 188 -92.5009765625 c 0
 195.333007812 -92.833984375 203 -93.0009765625 211 -93.0009765625 c 2
 721 -93.0009765625 l 1
 721 -170.000976562 l 1
 189 -170.000976562 l 2
 149 -170.000976562 117.666992188 -161.66796875 95 -145.000976562 c 0
 72.3330078125 -128.333984375 61 -101.166992188 61 -63.5 c 0
 61 -25.8330078125 72.1669921875 0.1669921875 94.5 14.5 c 0
 116.833007812 28.8330078125 146.666015625 36 183.999023438 36 c 2
 505.999023438 36 l 2
 555.1484375 36 590.315429688 53.1669921875 611.5 87.5 c 0
 628.5 115.051757812 637 154.551757812 637 206 c 0
 637 284.154296875 620.833007812 338.154296875 588.5 368 c 0
 575.5 380 558.666992188 386 538 386 c 0
 496.666992188 386 476 352.666992188 476 286 c 2
 476 66 l 1
 375 66 l 1
 375 286 l 2
 375 320.666992188 364.333007812 345.5 343 360.5 c 0
 321.666992188 375.5 295 383 263 383 c 0
 191.00390625 383 146.850585938 354.262695312 130.541015625 296.788085938 c 1
125.708984375 216.11328125 m 1
 129.805664062 179.453125 141.235351562 153.083007812 159.999023438 137 c 0
 169.33203125 129 181.999023438 125 197.999023438 125 c 0
 213.999023438 125 226.999023438 131.666992188 236.999023438 145 c 0
 246.999023438 158.333007812 251.999023438 173.666015625 251.999023438 190.999023438 c 0
 251.999023438 208.33203125 246.83203125 223.165039062 236.499023438 235.498046875 c 0
 226.166015625 247.831054688 210.666015625 253.998046875 189.999023438 253.998046875 c 0
 161.065429688 253.998046875 139.635742188 241.370117188 125.708984375 216.11328125 c 1
EndSplineSet
EndChar

StartChar: ml_ii
Encoding: 3336 3336 139
Width: 1290
GlyphClass: 2
Flags: HMW
HStem: -170 77 -29 65 53 72 254 70 383 87
VStem: 61 88<-70.9102 -53.001 -70.9102 -44.6665> 252 97 375 101<66 286 66 303.333> 637 98<180.276 245.077>
LayerCount: 2
Fore
SplineSet
849 327.5 m 0xec
 847 316.5 845.999023438 301.451171875 845.999023438 282.35546875 c 0
 845.999023438 263.259765625 849.666015625 244.807617188 856.999023438 226.998046875 c 1
 771.999023438 226.998046875 l 1
 763.999023438 251.665039062 759.999023438 277.33203125 759.999023438 303.999023438 c 0
 759.999023438 353.999023438 773.166015625 393.999023438 799.499023438 423.999023438 c 0
 825.83203125 453.999023438 864.665039062 468.999023438 915.998046875 468.999023438 c 0
 937.998046875 468.999023438 957.331054688 466.33203125 973.998046875 460.999023438 c 0
 990.665039062 455.666015625 1004.66503906 443.333007812 1015.99804688 424 c 1
 1030.66503906 443.333007812 1047.16503906 455.666015625 1065.49804688 460.999023438 c 0
 1083.83105469 466.33203125 1107.33105469 468.999023438 1135.99804688 468.999023438 c 0
 1164.66503906 468.999023438 1189.33203125 462.33203125 1209.99902344 448.999023438 c 0
 1230.66601562 435.666015625 1246.99902344 418.333007812 1258.99902344 397 c 0
 1279.66601562 360.258789062 1289.99902344 309.591796875 1289.99902344 244.999023438 c 0
 1289.99902344 159.594726562 1276.16601562 97.76171875 1248.49902344 59.4990234375 c 0
 1215.9609375 14.4990234375 1158.79394531 -8.0009765625 1076.99902344 -8.0009765625 c 0
 994.016601562 -8.0009765625 939.016601562 19.4990234375 911.999023438 74.4990234375 c 0
 902.666015625 93.4990234375 897.999023438 116.33203125 897.999023438 142.999023438 c 1
 977.999023438 142.999023438 l 1xf4
 981.33203125 112.999023438 990.499023438 92.4990234375 1005.49902344 81.4990234375 c 0
 1020.49902344 70.4990234375 1042.49902344 64.9990234375 1071.49902344 64.9990234375 c 0
 1100.49902344 64.9990234375 1122.99902344 69.4990234375 1138.99902344 78.4990234375 c 0
 1154.99902344 87.4990234375 1166.83203125 99.83203125 1174.49902344 115.499023438 c 0
 1185.49902344 137.977539062 1190.99902344 178.477539062 1190.99902344 236.999023438 c 0
 1190.99902344 297.640625 1180.16601562 342.807617188 1158.49902344 372.499023438 c 0
 1149.49902344 384.83203125 1138.16601562 390.999023438 1124.49902344 390.999023438 c 0
 1110.83203125 390.999023438 1099.99902344 387.499023438 1091.99902344 380.499023438 c 0
 1083.99902344 373.499023438 1077.49902344 364.83203125 1072.49902344 354.499023438 c 0
 1062.83203125 334.521484375 1057.99902344 314.443359375 1057.99902344 294.265625 c 0
 1057.99902344 274.087890625 1059.33203125 255.999023438 1061.99902344 239.999023438 c 1
 963.999023438 237.999023438 l 1
 963.999023438 239.999023438 l 1
 966.999023438 284.999023438 l 2
 966.999023438 330.795898438 957.83203125 362.462890625 939.499023438 379.999023438 c 0
 931.83203125 387.33203125 921.83203125 390.999023438 909.499023438 390.999023438 c 0
 897.166015625 390.999023438 886.833007812 387.83203125 878.5 381.499023438 c 0
 870.166992188 375.166015625 863.666992188 367.333007812 859 358 c 0
 854.333007812 348.666992188 851 338.5 849 327.5 c 0xec
130.541015625 296.788085938 m 1
 153.1953125 314.928710938 182.768554688 323.998046875 219.260742188 323.998046875 c 0
 255.752929688 323.998046875 286.499023438 312.998046875 311.499023438 290.998046875 c 0
 336.499023438 268.998046875 348.999023438 236.998046875 348.999023438 194.998046875 c 0
 348.999023438 152.998046875 335.83203125 118.831054688 309.499023438 92.498046875 c 0
 283.166015625 66.1650390625 248.999023438 52.998046875 206.999023438 52.998046875 c 0
 151.041015625 52.998046875 108.541015625 69.998046875 79.4990234375 103.998046875 c 0
 53.166015625 134.827148438 39.9990234375 178.827148438 39.9990234375 235.998046875 c 0
 39.9990234375 312.665039062 59.9990234375 370.83203125 99.9990234375 410.499023438 c 0
 139.999023438 450.166015625 199.33203125 469.999023438 277.999023438 469.999023438 c 0
 314.532226562 469.999023438 339.999023438 467.999023438 354.399414062 463.999023438 c 0
 382.822265625 456.103515625 406.022460938 440.770507812 424 417.999023438 c 1
 446.564453125 449.2421875 474.564453125 465.909179688 508 467.999023438 c 0
 518.666992188 468.666015625 531 468.999023438 545 468.999023438 c 0
 614.387695312 468.999023438 664.887695312 442.166015625 696.5 388.499023438 c 0
 722.166992188 344.92578125 735 284.42578125 735 206.999023438 c 0
 735 91.69140625 698.333007812 18.5244140625 625 -12.5009765625 c 0
 599 -23.5009765625 567.333007812 -29.0009765625 530 -29.0009765625 c 2
 212 -29.0009765625 l 2
 196 -29.0009765625 181.5 -30.333984375 168.5 -33.0009765625 c 0
 155.5 -35.66796875 149 -45.0009765625 149 -61.0009765625 c 0
 149 -80.8193359375 162 -91.3193359375 188 -92.5009765625 c 0
 195.333007812 -92.833984375 203 -93.0009765625 211 -93.0009765625 c 2
 721 -93.0009765625 l 1
 721 -170.000976562 l 1
 189 -170.000976562 l 2
 149 -170.000976562 117.666992188 -161.66796875 95 -145.000976562 c 0
 72.3330078125 -128.333984375 61 -101.166992188 61 -63.5 c 0
 61 -25.8330078125 72.1669921875 0.1669921875 94.5 14.5 c 0
 116.833007812 28.8330078125 146.666015625 36 183.999023438 36 c 2
 505.999023438 36 l 2
 555.1484375 36 590.315429688 53.1669921875 611.5 87.5 c 0
 628.5 115.051757812 637 154.551757812 637 206 c 0
 637 284.154296875 620.833007812 338.154296875 588.5 368 c 0
 575.5 380 558.666992188 386 538 386 c 0
 496.666992188 386 476 352.666992188 476 286 c 2
 476 66 l 1
 375 66 l 1
 375 286 l 2
 375 320.666992188 364.333007812 345.5 343 360.5 c 0
 321.666992188 375.5 295 383 263 383 c 0
 191.00390625 383 146.850585938 354.262695312 130.541015625 296.788085938 c 1
125.708984375 216.11328125 m 1
 129.805664062 179.453125 141.235351562 153.083007812 159.999023438 137 c 0
 169.33203125 129 181.999023438 125 197.999023438 125 c 0
 213.999023438 125 226.999023438 131.666992188 236.999023438 145 c 0
 246.999023438 158.333007812 251.999023438 173.666015625 251.999023438 190.999023438 c 0
 251.999023438 208.33203125 246.83203125 223.165039062 236.499023438 235.498046875 c 0
 226.166015625 247.831054688 210.666015625 253.998046875 189.999023438 253.998046875 c 0
 161.065429688 253.998046875 139.635742188 241.370117188 125.708984375 216.11328125 c 1
EndSplineSet
EndChar

StartChar: ml_u
Encoding: 3337 3337 140
Width: 541
GlyphClass: 2
Flags: MW
HStem: -167 78 -27 64 55 72<181.476 210 180.439 232> 256 70<181.405 242.007> 386 85<264.743 318>
VStem: 51 97<-65.001 -50.001 -65.001 -25> 255 97<184 201> 442 98
LayerCount: 2
Fore
SplineSet
135.713867188 300.916015625 m 1
 158.5859375 317.638671875 188.018554688 326 224.010742188 326 c 0
 260.002929688 326 290.333007812 315 315 293 c 0
 339.666992188 271 352 238.5 352 195.5 c 0
 352 152.5 339.333007812 118.333007812 314 93 c 0
 288.666992188 67.6669921875 254 55 210 55 c 0
 152.952148438 55 109.78515625 72.5 80.4990234375 107.5 c 0
 54.166015625 138.971679688 40.9990234375 183.138671875 40.9990234375 240 c 0
 40.9990234375 317.633789062 66.166015625 376.30078125 116.499023438 416 c 0
 162.987304688 452.666992188 225.487304688 471 303.999023438 471 c 0
 461.33203125 471 539.999023438 385 539.999023438 213 c 0
 539.999023438 101.907226562 505.666015625 28.240234375 436.999023438 -8.0009765625 c 0
 412.999023438 -20.66796875 383.999023438 -27.0009765625 349.999023438 -27.0009765625 c 2
 204.999023438 -27.0009765625 l 2
 189.666015625 -27.0009765625 176.333007812 -28.333984375 165 -31.0009765625 c 0
 153.666992188 -33.66796875 148 -42.5009765625 148 -57.5009765625 c 0
 148 -72.5009765625 154.5 -81.5009765625 167.5 -84.5009765625 c 0
 180.5 -87.5009765625 194.666992188 -89.0009765625 210 -89.0009765625 c 2
 528 -89.0009765625 l 1
 528 -167.000976562 l 1
 181 -167.000976562 l 2
 142.333007812 -167.000976562 111 -158.16796875 87 -140.500976562 c 0
 63 -122.833984375 51 -94.6669921875 51 -56 c 0
 51 6 93 37 177 37 c 2
 327 37 l 2
 370.952148438 37 402.452148438 58.3330078125 421.5 101 c 0
 435.166992188 131.61328125 442 173.93359375 442 227.959960938 c 0
 442 281.986328125 430 321.833007812 406 347.5 c 0
 382 373.166992188 344 386 292 386 c 0
 204.888671875 386 152.79296875 357.638671875 135.713867188 300.916015625 c 1
196 256 m 0
 166.809570312 256 144.9921875 243.834960938 130.547851562 219.504882812 c 1
 136.393554688 157.834960938 159.877929688 127 201 127 c 0
 219 127 232.5 133.666992188 241.5 147 c 0
 250.5 160.333007812 255 175.5 255 192.5 c 0
 255 209.5 250 224.333007812 240 237 c 0
 230 249.666992188 215.333007812 256 196 256 c 0
EndSplineSet
EndChar

StartChar: ml_uu
Encoding: 3338 3338 141
Width: 1101
GlyphClass: 2
Flags: MW
HStem: -167 78 -27 64 -8 73 55 72 256 70 391 78
VStem: 51 97 255 97 442 98 569 86 707 80 776 91 1000 99
LayerCount: 2
Fore
SplineSet
658 327.5 m 0xafd8
 656 316.5 654.999023438 301.451171875 654.999023438 282.35546875 c 0
 654.999023438 263.259765625 658.666015625 244.807617188 665.999023438 226.998046875 c 1
 580.999023438 226.998046875 l 1
 572.999023438 251.665039062 568.999023438 277.33203125 568.999023438 303.999023438 c 0
 568.999023438 353.999023438 582.166015625 393.999023438 608.499023438 423.999023438 c 0
 634.83203125 453.999023438 673.665039062 468.999023438 724.998046875 468.999023438 c 0
 746.998046875 468.999023438 766.331054688 466.33203125 782.998046875 460.999023438 c 0
 799.665039062 455.666015625 813.665039062 443.333007812 824.998046875 424 c 1
 839.665039062 443.333007812 856.165039062 455.666015625 874.498046875 460.999023438 c 0
 892.831054688 466.33203125 916.331054688 468.999023438 944.998046875 468.999023438 c 0
 973.665039062 468.999023438 998.33203125 462.33203125 1018.99902344 448.999023438 c 0
 1039.66601562 435.666015625 1055.99902344 418.333007812 1067.99902344 397 c 0
 1088.66601562 360.258789062 1098.99902344 309.591796875 1098.99902344 244.999023438 c 0
 1098.99902344 159.594726562 1085.16601562 97.76171875 1057.49902344 59.4990234375 c 0
 1024.9609375 14.4990234375 967.793945312 -8.0009765625 885.999023438 -8.0009765625 c 0
 803.016601562 -8.0009765625 748.016601562 19.4990234375 720.999023438 74.4990234375 c 0
 711.666015625 93.4990234375 706.999023438 116.33203125 706.999023438 142.999023438 c 1
 786.999023438 142.999023438 l 1xafe8
 790.33203125 112.999023438 799.499023438 92.4990234375 814.499023438 81.4990234375 c 0
 829.499023438 70.4990234375 851.499023438 64.9990234375 880.499023438 64.9990234375 c 0
 909.499023438 64.9990234375 931.999023438 69.4990234375 947.999023438 78.4990234375 c 0
 963.999023438 87.4990234375 975.83203125 99.83203125 983.499023438 115.499023438 c 0
 994.499023438 137.977539062 999.999023438 178.477539062 999.999023438 236.999023438 c 0
 999.999023438 297.640625 989.166015625 342.807617188 967.499023438 372.499023438 c 0
 958.499023438 384.83203125 947.166015625 390.999023438 933.499023438 390.999023438 c 0
 919.83203125 390.999023438 908.999023438 387.499023438 900.999023438 380.499023438 c 0
 892.999023438 373.499023438 886.499023438 364.83203125 881.499023438 354.499023438 c 0
 871.83203125 334.521484375 866.999023438 314.443359375 866.999023438 294.265625 c 0
 866.999023438 274.087890625 868.33203125 255.999023438 870.999023438 239.999023438 c 1
 772.999023438 237.999023438 l 1
 772.999023438 239.999023438 l 1
 775.999023438 284.999023438 l 2
 775.999023438 330.795898438 766.83203125 362.462890625 748.499023438 379.999023438 c 0
 740.83203125 387.33203125 730.83203125 390.999023438 718.499023438 390.999023438 c 0
 706.166015625 390.999023438 695.833007812 387.83203125 687.5 381.499023438 c 0
 679.166992188 375.166015625 672.666992188 367.333007812 668 358 c 0
 663.333007812 348.666992188 660 338.5 658 327.5 c 0xafd8
135.712890625 300.915039062 m 1
 158.584960938 317.637695312 188.017578125 325.999023438 224.009765625 325.999023438 c 0
 260.001953125 325.999023438 290.33203125 314.999023438 314.999023438 292.999023438 c 0
 339.666015625 270.999023438 351.999023438 238.499023438 351.999023438 195.499023438 c 0
 351.999023438 152.499023438 339.33203125 118.33203125 313.999023438 92.9990234375 c 0
 288.666015625 67.666015625 253.999023438 54.9990234375 209.999023438 54.9990234375 c 0xdfc8
 152.951171875 54.9990234375 109.784179688 72.4990234375 80.498046875 107.499023438 c 0
 54.1650390625 138.970703125 40.998046875 183.137695312 40.998046875 239.999023438 c 0
 40.998046875 317.6328125 66.1650390625 376.299804688 116.498046875 415.999023438 c 0
 162.986328125 452.666015625 225.486328125 470.999023438 303.998046875 470.999023438 c 0
 461.331054688 470.999023438 539.998046875 384.999023438 539.998046875 212.999023438 c 0
 539.998046875 101.90625 505.665039062 28.2392578125 436.998046875 -8.001953125 c 0xafc8
 412.998046875 -20.6689453125 383.998046875 -27.001953125 349.998046875 -27.001953125 c 2
 204.998046875 -27.001953125 l 2
 189.665039062 -27.001953125 176.33203125 -28.3349609375 164.999023438 -31.001953125 c 0
 153.666015625 -33.6689453125 147.999023438 -42.501953125 147.999023438 -57.501953125 c 0
 147.999023438 -72.501953125 154.499023438 -81.501953125 167.499023438 -84.501953125 c 0
 180.499023438 -87.501953125 194.666015625 -89.001953125 209.999023438 -89.001953125 c 2
 527.999023438 -89.001953125 l 1
 527.999023438 -167.001953125 l 1
 180.999023438 -167.001953125 l 2
 142.33203125 -167.001953125 110.999023438 -158.168945312 86.9990234375 -140.501953125 c 0
 62.9990234375 -122.834960938 50.9990234375 -94.66796875 50.9990234375 -56.0009765625 c 0
 50.9990234375 5.9990234375 92.9990234375 36.9990234375 176.999023438 36.9990234375 c 2
 326.999023438 36.9990234375 l 2xcfc8
 370.951171875 36.9990234375 402.451171875 58.33203125 421.499023438 100.999023438 c 0
 435.166015625 131.612304688 441.999023438 173.932617188 441.999023438 227.958984375 c 0
 441.999023438 281.985351562 429.999023438 321.83203125 405.999023438 347.499023438 c 0
 381.999023438 373.166015625 343.999023438 385.999023438 291.999023438 385.999023438 c 0
 204.887695312 385.999023438 152.791992188 357.637695312 135.712890625 300.915039062 c 1
195.999023438 255.999023438 m 0
 166.80859375 255.999023438 144.991210938 243.833984375 130.546875 219.50390625 c 1
 136.392578125 157.833984375 159.876953125 126.999023438 200.999023438 126.999023438 c 0
 218.999023438 126.999023438 232.499023438 133.666015625 241.499023438 146.999023438 c 0
 250.499023438 160.33203125 254.999023438 175.499023438 254.999023438 192.499023438 c 0
 254.999023438 209.499023438 249.999023438 224.33203125 239.999023438 236.999023438 c 0
 229.999023438 249.666015625 215.33203125 255.999023438 195.999023438 255.999023438 c 0
EndSplineSet
EndChar

StartChar: ml_r
Encoding: 3339 3339 142
Width: 673
GlyphClass: 2
Flags: MW
HStem: -187 86<261.01 417.999 306.999 417.999 417.999 431.999> 39 93<252.047 401 315 401 401 408.999> 181 85<194.208 208.667 192.333 227.666> 386 84<190.667 215>
VStem: 41 108 58 98 247 85 375 87 557 115 562 101
LayerCount: 2
Fore
SplineSet
587 236 m 1xfb
 572.806640625 199.333007812 542.138671875 180.999023438 494.999023438 180.999023438 c 0
 455.173828125 180.999023438 424.673828125 196.33203125 403.499023438 226.999023438 c 0
 384.499023438 254.516601562 374.999023438 290.5625 374.999023438 335.13671875 c 0
 374.999023438 379.711914062 388.33203125 413.333007812 414.999023438 436 c 0
 441.666015625 458.666992188 477.999023438 470 523.999023438 470 c 0
 574.69140625 470 613.19140625 450.833007812 639.499023438 412.5 c 0
 661.166015625 380.928710938 671.999023438 338.76171875 671.999023438 286 c 0xfb80
 671.999023438 236.266601562 664.499023438 197.599609375 649.499023438 170 c 0
 633.176757812 139.966796875 603.009765625 113.299804688 558.999023438 90 c 1
 594.33203125 76.6669921875 620.499023438 61 637.499023438 43 c 0
 654.499023438 25 662.999023438 -1.6669921875 662.999023438 -37 c 0
 662.999023438 -72.3330078125 656.33203125 -100 642.999023438 -120 c 0
 629.666015625 -140 611.999023438 -155 589.999023438 -165 c 0
 557.732421875 -179.666992188 505.065429688 -187 431.999023438 -187 c 2
 295.999023438 -187 l 2
 226.020507812 -187 172.853515625 -178.833007812 136.499023438 -162.5 c 0
 84.166015625 -138.98828125 57.9990234375 -96.48828125 57.9990234375 -35 c 0xf740
 57.9990234375 -3 66.83203125 22.1669921875 84.4990234375 40.5 c 0
 102.166015625 58.8330078125 126.999023438 74.3330078125 158.999023438 87 c 1
 112.358398438 110.951171875 80.3583984375 139.618164062 62.9990234375 173.000976562 c 0
 48.33203125 201.206054688 40.9990234375 235.423828125 40.9990234375 275.654296875 c 0
 40.9990234375 315.884765625 43.166015625 346.833007812 47.4990234375 368.5 c 0
 51.83203125 390.166992188 59.9990234375 408.5 71.9990234375 423.5 c 0
 96.798828125 454.5 139.465820312 470 199.999023438 470 c 0
 243.999023438 470 276.999023438 456.666992188 298.999023438 430 c 0
 320.999023438 403.333007812 331.999023438 369 331.999023438 327 c 0
 331.999023438 259.848632812 311.666015625 215.181640625 270.999023438 193 c 0
 256.33203125 185 238.33203125 181 216.999023438 181 c 0
 171.416015625 181 141.749023438 199.333007812 127.999023438 236 c 1
 131.328125 174.41015625 172.495117188 140.577148438 251.499023438 134.5 c 0
 273.166015625 132.833007812 294.333007812 132 315 132 c 2
 401 132 l 2
 475.549804688 132 530.049804688 149.666992188 564.5 185 c 0
 577.5 198.333007812 585 215.333007812 587 236 c 1xfb
544.999023438 285.499023438 m 0
 552.999023438 298.499023438 556.999023438 312.16796875 556.999023438 326.500976562 c 0
 556.999023438 340.833984375 552.666015625 354.333984375 543.999023438 367.000976562 c 0
 535.33203125 379.66796875 522.83203125 386.000976562 506.499023438 386.000976562 c 0
 490.166015625 386.000976562 478.666015625 379.66796875 471.999023438 367.000976562 c 0
 465.33203125 354.333984375 461.999023438 340.666992188 461.999023438 326 c 0
 461.999023438 311.333007812 465.499023438 297.666015625 472.499023438 284.999023438 c 0
 479.499023438 272.33203125 491.33203125 265.999023438 507.999023438 265.999023438 c 0
 524.666015625 265.999023438 536.999023438 272.499023438 544.999023438 285.499023438 c 0
246.999023438 326.000976562 m 0
 246.999023438 366.000976562 231 386 199 386 c 0
 182.333007812 386 169.833007812 380 161.5 368 c 0
 153.166992188 356 149 342.5 149 327.5 c 0
 149 312.5 153.5 298.5 162.5 285.5 c 0
 171.5 272.5 184.166992188 266 200.5 266 c 0
 216.833007812 266 228.666015625 272.333007812 235.999023438 285 c 0
 243.33203125 297.666992188 246.999023438 311.333984375 246.999023438 326.000976562 c 0
156 -28 m 0xf740
 156 -76.6669921875 206.33203125 -101 306.999023438 -101 c 2
 417.999023438 -101 l 2
 478.3671875 -101 521.200195312 -89.1669921875 546.499023438 -65.5 c 0
 556.83203125 -55.8330078125 561.999023438 -43 561.999023438 -27 c 0
 561.999023438 -11 556.499023438 1.5 545.499023438 10.5 c 0
 534.499023438 19.5 521.166015625 26.1669921875 505.499023438 30.5 c 0
 485.01171875 36.1669921875 452.844726562 39 408.999023438 39 c 2
 268.999023438 39 l 2
 235.094726562 39 211.28515625 36 197.571289062 30 c 0
 169.857421875 17.875 156 -1.4580078125 156 -28 c 0xf740
EndSplineSet
EndChar

StartChar: l1
Encoding: 3340 3340 143
Width: 813
GlyphClass: 2
Flags: MW
HStem: -8 74 0 21G 211 89 393 77
VStem: 41 108 259 93<120.998 133.998> 384 92<-0.000976562 282.999 -0.000976562 299.999> 507 94 711 107
LayerCount: 2
Fore
SplineSet
352 136 m 0x7f80
 352 40 303.333984375 -8.001953125 206.000976562 -8.001953125 c 0
 115.928710938 -8.001953125 63.26171875 32.3310546875 48 112.998046875 c 0
 43.3330078125 137.665039062 41 167.498046875 41 202.498046875 c 0
 41 237.498046875 44.8330078125 271.831054688 52.5 305.498046875 c 0
 60.1669921875 339.165039062 73 368.165039062 91 392.498046875 c 0
 129.21875 444.165039062 190.551757812 469.998046875 274.999023438 469.998046875 c 0
 306.999023438 469.998046875 334.83203125 466.998046875 358.499023438 460.998046875 c 0
 382.166015625 454.998046875 405.999023438 440.998046875 429.999023438 418.998046875 c 1
 453.999023438 440.998046875 478.166015625 454.998046875 502.499023438 460.998046875 c 0
 526.83203125 466.998046875 557.665039062 469.998046875 594.998046875 469.998046875 c 0
 632.331054688 469.998046875 665.998046875 463.331054688 695.998046875 449.998046875 c 0
 725.998046875 436.665039062 749.998046875 417.83203125 767.998046875 393.499023438 c 0
 801.331054688 348.4375 817.998046875 281.9375 817.998046875 193.999023438 c 0
 817.998046875 128.954101562 807.165039062 80.62109375 785.498046875 48.9990234375 c 0
 759.4609375 10.9990234375 715.627929688 -8.0009765625 653.998046875 -8.0009765625 c 0xbf80
 608.665039062 -8.0009765625 572.83203125 3.83203125 546.499023438 27.4990234375 c 0
 520.166015625 51.166015625 506.999023438 87.3330078125 506.999023438 136 c 0
 506.999023438 181.828125 517.166015625 219.828125 537.499023438 250 c 0
 559.962890625 283.333007812 592.462890625 300 634.999023438 300 c 0
 652.999023438 300 670.83203125 295.666992188 688.499023438 287 c 0
 706.166015625 278.333007812 719.333007812 264.666015625 728 245.999023438 c 1
 719.352539062 343.999023438 670.352539062 392.999023438 581 392.999023438 c 0
 549 392.999023438 523.5 382.999023438 504.5 362.999023438 c 0
 485.5 342.999023438 476 316.33203125 476 282.999023438 c 2
 476 -0.0009765625 l 1
 384 -0.0009765625 l 1
 384 282.999023438 l 2
 384 316.999023438 374.833007812 343.83203125 356.5 363.499023438 c 0
 338.166992188 383.166015625 313 392.999023438 281 392.999023438 c 0
 231.666992188 392.999023438 195.5 379.83203125 172.5 353.499023438 c 0
 149.5 327.166015625 135.333007812 291.333007812 130 246 c 1
 138.666992188 266 152.166992188 280 170.5 288 c 0
 188.833007812 296 208 300 228 300 c 0
 248 300 265.833007812 295.333007812 281.5 286 c 0
 297.166992188 276.666992188 310.166992188 264.166992188 320.5 248.5 c 0
 341.5 216.661132812 352 179.161132812 352 136 c 0x7f80
696.500976562 86.498046875 m 0
 706.16796875 100.165039062 711 113.998046875 711 127.998046875 c 0
 711 141.998046875 709.833007812 153.498046875 707.5 162.498046875 c 0
 705.166992188 171.498046875 701.666992188 179.498046875 697 186.498046875 c 0
 686.111328125 202.831054688 671.72265625 210.998046875 653.833984375 210.998046875 c 0
 635.9453125 210.998046875 622.66796875 202.665039062 614.000976562 185.998046875 c 0
 605.333984375 169.331054688 601.000976562 151.998046875 601.000976562 133.998046875 c 0
 601.000976562 115.998046875 605.500976562 100.165039062 614.500976562 86.498046875 c 0
 623.500976562 72.8310546875 637.000976562 65.998046875 655.000976562 65.998046875 c 0
 673.000976562 65.998046875 686.833984375 72.8310546875 696.500976562 86.498046875 c 0
163.5 187.498046875 m 0
 153.833007812 171.831054688 148.999023438 154.498046875 148.999023438 135.498046875 c 0
 148.999023438 116.498046875 153.83203125 100.165039062 163.499023438 86.498046875 c 0
 173.166015625 72.8310546875 186.833007812 65.998046875 204.5 65.998046875 c 0
 222.166992188 65.998046875 235.666992188 72.998046875 245 86.998046875 c 0
 254.333007812 100.998046875 259 114.498046875 259 127.498046875 c 0
 259 140.498046875 257.833007812 151.498046875 255.5 160.498046875 c 0
 253.166992188 169.498046875 249.666992188 177.831054688 245 185.498046875 c 0
 234.65234375 202.498046875 220.8984375 210.998046875 203.739257812 210.998046875 c 0
 186.580078125 210.998046875 173.166992188 203.165039062 163.5 187.498046875 c 0
EndSplineSet
EndChar

StartChar: ml_e
Encoding: 3342 3342 144
Width: 873
GlyphClass: 2
Flags: MW
HStem: -173 21G<712.002 735.156> -172 84 1 70 239 81 393 76
VStem: 41 83 275 89 419 86 594 92 783 90
LayerCount: 2
Fore
SplineSet
350.5 237.5 m 0x7fc0
 359.5 219.166992188 364.001953125 193.479492188 364.001953125 160.434570312 c 0
 364.001953125 127.389648438 355.334960938 97.578125 338.001953125 71 c 1
 419.001953125 71 l 1
 419.001953125 147 l 2
 419.001953125 292.498046875 458.168945312 390.331054688 536.501953125 440.5 c 0
 566.168945312 459.5 603.501953125 469 648.501953125 469 c 0
 693.501953125 469 730.501953125 459 759.501953125 439 c 0
 788.501953125 419 811.334960938 393.333007812 828.001953125 362 c 0
 858.001953125 305.599609375 873.001953125 233.599609375 873.001953125 146 c 0
 873.001953125 24 855.501953125 -63 820.501953125 -115 c 0
 794.4765625 -153.666992188 758.309570312 -173 712.001953125 -173 c 1xbfc0
 700.001953125 -110 l 1
 714.668945312 -102.666992188 726.168945312 -95.5 734.501953125 -88.5 c 0
 742.834960938 -81.5 750.501953125 -69.8330078125 757.501953125 -53.5 c 0
 764.501953125 -37.1669921875 769.668945312 -19.5 773.001953125 -0.5 c 0
 776.334960938 18.5 778.66796875 38.1669921875 780.000976562 58.5 c 0
 782.000976562 89 783.000976562 121.541992188 783.000976562 156.125 c 0
 783.000976562 190.708007812 781.000976562 220.833007812 777.000976562 246.5 c 0
 773.000976562 272.166992188 765.833984375 295.833984375 755.500976562 317.500976562 c 0
 731.49609375 367.833984375 694.99609375 393.000976562 646.000976562 393.000976562 c 0
 605.0625 393.000976562 572.729492188 374.833984375 549.001953125 338.500976562 c 0
 522.943359375 298.598632812 508.610351562 236.265625 506.001953125 151.500976562 c 0
 505.334960938 129.833984375 505.001953125 113.833984375 505.001953125 103.500976562 c 2
 505.001953125 82.0009765625 l 2
 505.001953125 78.0009765625 505.668945312 74.333984375 507.001953125 71.0009765625 c 2
 594.001953125 71.0009765625 l 1
 594.001953125 348.000976562 l 1
 686.001953125 348.000976562 l 1
 686.001953125 -27.9990234375 l 2
 686.001953125 -95.2763671875 662.668945312 -139.609375 616.001953125 -160.998046875 c 0
 600.001953125 -168.331054688 579.501953125 -171.998046875 554.501953125 -171.998046875 c 0
 529.501953125 -171.998046875 508.501953125 -166.831054688 491.501953125 -156.498046875 c 0
 474.501953125 -146.165039062 461.168945312 -132.83203125 451.501953125 -116.499023438 c 0
 441.834960938 -100.166015625 434.834960938 -81.666015625 430.501953125 -60.9990234375 c 0
 426.168945312 -40.33203125 422.3359375 -19.6650390625 419.002929688 1.001953125 c 1
 236.002929688 1.001953125 l 1
 235.002929688 53.001953125 l 1
 261.669921875 69.2333984375 275.002929688 98.56640625 275.002929688 141.000976562 c 0
 275.002929688 168.333984375 269.002929688 191.500976562 257.002929688 210.500976562 c 0
 245.002929688 229.500976562 226.169921875 239.000976562 200.502929688 239.000976562 c 0
 174.8359375 239.000976562 155.668945312 230.66796875 143.001953125 214.000976562 c 0
 130.334960938 197.333984375 124.001953125 177.666992188 124.001953125 155 c 0
 124.001953125 132.333007812 126.168945312 113 130.501953125 97 c 0
 134.834960938 81 145.66796875 69 163.000976562 61 c 1
 165.000976562 61 l 1
 153.000976562 1 l 1
 150.000976562 1 l 2
 114.62109375 1 86.9541015625 17.5 67.0009765625 50.5 c 0
 49.66796875 79.1669921875 41.0009765625 111.666992188 41.0009765625 148 c 0
 41.0009765625 200.666992188 54.66796875 242.5 82.0009765625 273.5 c 0
 109.333984375 304.5 148.666992188 320 200 320 c 0
 273.333007812 320 323.5 292.5 350.5 237.5 c 0x7fc0
594.001953125 -40.9990234375 m 2
 594 1.0009765625 l 1
 516 1.0009765625 l 1
 518.5 -23.9990234375 l 2
 520.852539062 -47.5224609375 525.857421875 -64.0703125 533.514648438 -73.6416015625 c 0
 541.171875 -83.212890625 550.333984375 -87.9990234375 561.000976562 -87.9990234375 c 0x7fc0
 571.66796875 -87.9990234375 579.834960938 -82.9990234375 585.501953125 -72.9990234375 c 0
 591.168945312 -62.9990234375 594.001953125 -52.33203125 594.001953125 -40.9990234375 c 2
EndSplineSet
EndChar

StartChar: ml_ee
Encoding: 3343 3343 145
Width: 927
GlyphClass: 2
Flags: MW
HStem: -180 86 -173 87 1 73<353 436 353 441> 78 91 236 84<181.667 215> 391 79
VStem: 42 87<132.667 151.642> 288 93<158 161.85> 436 90<85.3345 87.501 87.501 100.001 85.3345 127 85.3345 241.333> 441 96.5 621 95<74.001 318.001> 838 93
LayerCount: 2
Fore
SplineSet
436 127 m 2xbfb0
 436 355.666992188 524.3359375 470.001953125 701.002929688 470.001953125 c 0
 773.002929688 470.001953125 829.002929688 453.668945312 869.002929688 421.001953125 c 0
 909.002929688 388.334960938 929.002929688 339.66796875 929.002929688 275.000976562 c 0
 929.002929688 249.66796875 925.002929688 224.16796875 917.002929688 198.500976562 c 0
 909.002929688 172.833984375 892.3359375 150.000976562 867.002929688 130.000976562 c 1
 898.561523438 110.71484375 918.728515625 77.8818359375 927.502929688 31.5009765625 c 0
 929.8359375 19.16796875 931.002929688 6.0009765625 931.002929688 -7.9990234375 c 0
 931.002929688 -21.9990234375 928.669921875 -38.9990234375 924.002929688 -58.9990234375 c 0
 919.3359375 -78.9990234375 911.668945312 -97.4990234375 901.001953125 -114.499023438 c 0
 876.53125 -153.499023438 842.53125 -172.999023438 799.001953125 -172.999023438 c 0
 784.334960938 -172.999023438 768.66796875 -168.33203125 752.000976562 -158.999023438 c 1
 752.000976562 -72.9990234375 l 1
 760.66796875 -81.666015625 770.500976562 -85.9990234375 781.500976562 -85.9990234375 c 0
 792.500976562 -85.9990234375 801.500976562 -82.666015625 808.500976562 -75.9990234375 c 0
 815.500976562 -69.33203125 821.16796875 -61.33203125 825.500976562 -51.9990234375 c 0
 833.833984375 -34.05078125 838.000976562 -19.23046875 838.000976562 -7.5380859375 c 0
 838.000976562 4.154296875 837.16796875 14.333984375 835.500976562 23.0009765625 c 0
 833.833984375 31.66796875 831.333984375 40.0009765625 828.000976562 48.0009765625 c 0
 819.66796875 68.0009765625 807.66796875 78.0009765625 792.000976562 78.0009765625 c 2
 756.000976562 78.0009765625 l 1
 756.000976562 169.000976562 l 1
 773.000976562 169.000976562 l 2
 789.91015625 169.000976562 804.91015625 182.500976562 818.000976562 209.500976562 c 0
 828.66796875 231.500976562 834.000976562 252.66796875 834.000976562 273.000976562 c 0
 834.000976562 309.66796875 821.500976562 338.500976562 796.500976562 359.500976562 c 0
 771.500976562 380.500976562 738.000976562 391.000976562 696.000976562 391.000976562 c 0
 654.000976562 391.000976562 621.66796875 380.66796875 599.000976562 360.000976562 c 0
 576.333984375 339.333984375 559.666992188 314.000976562 549 284.000976562 c 0
 533.666992188 240.875976562 526 179.54296875 526 100.000976562 c 2
 526 87.5009765625 l 2x7fb0
 526 83.16796875 526.333007812 78.66796875 527 74.0009765625 c 1
 621 74.0009765625 l 1
 621 318.000976562 l 1
 716 318.000976562 l 1
 716 -36.9990234375 l 2
 716 -75.666015625 705.333007812 -108.333007812 684 -135 c 0
 660 -165 627 -180 585 -180 c 0
 532.629882812 -180 494.962890625 -159.333007812 472 -118 c 0
 456.92578125 -90.8671875 446.592773438 -51.2001953125 441 1 c 1xbf70
 246 1 l 1
 245 56 l 1
 273.666992188 71.435546875 288 99.435546875 288 140 c 0
 288 183.69921875 273.5 213.032226562 244.5 228 c 0
 234.166992188 233.333007812 222 236 208 236 c 0
 155.333007812 236 129 204.666992188 129 142 c 0
 129 123.333007812 131.5 107.333007812 136.5 94 c 0
 141.5 80.6669921875 153 69.6669921875 171 61 c 1
 158 0 l 1
 155 0 l 2
 116.86328125 0 87.36328125 17 66.5 51 c 0
 50.1669921875 77.6171875 42 106.104492188 42 136.462890625 c 0
 42 166.821289062 45.3330078125 192.5 52 213.5 c 0
 58.6669921875 234.5 68.6669921875 253 82 269 c 0
 110.333007812 303 151.75 320 206.25 320 c 0
 260.75 320 303.5 307 334.5 281 c 0
 365.5 255 381 221 381 179 c 0
 381 137 371.666992188 102 353 74 c 1
 436 74 l 1
 436 127 l 2xbfb0
619.002929688 -36.998046875 m 2
 619.00390625 1.0029296875 l 1
 535.00390625 1.0029296875 l 1
 535.670898438 -5.6640625 536.50390625 -14.3310546875 537.50390625 -24.998046875 c 0
 538.50390625 -35.6650390625 540.336914062 -46.1650390625 543.00390625 -56.498046875 c 0
 549.455078125 -81.498046875 561.788085938 -93.998046875 580.002929688 -93.998046875 c 0xbf70
 590.447265625 -93.998046875 599.947265625 -86.998046875 608.502929688 -72.998046875 c 0
 615.502929688 -61.5439453125 619.002929688 -49.5439453125 619.002929688 -36.998046875 c 2
EndSplineSet
EndChar

StartChar: ml_ai
Encoding: 3344 3344 146
Width: 1374
GlyphClass: 2
Flags: MW
HStem: -173 21G<1214 1237.15> -172 84 -8 73 -5 60 1 70 217 84 239 81 394 76
VStem: 240 96 431 82<188.492 218.246> 543 83 777 89 921 86 1096 92 1285 90
LayerCount: 2
Fore
SplineSet
121.22265625 255.873046875 m 1x11fe
 144.385742188 285.958007812 173.977539062 301 210 301 c 0
 250.365234375 301 281.865234375 285.666992188 304.5 255 c 0
 325.5 226.548828125 336 190.881835938 336 148 c 0
 336 102.423828125 324.833007812 65.423828125 302.5 37 c 0
 278.928710938 7 245.428710938 -8 202 -8 c 0x25fe
 144.04296875 -8 101.709960938 15 75 61 c 0
 53.6669921875 97.7412109375 43 147.07421875 43 209 c 0
 43 289.666992188 62.6669921875 353.333984375 102 400.000976562 c 0
 141.333007812 446.66796875 201 470.000976562 281 470.000976562 c 0
 361 470.000976562 419.666992188 448.16796875 457 404.500976562 c 0
 494.333007812 360.833984375 513 299.666992188 513 221 c 0
 513 122.0625 486.5 53.7294921875 433.5 16.0009765625 c 0
 413.833007812 2.0009765625 389.333007812 -4.9990234375 360 -4.9990234375 c 1
 348 55.0009765625 l 1
 375.958007812 55.0009765625 397.458007812 74.0009765625 412.5 112.000976562 c 0
 424.833007812 143.159179688 431 173.615234375 431 203.369140625 c 0
 431 233.123046875 427.833007812 259 421.5 281 c 0
 415.166992188 303 405.833984375 322.333007812 393.500976562 339 c 0
 366.3671875 375.666992188 326.166992188 394 272.900390625 394 c 0
 219.633789062 394 180.5 377.166992188 155.5 343.5 c 0
 137.829101562 319.703125 126.403320312 290.494140625 121.22265625 255.873046875 c 1x11fe
852.499023438 237.5 m 0
 861.499023438 219.166992188 866.000976562 193.479492188 866.000976562 160.434570312 c 0
 866.000976562 127.389648438 857.333984375 97.578125 840.000976562 71 c 1
 921.000976562 71 l 1
 921.000976562 147 l 2
 921.000976562 292.498046875 960.16796875 390.331054688 1038.50097656 440.5 c 0
 1068.16796875 459.5 1105.50097656 469 1150.50097656 469 c 0
 1195.50097656 469 1232.50097656 459 1261.50097656 439 c 0
 1290.50097656 419 1313.33398438 393.333007812 1330.00097656 362 c 0
 1360.00097656 305.599609375 1375.00097656 233.599609375 1375.00097656 146 c 0
 1375.00097656 24 1357.50097656 -63 1322.50097656 -115 c 0
 1296.47558594 -153.666992188 1260.30859375 -173 1214.00097656 -173 c 1x8bfe
 1202.00097656 -110 l 1
 1216.66796875 -102.666992188 1228.16796875 -95.5 1236.50097656 -88.5 c 0
 1244.83398438 -81.5 1252.50097656 -69.8330078125 1259.50097656 -53.5 c 0
 1266.50097656 -37.1669921875 1271.66796875 -19.5 1275.00097656 -0.5 c 0
 1278.33398438 18.5 1280.66699219 38.1669921875 1282 58.5 c 0
 1284 89 1285 121.541992188 1285 156.125 c 0
 1285 190.708007812 1283 220.833007812 1279 246.5 c 0
 1275 272.166992188 1267.83300781 295.833984375 1257.5 317.500976562 c 0
 1233.49511719 367.833984375 1196.99511719 393.000976562 1148 393.000976562 c 0
 1107.06152344 393.000976562 1074.72851562 374.833984375 1051.00097656 338.500976562 c 0
 1024.94238281 298.598632812 1010.609375 236.265625 1008.00097656 151.500976562 c 0
 1007.33398438 129.833984375 1007.00097656 113.833984375 1007.00097656 103.500976562 c 2
 1007.00097656 82.0009765625 l 2
 1007.00097656 78.0009765625 1007.66796875 74.333984375 1009.00097656 71.0009765625 c 2
 1096.00097656 71.0009765625 l 1
 1096.00097656 348.000976562 l 1
 1188.00097656 348.000976562 l 1
 1188.00097656 -27.9990234375 l 2
 1188.00097656 -95.2763671875 1164.66796875 -139.609375 1118.00097656 -160.998046875 c 0
 1102.00097656 -168.331054688 1081.50097656 -171.998046875 1056.50097656 -171.998046875 c 0
 1031.50097656 -171.998046875 1010.50097656 -166.831054688 993.500976562 -156.498046875 c 0
 976.500976562 -146.165039062 963.16796875 -132.83203125 953.500976562 -116.499023438 c 0
 943.833984375 -100.166015625 936.833984375 -81.666015625 932.500976562 -60.9990234375 c 0
 928.16796875 -40.33203125 924.334960938 -19.6650390625 921.001953125 1.001953125 c 1
 738.001953125 1.001953125 l 1
 737.001953125 53.001953125 l 1
 763.668945312 69.2333984375 777.001953125 98.56640625 777.001953125 141.000976562 c 0
 777.001953125 168.333984375 771.001953125 191.500976562 759.001953125 210.500976562 c 0
 747.001953125 229.500976562 728.168945312 239.000976562 702.501953125 239.000976562 c 0
 676.834960938 239.000976562 657.66796875 230.66796875 645.000976562 214.000976562 c 0
 632.333984375 197.333984375 626.000976562 177.666992188 626.000976562 155 c 0
 626.000976562 132.333007812 628.16796875 113 632.500976562 97 c 0
 636.833984375 81 647.666992188 69 665 61 c 1
 667 61 l 1
 655 1 l 1
 652 1 l 2
 616.620117188 1 588.953125 17.5 569 50.5 c 0
 551.666992188 79.1669921875 543 111.666992188 543 148 c 0
 543 200.666992188 556.666992188 242.5 584 273.5 c 0
 611.333007812 304.5 650.666015625 320 701.999023438 320 c 0x4bfe
 775.33203125 320 825.499023438 292.5 852.499023438 237.5 c 0
1096.00097656 -40.9990234375 m 2
 1095.99902344 1.0009765625 l 1
 1017.99902344 1.0009765625 l 1
 1020.49902344 -23.9990234375 l 2
 1022.8515625 -47.5224609375 1027.85644531 -64.0703125 1035.51367188 -73.6416015625 c 0
 1043.17089844 -83.212890625 1052.33300781 -87.9990234375 1063 -87.9990234375 c 0x49fe
 1073.66699219 -87.9990234375 1081.83398438 -82.9990234375 1087.50097656 -72.9990234375 c 0
 1093.16796875 -62.9990234375 1096.00097656 -52.33203125 1096.00097656 -40.9990234375 c 2
183.999023438 217.000976562 m 0x25fe
 153.11328125 217.000976562 131.736328125 200.901367188 119.866210938 168.701171875 c 1
 122.841796875 130.5546875 133.219726562 101.321289062 151 81.0009765625 c 0
 160.333007812 70.333984375 171.166015625 65.0009765625 183.499023438 65.0009765625 c 0
 195.83203125 65.0009765625 205.33203125 67.5009765625 211.999023438 72.5009765625 c 0
 218.666015625 77.5009765625 223.999023438 84.0009765625 227.999023438 92.0009765625 c 0
 235.999023438 108.000976562 239.999023438 125.000976562 239.999023438 143.000976562 c 0
 239.999023438 161.000976562 235.666015625 177.833984375 226.999023438 193.500976562 c 0
 218.33203125 209.16796875 203.999023438 217.000976562 183.999023438 217.000976562 c 0x25fe
EndSplineSet
EndChar

StartChar: ml_o
Encoding: 3346 3346 147
Width: 527
GlyphClass: 2
Flags: MW
HStem: -7 67 -7 75 185 82<351.003 370.003 350.003 371.003> 216 75 388 81
VStem: 45 81.1 229 93 437 91
LayerCount: 2
Fore
SplineSet
507 397.5 m 0x9f
 521 379.833007812 528.001953125 354.8359375 528.001953125 322.502929688 c 0
 528.001953125 290.169921875 516.334960938 260.002929688 493.001953125 232.002929688 c 1
 507.001953125 216.002929688 516.334960938 200.002929688 521.001953125 184.002929688 c 0
 525.668945312 168.002929688 528.001953125 149.3359375 528.001953125 128.002929688 c 0
 528.001953125 38.0029296875 485.001953125 -6.9970703125 399.001953125 -6.9970703125 c 2
 368.876953125 -6.9970703125 l 2
 360.293945312 -6.9970703125 353.3359375 -5.9970703125 348.002929688 -3.9970703125 c 1
 348.002929688 72.0029296875 l 1
 354.002929688 69.3359375 365.3359375 68.0029296875 382.002929688 68.0029296875 c 0
 398.669921875 68.0029296875 412.002929688 72.169921875 422.002929688 80.5029296875 c 0
 432.002929688 88.8359375 437.002929688 102.668945312 437.002929688 122.001953125 c 0
 437.002929688 141.334960938 435.169921875 154.66796875 431.502929688 162.000976562 c 0
 427.8359375 169.333984375 422.8359375 174.666992188 416.502929688 178 c 0
 407.63671875 182.666992188 392.13671875 185 370.002929688 185 c 2
 350.002929688 185 l 1
 351.002929688 267 l 1
 371.002929688 267 l 2x6f
 393.487304688 267 408.275390625 269.166992188 415.366210938 273.5 c 0
 429.790039062 282.314453125 437.001953125 299.147460938 437.001953125 323.999023438 c 0
 437.001953125 344.887695312 418.834960938 361.387695312 382.501953125 373.499023438 c 0
 353.501953125 383.166015625 325.001953125 387.999023438 297.001953125 387.999023438 c 0
 236.334960938 387.999023438 192.66796875 372.499023438 166.000976562 341.499023438 c 0
 149.305664062 322.090820312 137.836914062 296.607421875 131.59375 265.048828125 c 1
 151.615234375 282.349609375 173.521484375 291 197.313476562 291 c 0
 221.10546875 291 240.500976562 287.166992188 255.500976562 279.5 c 0
 270.500976562 271.833007812 283.000976562 261.5 293.000976562 248.5 c 0
 312.333984375 223.366210938 322.000976562 188.533203125 322.000976562 144 c 0
 322.000976562 99.87890625 310.500976562 63.87890625 287.500976562 36 c 0
 263.850585938 7.3330078125 235.188476562 -7 201.513671875 -7 c 0
 167.838867188 -7 141.500976562 -2.5 122.500976562 6.5 c 0
 103.500976562 15.5 88.16796875 28.3330078125 76.5009765625 45 c 0
 55.5009765625 75 45.0009765625 119.333007812 45.0009765625 178 c 0
 45.0009765625 236.666992188 51.5009765625 284.166992188 64.5009765625 320.5 c 0
 77.5009765625 356.833007812 96.0009765625 386 120.000976562 408 c 0
 164.364257812 448.666992188 230.697265625 469 319 469 c 0
 406.559570312 469 469.2265625 445.166992188 507 397.5 c 0x9f
126.1015625 185.400390625 m 1
 126.685546875 132.856445312 133.986328125 96.3916015625 148.002929688 76.00390625 c 0
 155.3359375 65.3369140625 164.8359375 60.00390625 176.502929688 60.00390625 c 0
 188.169921875 60.00390625 197.002929688 62.50390625 203.002929688 67.50390625 c 0
 209.002929688 72.50390625 214.002929688 78.8369140625 218.002929688 86.50390625 c 0
 225.3359375 100.559570312 229.002929688 114.990234375 229.002929688 129.795898438 c 0
 229.002929688 144.6015625 228.169921875 156.670898438 226.502929688 166.00390625 c 0
 224.8359375 175.336914062 222.002929688 183.669921875 218.002929688 191.002929688 c 0
 208.912109375 207.669921875 194.310546875 216.002929688 174.198242188 216.002929688 c 0x9f
 154.0859375 216.002929688 138.053710938 205.801757812 126.1015625 185.400390625 c 1
EndSplineSet
EndChar

StartChar: ml_oo
Encoding: 3347 3347 148
Width: 875
GlyphClass: 2
Flags: MW
HStem: -7 67 -7 76 185 82 216 75 388 81
VStem: 45 81.1 229 93 437 91 554 88 782 92
LayerCount: 2
Fore
SplineSet
705 389 m 0x4fc0
 663 389 642.001953125 353.66796875 642.001953125 283.000976562 c 1
 554.001953125 283.000976562 l 1
 554.001953125 285.000976562 l 2
 554.001953125 343.934570312 564.501953125 388.1015625 585.501953125 417.501953125 c 0
 610.501953125 452.501953125 651.501953125 470.001953125 708.501953125 470.001953125 c 0
 818.834960938 470.001953125 874.001953125 409.001953125 874.001953125 287.001953125 c 2
 874.001953125 166.001953125 l 2
 874.001953125 107.90625 863.168945312 65.2392578125 841.501953125 38.0009765625 c 0
 817.638671875 8.0009765625 777.138671875 -6.9990234375 720.001953125 -6.9990234375 c 0
 658.334960938 -6.9990234375 615.16796875 8.333984375 590.500976562 39.0009765625 c 0
 568.16796875 66.7666015625 557.000976562 112.099609375 557.000976562 175.000976562 c 1
 642.000976562 175.000976562 l 1
 642.000976562 104.333984375 662.66796875 69.0009765625 704.000976562 69.0009765625 c 0
 735.333984375 69.0009765625 756.166992188 78.66796875 766.5 98.0009765625 c 0
 776.833007812 117.333984375 782 141.666992188 782 171 c 2
 782 273 l 2
 782 328.677734375 769.5 364.177734375 744.5 379.5 c 0
 734.166992188 385.833007812 721 389 705 389 c 0x4fc0
507.001953125 397.500976562 m 0
 521.001953125 379.833984375 528.00390625 354.836914062 528.00390625 322.50390625 c 0
 528.00390625 290.170898438 516.336914062 260.00390625 493.00390625 232.00390625 c 1
 507.00390625 216.00390625 516.336914062 200.00390625 521.00390625 184.00390625 c 0
 525.670898438 168.00390625 528.00390625 149.336914062 528.00390625 128.00390625 c 0
 528.00390625 38.00390625 485.00390625 -6.99609375 399.00390625 -6.99609375 c 2
 368.87890625 -6.99609375 l 2
 360.295898438 -6.99609375 353.337890625 -5.99609375 348.004882812 -3.99609375 c 1
 348.004882812 72.00390625 l 1
 354.004882812 69.3369140625 365.337890625 68.00390625 382.004882812 68.00390625 c 0
 398.671875 68.00390625 412.004882812 72.1708984375 422.004882812 80.50390625 c 0
 432.004882812 88.8369140625 437.004882812 102.669921875 437.004882812 122.002929688 c 0
 437.004882812 141.3359375 435.171875 154.668945312 431.504882812 162.001953125 c 0
 427.837890625 169.334960938 422.837890625 174.66796875 416.504882812 178.000976562 c 0
 407.638671875 182.66796875 392.138671875 185.000976562 370.004882812 185.000976562 c 2
 350.004882812 185.000976562 l 1
 351.004882812 267.000976562 l 1
 371.004882812 267.000976562 l 2x6fc0
 393.489257812 267.000976562 408.27734375 269.16796875 415.368164062 273.500976562 c 0
 429.791992188 282.315429688 437.00390625 299.1484375 437.00390625 324 c 0
 437.00390625 344.888671875 418.836914062 361.388671875 382.50390625 373.5 c 0
 353.50390625 383.166992188 325.00390625 388 297.00390625 388 c 0
 236.336914062 388 192.669921875 372.5 166.002929688 341.5 c 0
 149.307617188 322.091796875 137.838867188 296.608398438 131.595703125 265.049804688 c 1
 151.6171875 282.350585938 173.5234375 291.000976562 197.315429688 291.000976562 c 0
 221.107421875 291.000976562 240.502929688 287.16796875 255.502929688 279.500976562 c 0
 270.502929688 271.833984375 283.002929688 261.500976562 293.002929688 248.500976562 c 0
 312.3359375 223.3671875 322.002929688 188.534179688 322.002929688 144.000976562 c 0
 322.002929688 99.8798828125 310.502929688 63.8798828125 287.502929688 36.0009765625 c 0
 263.852539062 7.333984375 235.190429688 -6.9990234375 201.515625 -6.9990234375 c 0x9fc0
 167.840820312 -6.9990234375 141.502929688 -2.4990234375 122.502929688 6.5009765625 c 0
 103.502929688 15.5009765625 88.169921875 28.333984375 76.5029296875 45.0009765625 c 0
 55.5029296875 75.0009765625 45.0029296875 119.333984375 45.0029296875 178.000976562 c 0
 45.0029296875 236.66796875 51.5029296875 284.16796875 64.5029296875 320.500976562 c 0
 77.5029296875 356.833984375 96.0029296875 386.000976562 120.002929688 408.000976562 c 0
 164.366210938 448.66796875 230.69921875 469.000976562 319.001953125 469.000976562 c 0
 406.561523438 469.000976562 469.228515625 445.16796875 507.001953125 397.500976562 c 0
126.103515625 185.401367188 m 1
 126.6875 132.857421875 133.98828125 96.392578125 148.004882812 76.0048828125 c 0
 155.337890625 65.337890625 164.837890625 60.0048828125 176.504882812 60.0048828125 c 0
 188.171875 60.0048828125 197.004882812 62.5048828125 203.004882812 67.5048828125 c 0
 209.004882812 72.5048828125 214.004882812 78.837890625 218.004882812 86.5048828125 c 0
 225.337890625 100.560546875 229.004882812 114.991210938 229.004882812 129.796875 c 0
 229.004882812 144.602539062 228.171875 156.671875 226.504882812 166.004882812 c 0
 224.837890625 175.337890625 222.004882812 183.670898438 218.004882812 191.00390625 c 0
 208.9140625 207.670898438 194.3125 216.00390625 174.200195312 216.00390625 c 0x9fc0
 154.087890625 216.00390625 138.055664062 205.802734375 126.103515625 185.401367188 c 1
EndSplineSet
EndChar

